<?xml version="1.0" encoding="UTF-8" standalone="no"?>
<!-- Created with Inkscape (http://www.inkscape.org/) -->

<svg
   width="210mm"
   height="297mm"
   viewBox="0 0 210 297"
   version="1.1"
   id="svg1"
   xmlns="http://www.w3.org/2000/svg"
   xmlns:svg="http://www.w3.org/2000/svg">
  <defs
     id="defs1" />
  <g
     id="layer18"
     transform="matrix(0.27726679,0,0,0.27160053,-184.18489,31.151469)">
    <path
       style="display:inline;fill:#0772d2;stroke-width:2.36167"
       d="m 1151.8515,907.12077 c 0.7514,-4.64572 5.9297,-17.64539 11.5073,-28.88816 9.4194,-18.9866 10.1411,-21.79493 10.1411,-39.45948 0,-17.21324 -0.9962,-21.37543 -10.4971,-43.85833 -5.7733,-13.66214 -14.497,-29.9997 -19.3862,-36.30568 -11.2383,-14.4956 -12.6483,-22.38664 -9.3083,-52.09515 8.2207,-73.1189 8.0913,-68.4149 2.4938,-90.78847 -4.5646,-18.24435 -4.9684,-23.96132 -3.3867,-47.92171 2.5178,-38.14005 1.7084,-53.11572 -3.899,-72.15506 -7.1724,-24.35158 -11.7675,-31.94801 -30.7864,-50.89326 -18.3821,-18.31066 -34.8886,-27.80202 -59.3849,-34.14679 -15.9714,-4.13674 -21.0448,-7.09429 -39.54945,-23.05593 -12.33105,-10.63618 -14.93362,-11.80438 -33.00664,-14.8155 -10.79129,-1.79786 -24.39214,-4.99862 -30.22464,-7.11279 -12.932,-4.68771 -49.35623,-13.87529 -54.23013,-13.67889 -8.86228,0.35711 -35.65305,-5.13547 -50.23987,-10.30005 -9.89845,-3.50461 -21.31426,-5.68421 -29.77174,-5.68421 -7.54437,0 -17.52605,-1.59687 -22.18116,-3.54861 -4.65511,-1.95174 -12.04129,-3.54861 -16.41397,-3.54861 -16.35831,0 -42.66648,-8.81835 -61.76389,-20.70285 -18.00606,-11.20549 -18.91916,-12.19378 -20.44147,-22.12782 -0.87633,-5.71916 -1.67202,-18.38287 -1.76822,-28.14157 l -0.17446,-17.74309 35.96591,-36.66892 c 49.61015,-50.57973 73.21979,-81.44497 92.64112,-121.111281 8.54165,-17.44517 16.13765,-36.262841 16.88007,-41.817052 2.0002,-14.965043 6.43464,-16.858799 45.95843,-19.627682 41.41908,-2.901649 85.91013,-0.834238 113.25141,5.262567 29.7856,6.641837 35.8544,6.113739 56.7618,-4.939265 15.2,-8.035729 20.911,-9.734736 36.347,-10.812833 21.9526,-1.5332315 28.6856,1.68867 40.3004,19.284062 13.387,20.280445 10.3285,27.369048 -20.9014,48.440372 -17.8019,12.011154 -25.8404,19.569386 -25.8404,24.296392 0,0.5572 3.1828,5.0319 7.0728,9.94379 5.8877,7.43412 7.0729,11.07239 7.0729,21.7112 0,14.92864 -6.3043,29.18469 -15.7156,35.53741 -16.3128,11.01159 -26.0779,23.04871 -28.6977,35.37486 -4.2257,19.88399 -5.8099,48.6793 -3.0658,55.72999 3.1901,8.19633 14.741,14.05717 42.8487,21.74095 33.6883,9.20928 47.9013,10.07988 63.5708,3.89391 9.4739,-3.74005 22.2905,-5.79921 47.5784,-7.64405 l 34.6112,-2.52503 17.6413,6.45631 c 14.2688,5.22202 20.0468,6.18776 30.2232,5.05152 6.9198,-0.77267 22.8456,-2.0668 35.3904,-2.87587 22.2493,-1.43495 23.2221,-1.27988 39.6604,6.32308 13.6867,6.33037 17.705,9.47302 21.3965,16.73392 2.4998,4.91688 4.5451,11.98947 4.5451,15.71689 0,3.72741 2.6522,14.6021 5.894,24.166 7.1796,21.18187 7.2426,24.45986 0.8265,43.06349 -4.7093,13.65463 -4.9585,17.59221 -3.526,55.69451 l 1.5414,41.00104 -10.502,11.26621 c -13.5987,14.58822 -15.3288,22.61848 -15.3719,71.35429 -0.033,36.66978 0.3211,39.80141 5.8365,51.68975 7.7028,16.60377 7.4378,19.91818 -2.3807,29.77054 -4.5384,4.55405 -8.2516,9.6371 -8.2516,11.29565 0,1.65855 3.9784,8.81202 8.841,15.89661 8.5515,12.45933 8.8283,13.50563 8.4546,31.95798 -0.4429,21.86925 -3.9513,31.65879 -22.2266,62.01859 -11.5818,19.24019 -19.8247,39.83182 -25.4918,63.68063 -2.694,11.33731 -3.5836,12.35905 -16.2732,18.69476 -14.1202,7.04993 -72.6883,31.40651 -94.761,39.40809 -7.1319,2.58533 -21.5687,8.36467 -32.0818,12.84299 -24.3134,10.35678 -25.4738,10.34192 -23.752,-0.30436 z"
       id="path16-0" />
    <path
       style="display:inline;fill:#ffffff;stroke-width:1.02541"
       d="m 1240.5615,563.76733 c -0.111,-0.0352 -0.1821,-0.0667 -0.16,-0.0706 0.022,-0.002 -0.9695,-1.02933 -2.2033,-2.27988 -5.7183,-5.79589 -9.0066,-10.02282 -11.1657,-14.35344 -1.4872,-2.98272 -2.153,-5.4355 -2.2309,-8.22032 -0.046,-1.64605 0.061,-2.67091 0.4243,-4.07608 1.1074,-4.27773 4.7941,-8.60107 8.9667,-10.51501 1.328,-0.60921 3.2817,-1.16525 4.5524,-1.29558 0.3006,-0.031 0.5045,-0.0821 0.4533,-0.11386 -0.052,-0.032 0.2885,-0.075 0.7552,-0.0957 1.0232,-0.0457 2.582,0.0158 2.452,0.0957 -0.05,0.0319 0.1529,0.0825 0.4536,0.11295 1.2792,0.12907 3.2131,0.68436 4.6221,1.32704 3.4992,1.59647 6.8362,5.12772 8.335,8.8205 0.7692,1.89493 1.0486,3.5215 0.9862,5.74004 -0.078,2.79143 -0.7425,5.23429 -2.2411,8.24105 -2.14,4.29443 -5.4345,8.52827 -11.1561,14.33705 -1.2339,1.2529 -2.2287,2.29329 -2.2098,2.31202 0.019,0.0188 -0.023,0.0339 -0.094,0.0339 -0.071,0 -0.175,0.0136 -0.2335,0.0321 -0.059,0.0177 -0.1969,0.002 -0.307,-0.0322 z m 2.4171,-4.28573 c 3.1275,-3.25947 4.84,-5.22542 6.5967,-7.57318 2.3943,-3.20007 3.9432,-6.02881 4.8367,-8.83371 1.1955,-3.75252 1.0116,-7.12779 -0.5605,-10.27806 -1.0382,-2.08099 -2.9518,-4.31906 -4.8847,-5.71305 -0.8925,-0.64362 -2.6909,-1.55286 -3.7583,-1.9002 -3.5831,-1.16574 -7.2886,-0.88848 -10.6956,0.80039 -1.3259,0.65722 -2.3405,1.36771 -3.4088,2.38686 -3.3902,3.23418 -5.0038,7.08397 -4.6458,11.08327 0.449,5.01427 3.338,10.30708 9.2084,16.8703 1.7126,1.91489 4.9828,5.27248 5.1351,5.27248 0.088,0 0.9674,-0.85456 2.1768,-2.1151 z m -3.9034,-13.19637 c -2.5492,-0.66139 -4.4985,-2.71103 -5.0513,-5.31133 -0.1537,-0.72197 -0.1549,-2.09435 0,-2.82697 0.4632,-2.23021 2.0771,-4.17344 4.1618,-5.01121 0.9153,-0.36769 1.5939,-0.49926 2.5789,-0.50002 1.0114,-7.9e-4 1.7603,0.139 2.6412,0.493 2.3671,0.9512 4.0538,3.21387 4.2737,5.73354 0.12,1.37594 -0.082,2.52376 -0.6549,3.71968 -0.8849,1.84735 -2.5368,3.20134 -4.5225,3.70686 -1.0457,0.26617 -2.3903,0.26475 -3.4242,-0.002 z m 3.236,-1.66494 c 0.8567,-0.26189 1.5118,-0.67194 2.2165,-1.38728 1.0592,-1.07553 1.5168,-2.1813 1.5168,-3.66612 0,-1.50467 -0.4544,-2.58723 -1.5564,-3.70835 -0.5641,-0.57355 -0.7995,-0.74925 -1.3627,-1.01689 -0.8825,-0.41929 -1.3909,-0.53661 -2.3236,-0.53661 -0.9339,0 -1.4428,0.11777 -2.3203,0.53702 -0.553,0.26421 -0.8059,0.4523 -1.3714,1.01989 -0.5656,0.56763 -0.753,0.82142 -1.0162,1.37635 -0.4239,0.89321 -0.5373,1.39556 -0.5349,2.36879 0,1.44687 0.4709,2.56374 1.5171,3.62592 0.8768,0.89019 1.807,1.3826 2.9557,1.56474 0.5935,0.0942 1.6632,0.012 2.2794,-0.17741 z"
       id="path3-5-4-1-0-8-7-7-1-3-2-9-9-0-29-25-6-6-0-8-3-5-04" />
    <text
       xml:space="preserve"
       style="font-size:30.9038px;font-family:Century;-inkscape-font-specification:Century;text-align:center;writing-mode:lr-tb;direction:ltr;text-anchor:middle;display:inline;fill:#ffffff;stroke-width:1.15887"
       x="1474.9891"
       y="502.42068"
       id="text25-4-3-1-9-9-2-5-4-8-0-8-9-78-52-54-93-3-3-8-0-1-5"
       transform="scale(0.83893764,1.1919837)"><tspan
         id="tspan25-2-1-3-0-3-6-4-6-0-1-8-2-1-0-91-5-3-6-7-3-2-4"
         x="1474.9891"
         y="502.42068"
         style="font-style:normal;font-variant:normal;font-weight:normal;font-stretch:normal;font-size:30.9038px;font-family:Tahoma;-inkscape-font-specification:Tahoma;stroke-width:1.15887">Centro Westfalia</tspan></text>
    <path
       style="display:inline;fill:#ffffff;stroke-width:1.02541"
       d="m 1160.4857,341.89547 c -0.111,-0.0352 -0.1821,-0.0667 -0.16,-0.0706 0.022,-0.002 -0.9695,-1.02933 -2.2033,-2.27988 -5.7183,-5.79589 -9.0066,-10.02282 -11.1657,-14.35344 -1.4872,-2.98272 -2.153,-5.4355 -2.2309,-8.22032 -0.046,-1.64605 0.061,-2.67091 0.4243,-4.07608 1.1074,-4.27773 4.7941,-8.60107 8.9667,-10.51501 1.328,-0.60921 3.2817,-1.16525 4.5524,-1.29558 0.3006,-0.031 0.5045,-0.0821 0.4533,-0.11386 -0.052,-0.032 0.2885,-0.075 0.7552,-0.0957 1.0232,-0.0457 2.582,0.0158 2.452,0.0957 -0.05,0.0319 0.1529,0.0825 0.4536,0.11295 1.2792,0.12907 3.2131,0.68436 4.6221,1.32704 3.4992,1.59647 6.8362,5.12772 8.335,8.8205 0.7692,1.89493 1.0486,3.5215 0.9862,5.74004 -0.078,2.79143 -0.7425,5.23429 -2.2411,8.24105 -2.14,4.29443 -5.4345,8.52827 -11.1561,14.33705 -1.2339,1.2529 -2.2287,2.29329 -2.2098,2.31202 0.019,0.0188 -0.023,0.0339 -0.094,0.0339 -0.071,0 -0.175,0.0136 -0.2335,0.0321 -0.059,0.0177 -0.1969,0.002 -0.307,-0.0322 z m 2.4171,-4.28573 c 3.1275,-3.25947 4.84,-5.22542 6.5967,-7.57318 2.3943,-3.20007 3.9432,-6.02881 4.8367,-8.83371 1.1955,-3.75252 1.0116,-7.12779 -0.5605,-10.27806 -1.0382,-2.08099 -2.9518,-4.31906 -4.8847,-5.71305 -0.8925,-0.64362 -2.6909,-1.55286 -3.7583,-1.9002 -3.5831,-1.16574 -7.2886,-0.88848 -10.6956,0.80039 -1.3259,0.65722 -2.3405,1.36771 -3.4088,2.38686 -3.3902,3.23418 -5.0038,7.08397 -4.6458,11.08327 0.449,5.01427 3.338,10.30708 9.2084,16.8703 1.7126,1.91489 4.9828,5.27248 5.1351,5.27248 0.088,0 0.9674,-0.85456 2.1768,-2.1151 z m -3.9034,-13.19637 c -2.5492,-0.66139 -4.4985,-2.71103 -5.0513,-5.31133 -0.1537,-0.72197 -0.1549,-2.09435 0,-2.82697 0.4632,-2.23021 2.0771,-4.17344 4.1618,-5.01121 0.9153,-0.36769 1.5939,-0.49926 2.5789,-0.50002 1.0114,-7.9e-4 1.7603,0.139 2.6412,0.493 2.3671,0.9512 4.0538,3.21387 4.2737,5.73354 0.12,1.37594 -0.082,2.52376 -0.6549,3.71968 -0.8849,1.84735 -2.5368,3.20134 -4.5225,3.70686 -1.0457,0.26617 -2.3903,0.26475 -3.4242,-0.002 z m 3.236,-1.66494 c 0.8567,-0.26189 1.5118,-0.67194 2.2165,-1.38728 1.0592,-1.07553 1.5168,-2.1813 1.5168,-3.66612 0,-1.50467 -0.4544,-2.58723 -1.5564,-3.70835 -0.5641,-0.57355 -0.7995,-0.74925 -1.3627,-1.01689 -0.8825,-0.41929 -1.3909,-0.53661 -2.3236,-0.53661 -0.9339,0 -1.4428,0.11777 -2.3203,0.53702 -0.553,0.26421 -0.8059,0.4523 -1.3714,1.01989 -0.5656,0.56763 -0.753,0.82142 -1.0162,1.37635 -0.4239,0.89321 -0.5373,1.39556 -0.5349,2.36879 0,1.44687 0.4709,2.56374 1.5171,3.62592 0.8768,0.89019 1.807,1.3826 2.9557,1.56474 0.5935,0.0942 1.6632,0.012 2.2794,-0.17741 z"
       id="path3-5-4-1-0-8-7-7-1-3-2-9-9-0-29-25-6-6-0-8-3-5-04-8" />
    <text
       xml:space="preserve"
       style="font-size:30.9038px;font-family:Century;-inkscape-font-specification:Century;text-align:center;writing-mode:lr-tb;direction:ltr;text-anchor:middle;display:inline;fill:#ffffff;stroke-width:1.15887"
       x="1379.5402"
       y="316.28403"
       id="text25-4-3-1-9-9-2-5-4-8-0-8-9-78-52-54-93-3-3-8-0-1-5-2"
       transform="scale(0.83893764,1.1919837)"><tspan
         id="tspan25-2-1-3-0-3-6-4-6-0-1-8-2-1-0-91-5-3-6-7-3-2-4-1"
         x="1379.5402"
         y="316.28403"
         style="font-style:normal;font-variant:normal;font-weight:normal;font-stretch:normal;font-size:30.9038px;font-family:Tahoma;-inkscape-font-specification:Tahoma;stroke-width:1.15887">Matanzas</tspan></text>
    <path
       style="display:inline;fill:#ffffff;stroke-width:1.02541"
       d="m 913.15695,110.26911 c -0.111,-0.0352 -0.1821,-0.0667 -0.16,-0.0706 0.022,-0.002 -0.9695,-1.02933 -2.2033,-2.27988 -5.7183,-5.79589 -9.0066,-10.022822 -11.1657,-14.353442 -1.4872,-2.98272 -2.153,-5.4355 -2.2309,-8.22032 -0.046,-1.64605 0.061,-2.67091 0.4243,-4.07608 1.1074,-4.27773 4.7941,-8.60107 8.9667,-10.51501 1.328,-0.60921 3.2817,-1.16525 4.5524,-1.29558 0.3006,-0.031 0.5045,-0.0821 0.4533,-0.11386 -0.052,-0.032 0.2885,-0.075 0.7552,-0.0957 1.0232,-0.0457 2.582,0.0158 2.452,0.0957 -0.05,0.0319 0.1529,0.0825 0.4536,0.11295 1.2792,0.12907 3.2131,0.68436 4.6221,1.32704 3.4992,1.59647 6.8362,5.12772 8.335,8.8205 0.7692,1.89493 1.0486,3.5215 0.9862,5.74004 -0.078,2.79143 -0.7425,5.23429 -2.2411,8.24105 -2.14,4.29443 -5.4345,8.528272 -11.1561,14.337052 -1.2339,1.2529 -2.2287,2.29329 -2.2098,2.31202 0.019,0.0188 -0.023,0.0339 -0.094,0.0339 -0.071,0 -0.175,0.0136 -0.2335,0.0321 -0.059,0.0177 -0.1969,0.002 -0.307,-0.0322 z m 2.4171,-4.28573 c 3.1275,-3.25947 4.84,-5.22542 6.5967,-7.573182 2.3943,-3.20007 3.9432,-6.02881 4.8367,-8.83371 1.1955,-3.75252 1.0116,-7.12779 -0.5605,-10.27806 -1.0382,-2.08099 -2.9518,-4.31906 -4.8847,-5.71305 -0.8925,-0.64362 -2.6909,-1.55286 -3.7583,-1.9002 -3.5831,-1.16574 -7.2886,-0.88848 -10.6956,0.80039 -1.3259,0.65722 -2.3405,1.36771 -3.4088,2.38686 -3.3902,3.23418 -5.0038,7.08397 -4.6458,11.08327 0.449,5.01427 3.338,10.30708 9.2084,16.870302 1.7126,1.91489 4.9828,5.27248 5.1351,5.27248 0.088,0 0.9674,-0.85456 2.1768,-2.1151 z m -3.9034,-13.196372 c -2.5492,-0.66139 -4.4985,-2.71103 -5.0513,-5.31133 -0.1537,-0.72197 -0.1549,-2.09435 0,-2.82697 0.4632,-2.23021 2.0771,-4.17344 4.1618,-5.01121 0.9153,-0.36769 1.5939,-0.49926 2.5789,-0.50002 1.0114,-7.9e-4 1.7603,0.139 2.6412,0.493 2.3671,0.9512 4.0538,3.21387 4.2737,5.73354 0.12,1.37594 -0.082,2.52376 -0.6549,3.71968 -0.8849,1.84735 -2.5368,3.20134 -4.5225,3.70686 -1.0457,0.26617 -2.3903,0.26475 -3.4242,-0.002 z m 3.236,-1.66494 c 0.8567,-0.26189 1.5118,-0.67194 2.2165,-1.38728 1.0592,-1.07553 1.5168,-2.1813 1.5168,-3.66612 0,-1.50467 -0.4544,-2.58723 -1.5564,-3.70835 -0.5641,-0.57355 -0.7995,-0.74925 -1.3627,-1.01689 -0.8825,-0.41929 -1.3909,-0.53661 -2.3236,-0.53661 -0.9339,0 -1.4428,0.11777 -2.3203,0.53702 -0.553,0.26421 -0.8059,0.4523 -1.3714,1.01989 -0.5656,0.56763 -0.753,0.82142 -1.0162,1.37635 -0.4239,0.89321 -0.5373,1.39556 -0.5349,2.36879 0,1.44687 0.4709,2.56374 1.5171,3.62592 0.8768,0.89019 1.807,1.3826 2.9557,1.56474 0.5935,0.0942 1.6632,0.012 2.2794,-0.17741 z"
       id="path3-5-4-1-0-8-7-7-1-3-2-9-9-0-29-25-6-6-0-8-3-5-04-8-4" />
    <text
       xml:space="preserve"
       style="font-size:30.9038px;font-family:Century;-inkscape-font-specification:Century;text-align:center;writing-mode:lr-tb;direction:ltr;text-anchor:middle;display:inline;fill:#ffffff;stroke-width:1.15887"
       x="1084.7283"
       y="121.96394"
       id="text25-4-3-1-9-9-2-5-4-8-0-8-9-78-52-54-93-3-3-8-0-1-5-2-8"
       transform="scale(0.83893764,1.1919837)"><tspan
         id="tspan25-2-1-3-0-3-6-4-6-0-1-8-2-1-0-91-5-3-6-7-3-2-4-1-4"
         x="1084.7283"
         y="121.96394"
         style="font-style:normal;font-variant:normal;font-weight:normal;font-stretch:normal;font-size:30.9038px;font-family:Tahoma;-inkscape-font-specification:Tahoma;stroke-width:1.15887">Matucui I</tspan></text>
  </g>
</svg>
