<?xml version="1.0" encoding="UTF-8" standalone="no"?>
<!-- Created with Inkscape (http://www.inkscape.org/) -->

<svg
   width="210mm"
   height="297mm"
   viewBox="0 0 210 297"
   version="1.1"
   id="svg1"
   xmlns="http://www.w3.org/2000/svg"
   xmlns:svg="http://www.w3.org/2000/svg">
  <defs
     id="defs1" />
  <g
     id="layer7"
     style="display:inline"
     transform="matrix(0.18947602,0,0,0.19326576,-109.64237,54.014818)">
    <path
       style="display:inline;fill:#0772d2;stroke-width:2.26167"
       d="m 832.47832,662.57059 c -2.18728,-1.98077 -7.30372,-4.29384 -11.36989,-5.14013 -4.06617,-0.84631 -14.37004,-5.98495 -22.89746,-11.41923 -18.37011,-11.70671 -35.49237,-18.20535 -53.25723,-20.21343 -12.12075,-1.37012 -26.45022,-7.86187 -33.56741,-15.20729 -3.37309,-3.48125 -50.92334,-27.5989 -60.98398,-30.93127 -17.32715,-5.73925 -23.21301,-6.92784 -28.26994,-5.70886 -19.51495,4.70409 -30.48176,-17.32495 -20.2836,-40.74377 3.77241,-8.6629 4.1651,-14.31505 4.20077,-60.4642 0.0449,-57.97883 -1.44643,-53.85095 19.45489,-53.85095 7.1545,0 17.07874,-1.74409 22.05389,-3.87574 4.97517,-2.13165 17.21451,-4.90984 27.19857,-6.17373 12.54062,-1.58751 22.12745,-4.50134 31.0088,-9.42486 10.36665,-5.74689 15.66732,-7.11614 27.375,-7.07147 10.31543,0.0393 17.348,-1.44244 24.29023,-5.11811 13.70678,-7.25725 13.00229,-12.05203 -4.18274,-28.46795 -19.6076,-18.73006 -20.65812,-20.53637 -13.00863,-22.36755 7.52819,-1.80217 9.63927,-9.30968 6.46525,-22.99206 -1.22067,-5.26194 -2.23884,-18.47492 -2.26259,-29.3622 -0.059,-26.96247 -0.43817,-27.46815 -17.87998,-23.83406 -7.77827,1.62065 -16.69898,3.60025 -19.82377,4.39908 -5.48637,1.40257 -5.37079,1.04743 3.36642,-10.34266 16.21711,-21.14111 16.10093,-33.9656 -0.3355,-37.0336 -4.22716,-0.78906 -10.94167,-2.4657 -14.92112,-3.72587 -7.23419,-2.29091 -7.23541,-2.29373 -7.30531,-17.03957 l -0.0698,-14.74831 11.43981,-1.47335 c 17.25454,-2.22227 131.95089,-6.24479 179.07233,-6.28027 48.35599,-0.0364 42.97516,-3.7497 50.34515,34.74318 4.64677,24.2697 12.21974,60.41082 29.00708,138.43211 5.41715,25.17681 10.50747,51.34336 11.31185,58.1479 1.59077,13.45796 10.83537,54.26388 13.87397,61.24089 5.07226,11.64603 17.52892,-1.01519 36.78922,-37.39305 l 7.0247,-13.26784 30.1278,1.68109 c 16.5703,0.92461 38.035,2.77705 47.6994,4.11658 9.6644,1.33953 31.5257,4.02579 48.5805,5.96949 17.0547,1.9437 39.8462,5.42196 50.6476,7.72949 30.9365,6.60902 42.4443,5.68184 74.4211,-5.99589 15.3493,-5.60553 31.629,-10.96712 36.177,-11.91463 4.5479,-0.94752 18.9498,-4.9076 32.0037,-8.80022 13.0543,-3.8926 26.0781,-7.11526 28.9416,-7.16143 2.8638,-0.0463 8.9279,-2.23533 13.4759,-4.8648 10.3366,-5.97629 30.3911,-6.40524 54.7822,-1.1717 26.4973,5.68548 102.7432,16.06687 135.1581,18.40268 34.2726,2.4697 31.4605,0.13856 57.4526,47.6241 34.0652,62.23412 37.1463,68.60979 36.4696,75.46728 -0.6124,6.20503 -2.5664,7.29721 -34.7586,19.42768 -18.7603,7.06918 -50.366,20.13448 -70.235,29.03397 l -36.1257,16.18096 -3.7925,10.68897 c -8.4763,23.88857 -13.9717,24.63467 -40.8625,5.54793 -23.1735,-16.44844 -26.3897,-18.08331 -41.2388,-20.96264 -6.2535,-1.21259 -16.4863,-4.01011 -22.7399,-6.21668 -18.7931,-6.63129 -28.8741,-7.89547 -44.2669,-5.55112 -8.0573,1.22714 -37.4411,3.0268 -65.2975,3.99924 -49.3465,1.72265 -50.9397,1.93924 -62.0175,8.43001 -6.2535,3.66406 -16.2996,7.83957 -22.3247,9.27892 -15.8834,3.79433 -47.2547,3.19553 -59.1656,-1.12934 -13.2192,-4.79982 -45.416,-4.90874 -65.2847,-0.22095 -8.5275,2.01196 -27.5978,7.53131 -42.3787,12.26522 -27.4522,8.79221 -40.723,11.57341 -109.56438,22.96191 -21.60282,3.57378 -48.11527,9.20521 -58.91667,12.5143 -18.46859,5.65799 -50.20678,13.22108 -54.78221,13.05441 -1.137,-0.0413 -3.85685,-1.69595 -6.0441,-3.67671 z"
       id="path19-8" />
    <path
       style="display:inline;fill:#ffffff;stroke-width:1.00709"
       d="m 888.96992,352.24507 c -0.11315,-0.0334 -0.18567,-0.0632 -0.16317,-0.0667 0.0219,-0.002 -0.98794,-0.97424 -2.24537,-2.15785 -5.82771,-5.48571 -9.17873,-9.48641 -11.37919,-13.58526 -1.51571,-2.82308 -2.19417,-5.14458 -2.27361,-7.78036 -0.0474,-1.55796 0.0619,-2.52796 0.43238,-3.85794 1.12861,-4.04877 4.88586,-8.14073 9.13819,-9.95224 1.35354,-0.5766 3.34455,-1.10289 4.63942,-1.22625 0.30639,-0.0293 0.5142,-0.0777 0.462,-0.10776 -0.0528,-0.0303 0.29408,-0.071 0.76965,-0.0906 1.0427,-0.0433 2.63139,0.0151 2.4991,0.0906 -0.051,0.0301 0.1557,0.0781 0.46209,0.10691 1.30371,0.12216 3.27467,0.64773 4.71048,1.25601 3.56622,1.51102 6.96707,4.85329 8.49445,8.34843 0.78395,1.79352 1.06866,3.33304 1.00516,5.43284 -0.0793,2.64202 -0.75681,4.95415 -2.2841,7.79999 -2.18096,4.0646 -5.53845,8.07184 -11.36943,13.56973 -1.25762,1.18585 -2.27116,2.17055 -2.25221,2.18828 0.0191,0.0178 -0.0237,0.0322 -0.0956,0.0322 -0.072,0 -0.17829,0.0129 -0.23796,0.0303 -0.0601,0.0168 -0.20071,0.002 -0.31286,-0.0305 z m 2.46329,-4.05637 c 3.18731,-3.08502 4.93261,-4.94576 6.72291,-7.16786 2.44006,-3.0288 4.01855,-5.70614 4.92914,-8.36093 1.21835,-3.55169 1.03094,-6.74631 -0.57114,-9.72797 -1.05809,-1.96963 -3.00837,-4.08792 -4.97824,-5.40729 -0.9095,-0.60917 -2.74235,-1.46977 -3.83015,-1.79851 -3.65166,-1.10336 -7.42796,-0.84093 -10.89997,0.75754 -1.35127,0.62206 -2.3854,1.29452 -3.47411,2.25912 -3.45497,3.06109 -5.0995,6.70484 -4.73463,10.4901 0.45753,4.74591 3.40177,9.75544 9.38445,15.96741 1.74539,1.81241 5.07819,4.99028 5.23343,4.99028 0.0893,0 0.98575,-0.80881 2.21831,-2.00189 z m -3.97809,-12.49009 c -2.59786,-0.62601 -4.58431,-2.56593 -5.14798,-5.02707 -0.15661,-0.68333 -0.1577,-1.98227 0,-2.67567 0.4722,-2.11086 2.11701,-3.95008 4.24166,-4.74301 0.93255,-0.34802 1.62413,-0.47255 2.62802,-0.47327 1.03076,-7.5e-4 1.79394,0.13157 2.69178,0.46662 2.41228,0.90029 4.13125,3.04186 4.35555,5.42668 0.12208,1.3023 -0.0838,2.38869 -0.66744,3.52061 -0.90194,1.74847 -2.58546,3.03 -4.60918,3.50847 -1.06565,0.25191 -2.43596,0.25057 -3.48968,-0.002 z m 3.29781,-1.57585 c 0.87315,-0.24786 1.54086,-0.63596 2.25895,-1.31303 1.0795,-1.01796 1.54578,-2.06455 1.54578,-3.4699 0,-1.42414 -0.463,-2.44876 -1.58623,-3.50987 -0.57469,-0.54287 -0.81466,-0.70916 -1.38871,-0.96248 -0.89939,-0.39685 -1.41732,-0.5079 -2.36782,-0.5079 -0.95196,0 -1.47043,0.11147 -2.36481,0.50829 -0.56349,0.25006 -0.82122,0.42809 -1.39764,0.9653 -0.57633,0.53725 -0.76729,0.77747 -1.03559,1.30269 -0.43202,0.84541 -0.54754,1.32087 -0.54508,2.24202 0,1.36942 0.47994,2.42652 1.54605,3.43185 0.89365,0.84255 1.84141,1.30862 3.0122,1.481 0.60485,0.0891 1.69492,0.0114 2.3229,-0.16792 z"
       id="path3-5-4-1-0-8-7-7-1-3-2-9" />
    <text
       xml:space="preserve"
       style="font-size:29.3555px;font-family:Century;-inkscape-font-specification:Century;text-align:center;writing-mode:lr-tb;direction:ltr;text-anchor:middle;display:inline;fill:#ffffff;stroke-width:1.10082"
       x="1053.7228"
       y="321.59158"
       id="text25-4-3-1-9-9-2-5-4-8-0-8"
       transform="scale(0.84197048,1.1876901)"><tspan
         id="tspan25-2-1-3-0-3-6-4-6-0-1-8"
         x="1053.7228"
         y="321.59158"
         style="font-style:normal;font-variant:normal;font-weight:normal;font-stretch:normal;font-size:29.3555px;font-family:Tahoma;-inkscape-font-specification:Tahoma;stroke-width:1.10082">Panzal</tspan></text>
    <path
       style="display:inline;fill:#ffffff;stroke-width:1.00709"
       d="m 667.05876,467.56903 c -0.11315,-0.0334 -0.18567,-0.0632 -0.16317,-0.0667 0.0219,-0.002 -0.98794,-0.97424 -2.24537,-2.15785 -5.82771,-5.48571 -9.17873,-9.48641 -11.37919,-13.58526 -1.51571,-2.82308 -2.19417,-5.14458 -2.27361,-7.78036 -0.0474,-1.55796 0.0619,-2.52796 0.43238,-3.85794 1.12861,-4.04877 4.88586,-8.14073 9.13819,-9.95224 1.35354,-0.5766 3.34455,-1.10289 4.63942,-1.22625 0.30639,-0.0293 0.5142,-0.0777 0.462,-0.10776 -0.0528,-0.0303 0.29408,-0.071 0.76965,-0.0906 1.0427,-0.0433 2.63139,0.0151 2.4991,0.0906 -0.051,0.0301 0.1557,0.0781 0.46209,0.10691 1.30371,0.12216 3.27467,0.64773 4.71048,1.25601 3.56622,1.51102 6.96707,4.85329 8.49445,8.34843 0.78395,1.79352 1.06866,3.33304 1.00516,5.43284 -0.0793,2.64202 -0.75681,4.95415 -2.2841,7.79999 -2.18096,4.0646 -5.53845,8.07184 -11.36943,13.56973 -1.25762,1.18585 -2.27116,2.17055 -2.25221,2.18828 0.0191,0.0178 -0.0237,0.0322 -0.0956,0.0322 -0.072,0 -0.17829,0.0129 -0.23796,0.0303 -0.0601,0.0168 -0.20071,0.002 -0.31286,-0.0305 z m 2.46329,-4.05637 c 3.18731,-3.08502 4.93261,-4.94576 6.72291,-7.16786 2.44006,-3.0288 4.01855,-5.70614 4.92914,-8.36093 1.21835,-3.55169 1.03094,-6.74631 -0.57114,-9.72797 -1.05809,-1.96963 -3.00837,-4.08792 -4.97824,-5.40729 -0.9095,-0.60917 -2.74235,-1.46977 -3.83015,-1.79851 -3.65166,-1.10336 -7.42796,-0.84093 -10.89997,0.75754 -1.35127,0.62206 -2.3854,1.29452 -3.47411,2.25912 -3.45497,3.06109 -5.0995,6.70484 -4.73463,10.4901 0.45753,4.74591 3.40177,9.75544 9.38445,15.96741 1.74539,1.81241 5.07819,4.99028 5.23343,4.99028 0.0893,0 0.98575,-0.80881 2.21831,-2.00189 z m -3.97809,-12.49009 c -2.59786,-0.62601 -4.58431,-2.56593 -5.14798,-5.02707 -0.15661,-0.68333 -0.1577,-1.98227 0,-2.67567 0.4722,-2.11086 2.11701,-3.95008 4.24166,-4.74301 0.93255,-0.34802 1.62413,-0.47255 2.62802,-0.47327 1.03076,-7.5e-4 1.79394,0.13157 2.69178,0.46662 2.41228,0.90029 4.13125,3.04186 4.35555,5.42668 0.12208,1.3023 -0.0838,2.38869 -0.66744,3.52061 -0.90194,1.74847 -2.58546,3.03 -4.60918,3.50847 -1.06565,0.25191 -2.43596,0.25057 -3.48968,-0.002 z m 3.29781,-1.57585 c 0.87315,-0.24786 1.54086,-0.63596 2.25895,-1.31303 1.0795,-1.01796 1.54578,-2.06455 1.54578,-3.4699 0,-1.42414 -0.463,-2.44876 -1.58623,-3.50987 -0.57469,-0.54287 -0.81466,-0.70916 -1.38871,-0.96248 -0.89939,-0.39685 -1.41732,-0.5079 -2.36782,-0.5079 -0.95196,0 -1.47043,0.11147 -2.36481,0.50829 -0.56349,0.25006 -0.82122,0.42809 -1.39764,0.9653 -0.57633,0.53725 -0.76729,0.77747 -1.03559,1.30269 -0.43202,0.84541 -0.54754,1.32087 -0.54508,2.24202 0,1.36942 0.47994,2.42652 1.54605,3.43185 0.89365,0.84255 1.84141,1.30862 3.0122,1.481 0.60485,0.0891 1.69492,0.0114 2.3229,-0.16792 z"
       id="path3-5-4-1-0-8-7-7-1-3-2-9-8" />
    <text
       xml:space="preserve"
       style="font-size:29.3555px;font-family:Century;-inkscape-font-specification:Century;text-align:center;writing-mode:lr-tb;direction:ltr;text-anchor:middle;display:inline;fill:#ffffff;stroke-width:1.10082"
       x="793.10901"
       y="420.78082"
       id="text25-4-3-1-9-9-2-5-4-8-0-8-3"
       transform="scale(0.84197048,1.1876901)"><tspan
         id="tspan25-2-1-3-0-3-6-4-6-0-1-8-8"
         x="793.10901"
         y="420.78082"
         style="font-style:normal;font-variant:normal;font-weight:normal;font-stretch:normal;font-size:29.3555px;font-family:Tahoma;-inkscape-font-specification:Tahoma;stroke-width:1.10082">Orejuela</tspan></text>
  </g>
</svg>
