<?xml version="1.0" encoding="UTF-8" standalone="no"?>
<!-- Created with Inkscape (http://www.inkscape.org/) -->

<svg
   width="210mm"
   height="297mm"
   viewBox="0 0 210 297"
   version="1.1"
   id="svg1"
   xmlns="http://www.w3.org/2000/svg"
   xmlns:svg="http://www.w3.org/2000/svg">
  <defs
     id="defs1" />
  <g
     id="layer17"
     transform="matrix(0.28077878,0,0,0.27812373,-204.24725,28.868972)">
    <path
       style="display:inline;fill:#0772d2;stroke-width:2.24332"
       d="m 1122.9259,931.0469 c -56.4913,-2.60617 -74.5,-5.64822 -109.8545,-18.55688 -26.2213,-9.57398 -47.96989,-14.85275 -61.19379,-14.85275 -7.47601,0 -11.29358,-0.95006 -12.81291,-3.18866 -1.19013,-1.75376 -2.51724,-24.91706 -2.94893,-51.474 -1.01998,-62.73149 -6.04257,-159.40656 -10.08189,-194.05245 -1.75246,-15.03223 -3.28369,-55.22581 -3.40273,-89.31905 -0.11875,-34.09327 -1.24563,-63.08651 -2.50369,-64.42946 -1.46604,-1.56488 -5.38716,-2.10983 -10.92016,-1.51751 -10.36391,1.10953 -82.2674,19.60101 -104.59492,26.89873 -18.80716,6.14716 -18.49949,6.62231 -11.32285,-17.47399 4.45196,-14.94738 4.41965,-15.58456 -1.38098,-27.2413 -7.54645,-15.16563 -7.45364,-19.21633 0.80704,-35.23893 5.17311,-10.0342 7.14597,-18.62865 8.4612,-36.85965 0.94292,-13.07592 3.36349,-26.85718 5.37861,-30.62504 5.17476,-9.67588 6.40853,-61.90058 1.77067,-74.94586 -3.1,-8.71895 -2.94202,-11.56086 1.21526,-21.86507 2.62825,-6.51396 5.65616,-18.07579 6.72891,-25.69292 2.42222,-17.1972 10.28739,-28.34558 27.204,-38.55955 7.03218,-4.24602 21.75995,-13.63549 32.72816,-20.86552 18.24675,-12.02785 20.5422,-14.39832 26.99823,-27.88092 3.8808,-8.10448 7.05593,-16.35931 7.05593,-18.34406 0,-7.2536 8.50153,-16.69438 23.40771,-25.99354 8.39272,-5.23583 15.25945,-10.91124 15.25945,-12.61205 0,-1.70081 -3.50491,-5.68027 -7.78895,-8.843249 -7.6039,-5.61449 -14.43334,-8.37446 -88.76625,-35.873682 -35.58732,-13.165374 -36.01791,-13.401735 -36.01791,-19.769662 0,-4.947809 -2.26699,-7.940517 -9.75876,-12.883005 -5.36756,-3.540938 -9.1213,-6.858651 -8.34217,-7.372717 0.77915,-0.514066 12.93859,1.581645 27.02089,4.657131 14.0823,3.075503 31.81866,6.14616 39.41399,6.823722 16.94063,1.511204 18.40059,2.018801 41.07778,14.28164 14.3259,7.746829 22.23942,10.547324 36.91276,13.063082 25.22867,4.325511 50.19109,13.622881 67.2223,25.037271 32.6094,21.854799 39.5316,39.191209 34.3715,86.079939 -1.938,17.61164 -1.4572,22.17472 3.9324,37.3199 6.6329,18.63829 6.7936,14.926 -3.0831,71.22052 -3.7208,21.2079 -0.243,33.55278 12.0537,42.79263 4.468,3.35713 14.2545,15.48878 21.748,26.95922 18.2081,27.87118 18.346,34.59259 1.215,59.2476 -6.8254,9.8231 -13.1728,20.37742 -14.1055,23.45404 -2.0316,6.70186 3.0625,17.94125 8.7891,19.39092 4.6574,1.17906 73.6854,-15.82865 143.3943,-35.33068 25.8242,-7.22465 50.0603,-13.96933 53.8578,-14.98814 5.561,-1.49183 8.9769,-1.04371 17.55,2.30208 12.5647,4.90355 21.1172,16.26925 21.1172,28.06312 0,6.48884 -1.8378,9.16912 -10.9898,16.02824 -15.8935,11.912 -17.0925,15.08287 -12.3806,32.74607 2.2162,8.30734 4.031,24.07285 4.033,35.03448 0,21.96581 -3.6459,28.33057 -19.8741,34.65473 -17.9704,7.00305 -16.1497,12.72468 9.0756,28.52406 14.143,8.85794 16.3262,11.11935 16.3262,16.90924 0,3.67605 3.0335,11.43844 6.7411,17.24973 6.3132,9.89544 6.5845,11.65545 4.2749,27.73196 -1.3563,9.44128 -4.2901,24.09218 -6.5193,32.55757 -3.9081,14.84082 -3.8452,15.65589 1.7602,22.77611 7.9807,10.13731 9.8162,35.85584 3.6704,51.42156 -3.1945,8.09039 -3.6797,12.5551 -1.7318,15.93506 3.7022,6.42383 25.35,15.07175 66.3769,26.51656 18.9883,5.29694 39.185,11.18388 44.8814,13.08209 6.0226,2.00681 10.3574,2.62818 10.3574,1.48464 0,-1.08167 1.2429,-1.45991 2.7619,-0.84055 1.5191,0.61937 2.762,4.85518 2.762,9.41293 0,6.62251 -0.8332,8.07588 -4.1488,7.23655 -2.2816,-0.57764 -24.0123,-1.61049 -48.2903,-2.29523 -59.6786,-1.68319 -73.7167,0.62893 -94.73,15.60231 -16.0144,11.41138 -21.3092,19.92438 -21.3092,34.26095 0,5.02263 -1.9268,12.17423 -4.2815,15.89246 -2.3552,3.71823 -5.5714,11.40279 -7.1481,17.07683 -3.8174,13.74161 -11.8401,22.72227 -24.4868,27.41147 -9.4351,3.49826 -14.2452,3.82923 -51.4609,3.54065 -22.5792,-0.17511 -46.6459,-0.57635 -53.4817,-0.89172 z"
       id="path12-1" />
    <path
       style="display:inline;fill:#ffffff;stroke-width:1.12103"
       d="m 977.9103,592.33321 c -0.1243,-0.0376 -0.204,-0.0712 -0.1792,-0.0753 0.024,-0.002 -1.0861,-1.09818 -2.4683,-2.43237 -6.4061,-6.18355 -10.0898,-10.69319 -12.5086,-15.31346 -1.6661,-3.18222 -2.4119,-5.79905 -2.4992,-8.77013 -0.052,-1.75615 0.068,-2.84955 0.4753,-4.34871 1.2406,-4.56384 5.3707,-9.17634 10.0451,-11.21829 1.4878,-0.64996 3.6764,-1.24319 5.0999,-1.38224 0.3368,-0.0331 0.5652,-0.0876 0.5078,-0.12147 -0.058,-0.0341 0.3233,-0.08 0.8461,-0.10214 1.1462,-0.0488 2.8925,0.0169 2.7469,0.10214 -0.056,0.034 0.1713,0.088 0.5081,0.1205 1.4331,0.1377 3.5996,0.73014 5.17797,1.4158 3.9201,1.70325 7.6584,5.47068 9.3374,9.41045 0.8617,2.02167 1.1747,3.75704 1.1049,6.12396 -0.087,2.97813 -0.8319,5.58438 -2.5107,8.79225 -2.3974,4.58166 -6.0881,9.09867 -12.49777,15.29597 -1.3823,1.3367 -2.4967,2.44667 -2.4756,2.46666 0.021,0.0201 -0.026,0.0362 -0.1056,0.0362 -0.079,0 -0.1961,0.0145 -0.2616,0.0342 -0.066,0.0189 -0.2206,0.002 -0.3439,-0.0344 z m 2.7078,-4.57238 c 3.5036,-3.47748 5.42207,-5.57492 7.39007,-8.07971 2.6822,-3.4141 4.4174,-6.43204 5.4184,-9.42454 1.3392,-4.00351 1.1332,-7.60453 -0.628,-10.9655 -1.163,-2.22018 -3.3067,-4.60794 -5.4721,-6.09516 -0.9999,-0.68667 -3.01447,-1.65673 -4.21027,-2.0273 -4.0141,-1.24371 -8.1652,-0.9479 -11.9819,0.85392 -1.4854,0.70118 -2.622,1.45919 -3.8188,2.54651 -3.7979,3.45049 -5.6056,7.55777 -5.2045,11.82456 0.5029,5.34965 3.7394,10.99646 10.3158,17.99866 1.9186,2.04297 5.5821,5.62512 5.7527,5.62512 0.098,0 1.0838,-0.91171 2.4386,-2.25656 z m -4.3729,-14.079 c -2.8557,-0.70563 -5.0395,-2.89235 -5.6588,-5.66657 -0.1722,-0.77026 -0.1735,-2.23443 0,-3.01605 0.5189,-2.37938 2.327,-4.45258 4.6624,-5.34638 1.0253,-0.39229 1.7856,-0.53266 2.889,-0.53347 1.1331,-8.4e-4 1.972,0.1483 2.9589,0.52598 2.6518,1.01482 4.54127,3.42882 4.78767,6.11702 0.1344,1.46797 -0.092,2.69256 -0.7337,3.96847 -0.99127,1.97091 -2.84187,3.41546 -5.06637,3.95479 -1.1715,0.28397 -2.6778,0.28246 -3.836,-0.002 z m 3.6252,-1.7763 c 0.9598,-0.2794 1.6937,-0.71688 2.4831,-1.48007 1.1866,-1.14746 1.6992,-2.32719 1.6992,-3.91132 0,-1.60531 -0.509,-2.76028 -1.7436,-3.95638 -0.6319,-0.61191 -0.8956,-0.79936 -1.5266,-1.0849 -0.9886,-0.44734 -1.5581,-0.57251 -2.603,-0.57251 -1.0462,0 -1.6163,0.12565 -2.5993,0.57294 -0.6196,0.28188 -0.9029,0.48255 -1.5364,1.08811 -0.6336,0.60559 -0.8435,0.87636 -1.1384,1.4684 -0.4749,0.95296 -0.6019,1.4889 -0.5992,2.52723 0,1.54364 0.5275,2.73521 1.6995,3.86843 0.9823,0.94973 2.0243,1.47508 3.3112,1.6694 0.6649,0.10046 1.8632,0.0128 2.5535,-0.18928 z"
       id="path3-5-4-1-0-8-7-7-1-3-2-9-9-0-29-25-6-6-0-8-3-5" />
    <text
       xml:space="preserve"
       style="font-size:33.7856px;font-family:Century;-inkscape-font-specification:Century;text-align:center;writing-mode:lr-tb;direction:ltr;text-anchor:middle;display:inline;fill:#ffffff;stroke-width:1.26694"
       x="1138.3042"
       y="539.13641"
       id="text25-4-3-1-9-9-2-5-4-8-0-8-9-78-52-54-93-3-3-8-0-1"
       transform="scale(0.85967019,1.1632368)"><tspan
         id="tspan25-2-1-3-0-3-6-4-6-0-1-8-2-1-0-91-5-3-6-7-3-2"
         x="1138.3042"
         y="539.13641"
         style="font-style:normal;font-variant:normal;font-weight:normal;font-stretch:normal;font-size:33.7856px;font-family:Tahoma;-inkscape-font-specification:Tahoma;stroke-width:1.26694">Tixilhá</tspan></text>
    <path
       style="display:inline;fill:#ffffff;stroke-width:1.12103"
       d="m 926.35411,450.22835 c -0.1243,-0.0376 -0.204,-0.0712 -0.1792,-0.0753 0.024,-0.002 -1.0861,-1.09818 -2.4683,-2.43237 -6.4061,-6.18355 -10.0898,-10.69319 -12.5086,-15.31346 -1.6661,-3.18222 -2.4119,-5.79905 -2.4992,-8.77013 -0.052,-1.75615 0.068,-2.84955 0.4753,-4.34871 1.2406,-4.56384 5.3707,-9.17634 10.0451,-11.21829 1.4878,-0.64996 3.6764,-1.24319 5.0999,-1.38224 0.3368,-0.0331 0.5652,-0.0876 0.5078,-0.12147 -0.058,-0.0341 0.3233,-0.08 0.8461,-0.10214 1.1462,-0.0488 2.8925,0.0169 2.7469,0.10214 -0.056,0.034 0.1713,0.088 0.5081,0.1205 1.4331,0.1377 3.5996,0.73014 5.17797,1.4158 3.9201,1.70325 7.6584,5.47068 9.3374,9.41045 0.8617,2.02167 1.1747,3.75704 1.1049,6.12396 -0.087,2.97813 -0.8319,5.58438 -2.5107,8.79225 -2.3974,4.58166 -6.0881,9.09867 -12.49777,15.29597 -1.3823,1.3367 -2.4967,2.44667 -2.4756,2.46666 0.021,0.0201 -0.026,0.0362 -0.1056,0.0362 -0.079,0 -0.1961,0.0145 -0.2616,0.0342 -0.066,0.0189 -0.2206,0.002 -0.3439,-0.0344 z m 2.7078,-4.57238 c 3.5036,-3.47748 5.42207,-5.57492 7.39007,-8.07971 2.6822,-3.4141 4.4174,-6.43204 5.4184,-9.42454 1.3392,-4.00351 1.1332,-7.60453 -0.628,-10.9655 -1.163,-2.22018 -3.3067,-4.60794 -5.4721,-6.09516 -0.9999,-0.68667 -3.01447,-1.65673 -4.21027,-2.0273 -4.0141,-1.24371 -8.1652,-0.9479 -11.9819,0.85392 -1.4854,0.70118 -2.622,1.45919 -3.8188,2.54651 -3.7979,3.45049 -5.6056,7.55777 -5.2045,11.82456 0.5029,5.34965 3.7394,10.99646 10.3158,17.99866 1.9186,2.04297 5.5821,5.62512 5.7527,5.62512 0.098,0 1.0838,-0.91171 2.4386,-2.25656 z m -4.3729,-14.079 c -2.8557,-0.70563 -5.0395,-2.89235 -5.6588,-5.66657 -0.1722,-0.77026 -0.1735,-2.23443 0,-3.01605 0.5189,-2.37938 2.327,-4.45258 4.6624,-5.34638 1.0253,-0.39229 1.7856,-0.53266 2.889,-0.53347 1.1331,-8.4e-4 1.972,0.1483 2.9589,0.52598 2.6518,1.01482 4.54127,3.42882 4.78767,6.11702 0.1344,1.46797 -0.092,2.69256 -0.7337,3.96847 -0.99127,1.97091 -2.84187,3.41546 -5.06637,3.95479 -1.1715,0.28397 -2.6778,0.28246 -3.836,-0.002 z m 3.6252,-1.7763 c 0.9598,-0.2794 1.6937,-0.71688 2.4831,-1.48007 1.1866,-1.14746 1.6992,-2.32719 1.6992,-3.91132 0,-1.60531 -0.509,-2.76028 -1.7436,-3.95638 -0.6319,-0.61191 -0.8956,-0.79936 -1.5266,-1.0849 -0.9886,-0.44734 -1.5581,-0.57251 -2.603,-0.57251 -1.0462,0 -1.6163,0.12565 -2.5993,0.57294 -0.6196,0.28188 -0.9029,0.48255 -1.5364,1.08811 -0.6336,0.60559 -0.8435,0.87636 -1.1384,1.4684 -0.4749,0.95296 -0.6019,1.4889 -0.5992,2.52723 0,1.54364 0.5275,2.73521 1.6995,3.86843 0.9823,0.94973 2.0243,1.47508 3.3112,1.6694 0.6649,0.10046 1.8632,0.0128 2.5535,-0.18928 z"
       id="path3-5-4-1-0-8-7-7-1-3-2-9-9-0-29-25-6-6-0-8-3-5-0" />
    <text
       xml:space="preserve"
       style="font-size:33.7856px;font-family:Century;-inkscape-font-specification:Century;text-align:center;writing-mode:lr-tb;direction:ltr;text-anchor:middle;display:inline;fill:#ffffff;stroke-width:1.26694"
       x="1078.332"
       y="416.97311"
       id="text25-4-3-1-9-9-2-5-4-8-0-8-9-78-52-54-93-3-3-8-0-1-7"
       transform="scale(0.85967019,1.1632368)"><tspan
         id="tspan25-2-1-3-0-3-6-4-6-0-1-8-2-1-0-91-5-3-6-7-3-2-0"
         x="1078.332"
         y="416.97311"
         style="font-style:normal;font-variant:normal;font-weight:normal;font-stretch:normal;font-size:33.7856px;font-family:Tahoma;-inkscape-font-specification:Tahoma;stroke-width:1.26694">Cortez la Cuchilla</tspan></text>
  </g>
</svg>
