<?xml version="1.0" encoding="UTF-8" standalone="no"?>
<!-- Created with Inkscape (http://www.inkscape.org/) -->

<svg
   width="210mm"
   height="297mm"
   viewBox="0 0 210 297"
   version="1.1"
   id="svg1"
   xmlns="http://www.w3.org/2000/svg"
   xmlns:svg="http://www.w3.org/2000/svg">
  <defs
     id="defs1" />
  <g
     id="layer4"
     style="display:inline"
     transform="matrix(0.16279638,0,0,0.15568125,-75.990044,84.051551)">
    <path
       style="display:inline;fill:#0772d2;stroke-width:3.75207"
       d="m 1046.1318,684.61944 c -11.2632,-13.532 -24.1995,-26.5854 -28.7474,-29.00751 -18.32466,-9.75937 -177.76823,-21.66648 -221.25243,-16.52297 -11.09153,1.31195 -37.16273,-16.34148 -39.57103,-26.79449 -1.04703,-4.54455 0.86464,-15.80699 4.24816,-25.02767 3.7601,-10.24691 7.02502,-31.49631 8.39773,-54.6556 2.11466,-35.67718 1.81119,-38.56518 -5.19492,-49.43533 -4.6988,-7.2903 -13.33102,-13.35536 -23.42464,-16.45831 -14.36709,-4.41675 -84.93451,-29.0878 -113.48513,-39.67552 -6.15378,-2.28208 -23.4163,-16.03934 -38.36116,-30.57172 -14.94488,-14.53234 -33.64595,-30.63341 -41.55794,-35.78014 -7.91199,-5.14673 -20.92027,-17.51476 -28.90728,-27.48449 -7.98698,-9.96974 -18.77606,-22.4043 -23.97573,-27.63233 l -9.45389,-9.50548 12.78706,-7.38058 c 7.03288,-4.05933 31.48812,-19.00233 54.34499,-33.20662 73.09113,-45.42228 125.56285,-64.7416 203.53378,-74.93804 30.23652,-3.95413 43.11568,-4.03943 50.82605,-0.33646 5.67998,2.7277 22.07206,4.95948 36.42677,4.95948 29.09053,0 84.29081,9.17929 118.39919,19.68867 94.45342,29.10277 127.89102,35.53556 217.37992,41.82006 35.1644,2.46951 81.1977,8.53633 102.2965,13.48189 23.274,5.45549 66.0208,10.58108 108.6899,13.03266 38.6808,2.2224 86.1528,7.06843 105.4933,10.7689 19.3403,3.7005 52.6246,6.76686 73.965,6.81415 l 38.8007,0.0859 7.9568,27.52403 c 4.3762,15.13822 12.5496,47.65362 18.163,72.25641 5.6132,24.60283 12.6239,47.63353 15.5792,51.17938 2.9554,3.54589 13.2854,9.9537 22.9556,14.23961 9.6702,4.28591 27.3592,13.90871 39.3088,21.38397 20.4577,12.79771 21.6711,14.36883 20.7789,26.90305 l -0.9475,13.31146 -51.1483,3.69382 c -50.054,3.61476 -51.5244,4.00472 -68.7304,18.22593 -24.0728,19.89675 -56.4561,41.93601 -61.6186,41.93601 -2.3426,0 -9.2167,-7.10512 -15.2758,-15.78919 -15.0974,-21.6379 -26.8184,-29.42002 -39.2216,-26.04104 -28.1955,7.68123 -56.7906,16.64548 -73.3624,22.99833 -18.091,6.93518 -18.5783,6.88621 -24.9281,-2.50292 -7.9155,-11.70445 -9.7274,-10.54814 -39.7362,25.35712 -13.0851,15.65629 -25.3641,26.78058 -29.5701,26.78943 -8.0234,0.0176 -19.9798,14.27647 -19.9798,23.82877 0,6.67447 -8.0264,8.31904 -73.5254,15.06458 -20.2197,2.08236 -41.7978,6.75308 -47.9516,10.37938 -6.1538,3.62635 -25.5741,8.98825 -43.1563,11.91544 -50.641,8.43099 -52.3068,9.02577 -63.6265,22.71729 -5.9086,7.14691 -11.283,12.99434 -11.9429,12.99434 -0.6599,0 -10.4151,-11.07162 -21.6783,-24.60363 z"
       id="path23-2" />
    <path
       style="display:inline;fill:#ffffff;stroke-width:1.10049"
       d="m 899.15893,259.2348 c -0.1242,-0.0363 -0.2038,-0.0688 -0.1791,-0.0726 0.024,-0.002 -1.0844,-1.05984 -2.4646,-2.34744 -6.3967,-5.96771 -10.0749,-10.31993 -12.4902,-14.77892 -1.6637,-3.07113 -2.4084,-5.59661 -2.4956,-8.46398 -0.052,-1.69485 0.068,-2.75008 0.4746,-4.19691 1.2388,-4.40451 5.3629,-8.85601 10.0304,-10.82669 1.4857,-0.62726 3.6711,-1.19979 5.0924,-1.33399 0.3363,-0.0319 0.5644,-0.0845 0.5071,-0.11723 -0.058,-0.033 0.3228,-0.0772 0.8448,-0.0986 1.1445,-0.0471 2.8883,0.0164 2.7431,0.0986 -0.056,0.0327 0.1709,0.085 0.5072,0.1163 1.431,0.1329 3.5944,0.70464 5.1704,1.36637 3.9144,1.64379 7.6473,5.27972 9.3238,9.08196 0.8605,1.95111 1.173,3.62589 1.1033,5.91019 -0.087,2.87416 -0.8307,5.38944 -2.5071,8.48533 -2.3939,4.42173 -6.0792,8.78107 -12.4795,14.76202 -1.3804,1.29005 -2.4929,2.36127 -2.4721,2.38056 0.021,0.0194 -0.026,0.035 -0.1049,0.035 -0.079,0 -0.1957,0.014 -0.2612,0.033 -0.066,0.0183 -0.2203,0.002 -0.3434,-0.0332 z m 2.7038,-4.41278 c 3.4985,-3.35609 5.4142,-5.38032 7.3793,-7.79766 2.6783,-3.29493 4.4109,-6.20751 5.4104,-9.09556 1.3373,-3.86376 1.1316,-7.33907 -0.6269,-10.58271 -1.1614,-2.14269 -3.3021,-4.4471 -5.4643,-5.8824 -0.9983,-0.66269 -3.0101,-1.59891 -4.2041,-1.95653 -4.0082,-1.20031 -8.1532,-0.91482 -11.9642,0.8241 -1.4832,0.67672 -2.6183,1.40826 -3.8133,2.45762 -3.7923,3.33005 -5.5974,7.29395 -5.1969,11.4118 0.5022,5.16291 3.7339,10.61259 10.3007,17.37037 1.9158,1.97166 5.574,5.42875 5.7444,5.42875 0.098,0 1.082,-0.87988 2.4349,-2.17778 z m -4.3665,-13.58753 c -2.8515,-0.68101 -5.0319,-2.79138 -5.6506,-5.46876 -0.1719,-0.74338 -0.1731,-2.15645 0,-2.91077 0.5183,-2.29633 2.3237,-4.29715 4.6558,-5.15975 1.0236,-0.3786 1.7827,-0.51407 2.8846,-0.51485 1.1314,-8.2e-4 1.9691,0.14313 2.9546,0.50761 2.6478,0.9794 4.5346,3.30913 4.7808,5.9035 0.134,1.41672 -0.092,2.59856 -0.7326,3.82994 -0.99,1.9021 -2.8379,3.29623 -5.0592,3.81674 -1.1697,0.27404 -2.6738,0.27259 -3.8304,-0.002 z m 3.6198,-1.71431 c 0.9584,-0.26963 1.6913,-0.69184 2.4795,-1.42839 1.1849,-1.10741 1.6967,-2.24595 1.6967,-3.77478 0,-1.54928 -0.5082,-2.66392 -1.7411,-3.81827 -0.6308,-0.59057 -0.8942,-0.77147 -1.5243,-1.04704 -0.9872,-0.43172 -1.5557,-0.55253 -2.599,-0.55253 -1.0449,0 -1.614,0.12126 -2.5957,0.55295 -0.6185,0.27203 -0.9014,0.4657 -1.5341,1.05012 -0.6326,0.58445 -0.8422,0.84578 -1.1367,1.41714 -0.4742,0.9197 -0.601,1.43693 -0.5983,2.43902 0,1.48974 0.5268,2.63972 1.697,3.73339 0.9809,0.91657 2.0212,1.4236 3.3063,1.61112 0.6639,0.0969 1.8604,0.0124 2.5497,-0.18267 z"
       id="path3-5-4-1-0-8-7" />
    <text
       xml:space="preserve"
       style="font-size:32.0779px;font-family:Century;-inkscape-font-specification:Century;text-align:center;writing-mode:lr-tb;direction:ltr;text-anchor:middle;display:inline;fill:#ffffff;stroke-width:1.20291"
       x="1072.5468"
       y="253.03871"
       id="text25-4-3-1-9-9-2"
       transform="scale(0.84574335,1.1823918)"><tspan
         id="tspan25-2-1-3-0-3-6"
         x="1072.5468"
         y="253.03871"
         style="font-style:normal;font-variant:normal;font-weight:normal;font-stretch:normal;font-size:32.0779px;font-family:Tahoma;-inkscape-font-specification:Tahoma;stroke-width:1.20291">Eben-Ezer</tspan></text>
    <path
       style="display:inline;fill:#ffffff;stroke-width:1.10049"
       d="m 1057.7077,411.09221 c -0.1242,-0.0363 -0.2038,-0.0688 -0.1791,-0.0726 0.024,-0.002 -1.0844,-1.05984 -2.4646,-2.34744 -6.3967,-5.96771 -10.0749,-10.31993 -12.4902,-14.77892 -1.6637,-3.07113 -2.4084,-5.59661 -2.4956,-8.46398 -0.052,-1.69485 0.068,-2.75008 0.4746,-4.19691 1.2388,-4.40451 5.3629,-8.85601 10.0304,-10.82669 1.4857,-0.62726 3.6711,-1.19979 5.0924,-1.33399 0.3363,-0.0319 0.5644,-0.0845 0.5071,-0.11723 -0.058,-0.033 0.3228,-0.0772 0.8448,-0.0986 1.1445,-0.0471 2.8883,0.0164 2.7431,0.0986 -0.056,0.0327 0.1709,0.085 0.5072,0.1163 1.431,0.1329 3.5944,0.70464 5.1704,1.36637 3.9144,1.64379 7.6473,5.27972 9.3238,9.08196 0.8605,1.95111 1.173,3.62589 1.1033,5.91019 -0.087,2.87416 -0.8307,5.38944 -2.5071,8.48533 -2.3939,4.42173 -6.0792,8.78107 -12.4795,14.76202 -1.3804,1.29005 -2.4929,2.36127 -2.4721,2.38056 0.021,0.0194 -0.026,0.035 -0.1049,0.035 -0.079,0 -0.1957,0.014 -0.2612,0.033 -0.066,0.0183 -0.2203,0.002 -0.3434,-0.0332 z m 2.7038,-4.41278 c 3.4985,-3.35609 5.4142,-5.38032 7.3793,-7.79766 2.6783,-3.29493 4.4109,-6.20751 5.4104,-9.09556 1.3373,-3.86376 1.1316,-7.33907 -0.6269,-10.58271 -1.1614,-2.14269 -3.3021,-4.4471 -5.4643,-5.8824 -0.9983,-0.66269 -3.0101,-1.59891 -4.2041,-1.95653 -4.0082,-1.20031 -8.1532,-0.91482 -11.9642,0.8241 -1.4832,0.67672 -2.6183,1.40826 -3.8133,2.45762 -3.7923,3.33005 -5.5974,7.29395 -5.1969,11.4118 0.5022,5.16291 3.7339,10.61259 10.3007,17.37037 1.9158,1.97166 5.574,5.42875 5.7444,5.42875 0.098,0 1.082,-0.87988 2.4349,-2.17778 z m -4.3665,-13.58753 c -2.8515,-0.68101 -5.0319,-2.79138 -5.6506,-5.46876 -0.1719,-0.74338 -0.1731,-2.15645 0,-2.91077 0.5183,-2.29633 2.3237,-4.29715 4.6558,-5.15975 1.0236,-0.3786 1.7827,-0.51407 2.8846,-0.51485 1.1314,-8.2e-4 1.9691,0.14313 2.9546,0.50761 2.6478,0.9794 4.5346,3.30913 4.7808,5.9035 0.134,1.41672 -0.092,2.59856 -0.7326,3.82994 -0.99,1.9021 -2.8379,3.29623 -5.0592,3.81674 -1.1697,0.27404 -2.6738,0.27259 -3.8304,-0.002 z m 3.6198,-1.71431 c 0.9584,-0.26963 1.6913,-0.69184 2.4795,-1.42839 1.1849,-1.10741 1.6967,-2.24595 1.6967,-3.77478 0,-1.54928 -0.5082,-2.66392 -1.7411,-3.81827 -0.6308,-0.59057 -0.8942,-0.77147 -1.5243,-1.04704 -0.9872,-0.43172 -1.5557,-0.55253 -2.599,-0.55253 -1.0449,0 -1.614,0.12126 -2.5957,0.55295 -0.6185,0.27203 -0.9014,0.4657 -1.5341,1.05012 -0.6326,0.58445 -0.8422,0.84578 -1.1367,1.41714 -0.4742,0.9197 -0.601,1.43693 -0.5983,2.43902 0,1.48974 0.5268,2.63972 1.697,3.73339 0.9809,0.91657 2.0212,1.4236 3.3063,1.61112 0.6639,0.0969 1.8604,0.0124 2.5497,-0.18267 z"
       id="path3-5-4-1-0-8-7-7" />
    <text
       xml:space="preserve"
       style="font-size:32.0779px;font-family:Century;-inkscape-font-specification:Century;text-align:center;writing-mode:lr-tb;direction:ltr;text-anchor:middle;display:inline;fill:#ffffff;stroke-width:1.20291"
       x="1248.3323"
       y="377.2934"
       id="text25-4-3-1-9-9-2-5"
       transform="scale(0.84574335,1.1823918)"><tspan
         id="tspan25-2-1-3-0-3-6-4"
         x="1248.3323"
         y="377.2934"
         style="font-style:normal;font-variant:normal;font-weight:normal;font-stretch:normal;font-size:32.0779px;font-family:Tahoma;-inkscape-font-specification:Tahoma;stroke-width:1.20291">El Chorro</tspan></text>
    <path
       style="display:inline;fill:#ffffff;stroke-width:1.10049"
       d="m 1063.1595,596.7479 c -0.1242,-0.0363 -0.2038,-0.0688 -0.1791,-0.0726 0.024,-0.002 -1.0844,-1.05984 -2.4646,-2.34744 -6.3967,-5.96771 -10.0749,-10.31993 -12.4902,-14.77892 -1.6637,-3.07113 -2.4084,-5.59661 -2.4956,-8.46398 -0.052,-1.69485 0.068,-2.75008 0.4746,-4.19691 1.2388,-4.40451 5.3629,-8.85601 10.0304,-10.82669 1.4857,-0.62726 3.6711,-1.19979 5.0924,-1.33399 0.3363,-0.0319 0.5644,-0.0845 0.5071,-0.11723 -0.058,-0.033 0.3228,-0.0772 0.8448,-0.0986 1.1445,-0.0471 2.8883,0.0164 2.7431,0.0986 -0.056,0.0327 0.1709,0.085 0.5072,0.1163 1.431,0.1329 3.5944,0.70464 5.1704,1.36637 3.9144,1.64379 7.6473,5.27972 9.3238,9.08196 0.8605,1.95111 1.173,3.62589 1.1033,5.91019 -0.087,2.87416 -0.8307,5.38944 -2.5071,8.48533 -2.3939,4.42173 -6.0792,8.78107 -12.4795,14.76202 -1.3804,1.29005 -2.4929,2.36127 -2.4721,2.38056 0.021,0.0194 -0.026,0.035 -0.1049,0.035 -0.079,0 -0.1957,0.014 -0.2612,0.033 -0.066,0.0183 -0.2203,0.002 -0.3434,-0.0332 z m 2.7038,-4.41278 c 3.4985,-3.35609 5.4142,-5.38032 7.3793,-7.79766 2.6783,-3.29493 4.4109,-6.20751 5.4104,-9.09556 1.3373,-3.86376 1.1316,-7.33907 -0.6269,-10.58271 -1.1614,-2.14269 -3.3021,-4.4471 -5.4643,-5.8824 -0.9983,-0.66269 -3.0101,-1.59891 -4.2041,-1.95653 -4.0082,-1.20031 -8.1532,-0.91482 -11.9642,0.8241 -1.4832,0.67672 -2.6183,1.40826 -3.8133,2.45762 -3.7923,3.33005 -5.5974,7.29395 -5.1969,11.4118 0.5022,5.16291 3.7339,10.61259 10.3007,17.37037 1.9158,1.97166 5.574,5.42875 5.7444,5.42875 0.098,0 1.082,-0.87988 2.4349,-2.17778 z m -4.3665,-13.58753 c -2.8515,-0.68101 -5.0319,-2.79138 -5.6506,-5.46876 -0.1719,-0.74338 -0.1731,-2.15645 0,-2.91077 0.5183,-2.29633 2.3237,-4.29715 4.6558,-5.15975 1.0236,-0.3786 1.7827,-0.51407 2.8846,-0.51485 1.1314,-8.2e-4 1.9691,0.14313 2.9546,0.50761 2.6478,0.9794 4.5346,3.30913 4.7808,5.9035 0.134,1.41672 -0.092,2.59856 -0.7326,3.82994 -0.99,1.9021 -2.8379,3.29623 -5.0592,3.81674 -1.1697,0.27404 -2.6738,0.27259 -3.8304,-0.002 z m 3.6198,-1.71431 c 0.9584,-0.26963 1.6913,-0.69184 2.4795,-1.42839 1.1849,-1.10741 1.6967,-2.24595 1.6967,-3.77478 0,-1.54928 -0.5082,-2.66392 -1.7411,-3.81827 -0.6308,-0.59057 -0.8942,-0.77147 -1.5243,-1.04704 -0.9872,-0.43172 -1.5557,-0.55253 -2.599,-0.55253 -1.0449,0 -1.614,0.12126 -2.5957,0.55295 -0.6185,0.27203 -0.9014,0.4657 -1.5341,1.05012 -0.6326,0.58445 -0.8422,0.84578 -1.1367,1.41714 -0.4742,0.9197 -0.601,1.43693 -0.5983,2.43902 0,1.48974 0.5268,2.63972 1.697,3.73339 0.9809,0.91657 2.0212,1.4236 3.3063,1.61112 0.6639,0.0969 1.8604,0.0124 2.5497,-0.18267 z"
       id="path3-5-4-1-0-8-7-7-7" />
    <text
       xml:space="preserve"
       style="font-size:32.0779px;font-family:Century;-inkscape-font-specification:Century;text-align:center;writing-mode:lr-tb;direction:ltr;text-anchor:middle;display:inline;fill:#ffffff;stroke-width:1.20291"
       x="1254.7784"
       y="534.31049"
       id="text25-4-3-1-9-9-2-5-7"
       transform="scale(0.84574335,1.1823918)"><tspan
         id="tspan25-2-1-3-0-3-6-4-7"
         x="1254.7784"
         y="534.31049"
         style="font-style:normal;font-variant:normal;font-weight:normal;font-stretch:normal;font-size:32.0779px;font-family:Tahoma;-inkscape-font-specification:Tahoma;stroke-width:1.20291">Mezcal</tspan></text>
    <path
       style="display:inline;fill:#ffffff;stroke-width:1.10049"
       d="m 1336.7701,338.47079 c -0.1242,-0.0363 -0.2038,-0.0688 -0.1791,-0.0726 0.024,-0.002 -1.0844,-1.05984 -2.4646,-2.34744 -6.3967,-5.96771 -10.0749,-10.31993 -12.4902,-14.77892 -1.6637,-3.07113 -2.4084,-5.59661 -2.4956,-8.46398 -0.052,-1.69485 0.068,-2.75008 0.4746,-4.19691 1.2388,-4.40451 5.3629,-8.85601 10.0304,-10.82669 1.4857,-0.62726 3.6711,-1.19979 5.0924,-1.33399 0.3363,-0.0319 0.5644,-0.0845 0.5071,-0.11723 -0.058,-0.033 0.3228,-0.0772 0.8448,-0.0986 1.1445,-0.0471 2.8883,0.0164 2.7431,0.0986 -0.056,0.0327 0.1709,0.085 0.5072,0.1163 1.431,0.1329 3.5944,0.70464 5.1704,1.36637 3.9144,1.64379 7.6473,5.27972 9.3238,9.08196 0.8605,1.95111 1.173,3.62589 1.1033,5.91019 -0.087,2.87416 -0.8307,5.38944 -2.5071,8.48533 -2.3939,4.42173 -6.0792,8.78107 -12.4795,14.76202 -1.3804,1.29005 -2.4929,2.36127 -2.4721,2.38056 0.021,0.0194 -0.026,0.035 -0.1049,0.035 -0.079,0 -0.1957,0.014 -0.2612,0.033 -0.066,0.0183 -0.2203,0.002 -0.3434,-0.0332 z m 2.7038,-4.41278 c 3.4985,-3.35609 5.4142,-5.38032 7.3793,-7.79766 2.6783,-3.29493 4.4109,-6.20751 5.4104,-9.09556 1.3373,-3.86376 1.1316,-7.33907 -0.6269,-10.58271 -1.1614,-2.14269 -3.3021,-4.4471 -5.4643,-5.8824 -0.9983,-0.66269 -3.0101,-1.59891 -4.2041,-1.95653 -4.0082,-1.20031 -8.1532,-0.91482 -11.9642,0.8241 -1.4832,0.67672 -2.6183,1.40826 -3.8133,2.45762 -3.7923,3.33005 -5.5974,7.29395 -5.1969,11.4118 0.5022,5.16291 3.7339,10.61259 10.3007,17.37037 1.9158,1.97166 5.574,5.42875 5.7444,5.42875 0.098,0 1.082,-0.87988 2.4349,-2.17778 z m -4.3665,-13.58753 c -2.8515,-0.68101 -5.0319,-2.79138 -5.6506,-5.46876 -0.1719,-0.74338 -0.1731,-2.15645 0,-2.91077 0.5183,-2.29633 2.3237,-4.29715 4.6558,-5.15975 1.0236,-0.3786 1.7827,-0.51407 2.8846,-0.51485 1.1314,-8.2e-4 1.9691,0.14313 2.9546,0.50761 2.6478,0.9794 4.5346,3.30913 4.7808,5.9035 0.134,1.41672 -0.092,2.59856 -0.7326,3.82994 -0.99,1.9021 -2.8379,3.29623 -5.0592,3.81674 -1.1697,0.27404 -2.6738,0.27259 -3.8304,-0.002 z m 3.6198,-1.71431 c 0.9584,-0.26963 1.6913,-0.69184 2.4795,-1.42839 1.1849,-1.10741 1.6967,-2.24595 1.6967,-3.77478 0,-1.54928 -0.5082,-2.66392 -1.7411,-3.81827 -0.6308,-0.59057 -0.8942,-0.77147 -1.5243,-1.04704 -0.9872,-0.43172 -1.5557,-0.55253 -2.599,-0.55253 -1.0449,0 -1.614,0.12126 -2.5957,0.55295 -0.6185,0.27203 -0.9014,0.4657 -1.5341,1.05012 -0.6326,0.58445 -0.8422,0.84578 -1.1367,1.41714 -0.4742,0.9197 -0.601,1.43693 -0.5983,2.43902 0,1.48974 0.5268,2.63972 1.697,3.73339 0.9809,0.91657 2.0212,1.4236 3.3063,1.61112 0.6639,0.0969 1.8604,0.0124 2.5497,-0.18267 z"
       id="path3-5-4-1-0-8-7-7-1" />
    <text
       xml:space="preserve"
       style="font-size:32.0779px;font-family:Century;-inkscape-font-specification:Century;text-align:center;writing-mode:lr-tb;direction:ltr;text-anchor:middle;display:inline;fill:#ffffff;stroke-width:1.20291"
       x="1578.2935"
       y="315.87433"
       id="text25-4-3-1-9-9-2-5-4"
       transform="scale(0.84574335,1.1823918)"><tspan
         id="tspan25-2-1-3-0-3-6-4-6"
         x="1578.2935"
         y="315.87433"
         style="font-style:normal;font-variant:normal;font-weight:normal;font-stretch:normal;font-size:32.0779px;font-family:Tahoma;-inkscape-font-specification:Tahoma;stroke-width:1.20291">El Repollal</tspan></text>
  </g>
</svg>
