<?xml version="1.0" encoding="UTF-8" standalone="no"?>
<!-- Created with Inkscape (http://www.inkscape.org/) -->

<svg
   width="210mm"
   height="297mm"
   viewBox="0 0 210 297"
   version="1.1"
   id="svg1"
   xmlns="http://www.w3.org/2000/svg"
   xmlns:svg="http://www.w3.org/2000/svg">
  <defs
     id="defs1" />
  <g
     id="layer3"
     style="display:inline"
     transform="matrix(0.23021786,0,0,0.23416184,-159.81496,4.9366614)">
    <path
       style="display:inline;fill:#0772d2;stroke-width:3.93318"
       d="m 828.17124,843.29688 c -6.72059,-1.77214 -27.14418,-9.42483 -45.38576,-17.00603 -18.24158,-7.58118 -41.6735,-15.37341 -52.07093,-17.31599 l -18.90442,-3.53201 20.65004,-18.34962 c 35.22796,-31.30356 34.37149,-28.88105 36.36048,-102.84354 l 1.74559,-64.91203 17.45606,-2.53471 c 25.25666,-3.66733 46.11751,-12.09152 48.36704,-19.53192 1.07449,-3.55394 -1.23744,-17.98867 -5.13759,-32.07722 -5.54773,-20.03994 -6.77791,-33.33139 -5.6519,-61.06412 1.24527,-30.66869 3.01986,-38.73479 13.16064,-59.81955 8.48928,-17.65086 11.77402,-29.8007 11.91248,-44.06274 0.18852,-19.43643 0.7047,-20.2697 39.78878,-64.25059 32.68542,-36.78056 42.13159,-45.06405 54.11377,-47.45347 7.98389,-1.59205 29.44108,-5.88611 47.68267,-9.54233 18.24161,-3.6562 39.00751,-9.83104 46.14641,-13.72189 10.9922,-5.99085 65.5723,-10.69687 65.5723,-5.65378 0,0.78121 -3.1421,20.08185 -6.9824,42.89038 -8.0586,47.86134 -8.6001,60.24314 -2.8327,64.76709 2.2822,1.79029 41.2198,2.79091 86.5278,2.2236 88.1799,-1.10409 93.4171,-0.12583 114.6157,21.40812 7.0992,7.21153 20.2716,17.22874 29.272,22.26053 l 16.3644,9.14867 57.9185,-11.15732 c 31.8553,-6.13651 65.3386,-10.90864 74.4072,-10.60471 9.0685,0.30397 29.8424,-3.56472 46.1638,-8.59696 16.3213,-5.03223 36.9012,-10.44944 45.733,-12.03825 l 16.0579,-2.88872 4.2925,23.66625 c 6.478,35.71758 8.2023,55.8211 5.8204,67.86618 -1.2139,6.13829 -12.5245,21.51754 -25.9508,35.28591 -13.0896,13.42293 -25.4588,29.02856 -27.4873,34.67911 -5.1056,14.22225 0.1874,52.85209 9.4115,68.68689 4.4086,7.56847 8.2012,22.46867 9.3665,36.80071 l 1.9583,24.08303 -55.3859,-1.36654 c -30.4623,-0.75159 -73.453,-4.3284 -95.5349,-7.94851 -126.4685,-20.73303 -204.6858,-28.24425 -309.6657,-29.73712 l -60.0438,-0.85388 -17.981,22.15539 c -9.8895,12.18546 -33.0858,49.07417 -51.54726,81.97491 -36.79085,65.56614 -59.89112,99.32067 -74.55991,108.94828 -10.04799,6.59482 -44.38971,7.64918 -65.74349,2.0185 z"
       id="path15-2" />
    <path
       style="display:inline;fill:#ffffff;stroke-width:1.10049"
       d="m 1025.2367,568.96292 c -0.1242,-0.0363 -0.2038,-0.0688 -0.1791,-0.0726 0.024,-0.002 -1.0844,-1.05984 -2.4645,-2.34744 -6.3967,-5.96771 -10.0749,-10.31993 -12.4903,-14.77892 -1.6636,-3.07113 -2.4083,-5.59661 -2.4956,-8.46398 -0.052,-1.69485 0.068,-2.75008 0.4746,-4.19691 1.2388,-4.40451 5.3629,-8.85601 10.0304,-10.82669 1.4857,-0.62726 3.6711,-1.19979 5.0924,-1.33399 0.3363,-0.0319 0.5644,-0.0845 0.5071,-0.11723 -0.058,-0.033 0.3228,-0.0772 0.8448,-0.0986 1.1445,-0.0471 2.8883,0.0164 2.7431,0.0986 -0.056,0.0327 0.1709,0.085 0.5072,0.1163 1.431,0.1329 3.5944,0.70464 5.1704,1.36637 3.9144,1.64379 7.6473,5.27972 9.3238,9.08196 0.8605,1.95111 1.173,3.62589 1.1033,5.91019 -0.087,2.87416 -0.8307,5.38944 -2.5071,8.48533 -2.3938,4.42173 -6.0792,8.78107 -12.4795,14.76202 -1.3804,1.29005 -2.4929,2.36127 -2.4721,2.38056 0.021,0.0194 -0.026,0.035 -0.1049,0.035 -0.079,0 -0.1957,0.014 -0.2612,0.033 -0.066,0.0183 -0.2203,0.002 -0.3434,-0.0332 z m 2.7038,-4.41278 c 3.4986,-3.35609 5.4143,-5.38032 7.3793,-7.79766 2.6783,-3.29493 4.4109,-6.20751 5.4104,-9.09556 1.3373,-3.86376 1.1316,-7.33907 -0.6269,-10.58271 -1.1614,-2.14269 -3.3021,-4.4471 -5.4643,-5.8824 -0.9983,-0.66269 -3.0101,-1.59891 -4.2041,-1.95653 -4.0082,-1.20031 -8.1532,-0.91482 -11.9642,0.8241 -1.4832,0.67672 -2.6183,1.40826 -3.8133,2.45762 -3.7923,3.33005 -5.5974,7.29395 -5.1969,11.4118 0.5022,5.16291 3.7339,10.61259 10.3007,17.37037 1.9158,1.97166 5.574,5.42875 5.7444,5.42875 0.098,0 1.082,-0.87988 2.4349,-2.17778 z m -4.3664,-13.58753 c -2.8515,-0.68101 -5.032,-2.79138 -5.6507,-5.46876 -0.1718,-0.74338 -0.1731,-2.15645 0,-2.91077 0.5184,-2.29633 2.3238,-4.29715 4.6558,-5.15975 1.0236,-0.3786 1.7827,-0.51407 2.8846,-0.51485 1.1314,-8.2e-4 1.9691,0.14313 2.9546,0.50761 2.6478,0.9794 4.5346,3.30913 4.7808,5.9035 0.134,1.41672 -0.092,2.59856 -0.7326,3.82994 -0.99,1.9021 -2.8379,3.29623 -5.0592,3.81674 -1.1697,0.27404 -2.6738,0.27259 -3.8304,-0.002 z m 3.6198,-1.71431 c 0.9584,-0.26963 1.6913,-0.69184 2.4795,-1.42839 1.1849,-1.10741 1.6967,-2.24595 1.6967,-3.77478 0,-1.54928 -0.5082,-2.66392 -1.7411,-3.81827 -0.6308,-0.59057 -0.8942,-0.77147 -1.5243,-1.04704 -0.9872,-0.43172 -1.5557,-0.55253 -2.599,-0.55253 -1.0449,0 -1.614,0.12126 -2.5957,0.55295 -0.6185,0.27203 -0.9014,0.4657 -1.5341,1.05012 -0.6326,0.58445 -0.8422,0.84578 -1.1367,1.41714 -0.4742,0.9197 -0.601,1.43693 -0.5983,2.43902 0,1.48974 0.5268,2.63972 1.697,3.73339 0.9809,0.91657 2.0212,1.4236 3.3063,1.61112 0.6639,0.0969 1.8604,0.0124 2.5497,-0.18267 z"
       id="path3-5-4-1-0" />
    <text
       xml:space="preserve"
       style="font-size:32.0779px;font-family:Century;-inkscape-font-specification:Century;text-align:center;writing-mode:lr-tb;direction:ltr;text-anchor:middle;display:inline;fill:#ffffff;stroke-width:1.20291"
       x="1221.6201"
       y="514.98926"
       id="text25-4-3-1-9"
       transform="scale(0.84574335,1.1823918)"><tspan
         id="tspan25-2-1-3-0"
         x="1221.6201"
         y="514.98926"
         style="font-style:normal;font-variant:normal;font-weight:normal;font-stretch:normal;font-size:32.0779px;font-family:Tahoma;-inkscape-font-specification:Tahoma;stroke-width:1.20291">Cumbre del Carpintero</tspan></text>
    <path
       style="display:inline;fill:#ffffff;stroke-width:1.10049"
       d="m 1453.8963,460.03775 c -0.1242,-0.0363 -0.2038,-0.0688 -0.1791,-0.0726 0.024,-0.002 -1.0844,-1.05984 -2.4645,-2.34744 -6.3967,-5.96771 -10.0749,-10.31993 -12.4903,-14.77892 -1.6636,-3.07113 -2.4083,-5.59661 -2.4956,-8.46398 -0.052,-1.69485 0.068,-2.75008 0.4746,-4.19691 1.2388,-4.40451 5.3629,-8.85601 10.0304,-10.82669 1.4857,-0.62726 3.6711,-1.19979 5.0924,-1.33399 0.3363,-0.0319 0.5644,-0.0845 0.5071,-0.11723 -0.058,-0.033 0.3228,-0.0772 0.8448,-0.0986 1.1445,-0.0471 2.8883,0.0164 2.7431,0.0986 -0.056,0.0327 0.1709,0.085 0.5072,0.1163 1.431,0.1329 3.5944,0.70464 5.1704,1.36637 3.9144,1.64379 7.6473,5.27972 9.3238,9.08196 0.8605,1.95111 1.173,3.62589 1.1033,5.91019 -0.087,2.87416 -0.8307,5.38944 -2.5071,8.48533 -2.3938,4.42173 -6.0792,8.78107 -12.4795,14.76202 -1.3804,1.29005 -2.4929,2.36127 -2.4721,2.38056 0.021,0.0194 -0.026,0.035 -0.1049,0.035 -0.079,0 -0.1957,0.014 -0.2612,0.033 -0.066,0.0183 -0.2203,0.002 -0.3434,-0.0332 z m 2.7038,-4.41278 c 3.4986,-3.35609 5.4143,-5.38032 7.3793,-7.79766 2.6783,-3.29493 4.4109,-6.20751 5.4104,-9.09556 1.3373,-3.86376 1.1316,-7.33907 -0.6269,-10.58271 -1.1614,-2.14269 -3.3021,-4.4471 -5.4643,-5.8824 -0.9983,-0.66269 -3.0101,-1.59891 -4.2041,-1.95653 -4.0082,-1.20031 -8.1532,-0.91482 -11.9642,0.8241 -1.4832,0.67672 -2.6183,1.40826 -3.8133,2.45762 -3.7923,3.33005 -5.5974,7.29395 -5.1969,11.4118 0.5022,5.16291 3.7339,10.61259 10.3007,17.37037 1.9158,1.97166 5.574,5.42875 5.7444,5.42875 0.098,0 1.082,-0.87988 2.4349,-2.17778 z m -4.3664,-13.58753 c -2.8515,-0.68101 -5.032,-2.79138 -5.6507,-5.46876 -0.1718,-0.74338 -0.1731,-2.15645 0,-2.91077 0.5184,-2.29633 2.3238,-4.29715 4.6558,-5.15975 1.0236,-0.3786 1.7827,-0.51407 2.8846,-0.51485 1.1314,-8.2e-4 1.9691,0.14313 2.9546,0.50761 2.6478,0.9794 4.5346,3.30913 4.7808,5.9035 0.134,1.41672 -0.092,2.59856 -0.7326,3.82994 -0.99,1.9021 -2.8379,3.29623 -5.0592,3.81674 -1.1697,0.27404 -2.6738,0.27259 -3.8304,-0.002 z m 3.6198,-1.71431 c 0.9584,-0.26963 1.6913,-0.69184 2.4795,-1.42839 1.1849,-1.10741 1.6967,-2.24595 1.6967,-3.77478 0,-1.54928 -0.5082,-2.66392 -1.7411,-3.81827 -0.6308,-0.59057 -0.8942,-0.77147 -1.5243,-1.04704 -0.9872,-0.43172 -1.5557,-0.55253 -2.599,-0.55253 -1.0449,0 -1.614,0.12126 -2.5957,0.55295 -0.6185,0.27203 -0.9014,0.4657 -1.5341,1.05012 -0.6326,0.58445 -0.8422,0.84578 -1.1367,1.41714 -0.4742,0.9197 -0.601,1.43693 -0.5983,2.43902 0,1.48974 0.5268,2.63972 1.697,3.73339 0.9809,0.91657 2.0212,1.4236 3.3063,1.61112 0.6639,0.0969 1.8604,0.0124 2.5497,-0.18267 z"
       id="path3-5-4-1-0-3" />
    <text
       xml:space="preserve"
       style="font-size:32.0779px;font-family:Century;-inkscape-font-specification:Century;text-align:center;writing-mode:lr-tb;direction:ltr;text-anchor:middle;display:inline;fill:#ffffff;stroke-width:1.20291"
       x="1716.7822"
       y="416.18219"
       id="text25-4-3-1-9-7"
       transform="scale(0.84574335,1.1823918)"><tspan
         id="tspan25-2-1-3-0-8"
         x="1716.7822"
         y="416.18219"
         style="font-style:normal;font-variant:normal;font-weight:normal;font-stretch:normal;font-size:32.0779px;font-family:Tahoma;-inkscape-font-specification:Tahoma;stroke-width:1.20291">Panimaquito</tspan></text>
    <path
       style="display:inline;fill:#ffffff;stroke-width:1.10049"
       d="m 1056.8312,410.086 c -0.1242,-0.0363 -0.2038,-0.0688 -0.1791,-0.0726 0.024,-0.002 -1.0844,-1.05984 -2.4645,-2.34744 -6.3967,-5.96771 -10.0749,-10.31993 -12.4903,-14.77892 -1.6636,-3.07113 -2.4083,-5.59661 -2.4956,-8.46398 -0.052,-1.69485 0.068,-2.75008 0.4746,-4.19691 1.2388,-4.40451 5.3629,-8.85601 10.0304,-10.82669 1.4857,-0.62726 3.6711,-1.19979 5.0924,-1.33399 0.3363,-0.0319 0.5644,-0.0845 0.5071,-0.11723 -0.058,-0.033 0.3228,-0.0772 0.8448,-0.0986 1.1445,-0.0471 2.8883,0.0164 2.7431,0.0986 -0.056,0.0327 0.1709,0.085 0.5072,0.1163 1.431,0.1329 3.5944,0.70464 5.1704,1.36637 3.9144,1.64379 7.6473,5.27972 9.3238,9.08196 0.8605,1.95111 1.173,3.62589 1.1033,5.91019 -0.087,2.87416 -0.8307,5.38944 -2.5071,8.48533 -2.3938,4.42173 -6.0792,8.78107 -12.4795,14.76202 -1.3804,1.29005 -2.4929,2.36127 -2.4721,2.38056 0.021,0.0194 -0.026,0.035 -0.1049,0.035 -0.079,0 -0.1957,0.014 -0.2612,0.033 -0.066,0.0183 -0.2203,0.002 -0.3434,-0.0332 z m 2.7038,-4.41278 c 3.4986,-3.35609 5.4143,-5.38032 7.3793,-7.79766 2.6783,-3.29493 4.4109,-6.20751 5.4104,-9.09556 1.3373,-3.86376 1.1316,-7.33907 -0.6269,-10.58271 -1.1614,-2.14269 -3.3021,-4.4471 -5.4643,-5.8824 -0.9983,-0.66269 -3.0101,-1.59891 -4.2041,-1.95653 -4.0082,-1.20031 -8.1532,-0.91482 -11.9642,0.8241 -1.4832,0.67672 -2.6183,1.40826 -3.8133,2.45762 -3.7923,3.33005 -5.5974,7.29395 -5.1969,11.4118 0.5022,5.16291 3.7339,10.61259 10.3007,17.37037 1.9158,1.97166 5.574,5.42875 5.7444,5.42875 0.098,0 1.082,-0.87988 2.4349,-2.17778 z m -4.3664,-13.58753 c -2.8515,-0.68101 -5.032,-2.79138 -5.6507,-5.46876 -0.1718,-0.74338 -0.1731,-2.15645 0,-2.91077 0.5184,-2.29633 2.3238,-4.29715 4.6558,-5.15975 1.0236,-0.3786 1.7827,-0.51407 2.8846,-0.51485 1.1314,-8.2e-4 1.9691,0.14313 2.9546,0.50761 2.6478,0.9794 4.5346,3.30913 4.7808,5.9035 0.134,1.41672 -0.092,2.59856 -0.7326,3.82994 -0.99,1.9021 -2.8379,3.29623 -5.0592,3.81674 -1.1697,0.27404 -2.6738,0.27259 -3.8304,-0.002 z m 3.6198,-1.71431 c 0.9584,-0.26963 1.6913,-0.69184 2.4795,-1.42839 1.1849,-1.10741 1.6967,-2.24595 1.6967,-3.77478 0,-1.54928 -0.5082,-2.66392 -1.7411,-3.81827 -0.6308,-0.59057 -0.8942,-0.77147 -1.5243,-1.04704 -0.9872,-0.43172 -1.5557,-0.55253 -2.599,-0.55253 -1.0449,0 -1.614,0.12126 -2.5957,0.55295 -0.6185,0.27203 -0.9014,0.4657 -1.5341,1.05012 -0.6326,0.58445 -0.8422,0.84578 -1.1367,1.41714 -0.4742,0.9197 -0.601,1.43693 -0.5983,2.43902 0,1.48974 0.5268,2.63972 1.697,3.73339 0.9809,0.91657 2.0212,1.4236 3.3063,1.61112 0.6639,0.0969 1.8604,0.0124 2.5497,-0.18267 z"
       id="path3-5-4-1-0-8" />
    <text
       xml:space="preserve"
       style="font-size:32.0779px;font-family:Century;-inkscape-font-specification:Century;text-align:center;writing-mode:lr-tb;direction:ltr;text-anchor:middle;display:inline;fill:#ffffff;stroke-width:1.20291"
       x="1258.9772"
       y="380.62015"
       id="text25-4-3-1-9-9"
       transform="scale(0.84574335,1.1823918)"><tspan
         id="tspan25-2-1-3-0-3"
         x="1258.9772"
         y="380.62015"
         style="font-style:normal;font-variant:normal;font-weight:normal;font-stretch:normal;font-size:32.0779px;font-family:Tahoma;-inkscape-font-specification:Tahoma;stroke-width:1.20291">Rio Colorado</tspan></text>
  </g>
</svg>
