<?xml version="1.0" encoding="UTF-8" standalone="no"?>
<!-- Created with Inkscape (http://www.inkscape.org/) -->

<svg
   width="130.3535mm"
   height="99.319801mm"
   viewBox="0 0 130.3535 99.319801"
   version="1.1"
   id="svg1"
   xmlns="http://www.w3.org/2000/svg"
   xmlns:svg="http://www.w3.org/2000/svg">
  <defs
     id="defs1" />
  <g
     id="layer1"
     style="display:inline"
     transform="matrix(0.26458333,0,0,0.26458333,-197.02549,-80.740363)">
    <path
       style="display:inline;fill:#0772d2;stroke-width:4.48064"
       d="m 1083.2922,670.82997 c -14.6971,-18.34032 -66.6857,-42.64911 -126.61004,-59.20034 -98.86723,-27.30722 -157.45328,-40.60305 -178.91102,-40.60305 -34.78654,0 -40.22055,-5.856 -25.30521,-27.27005 4.6379,-6.65865 8.43255,-16.82563 8.43255,-22.59329 0,-5.76762 7.31096,-22.08458 16.24651,-36.2599 8.9356,-14.17531 19.44923,-36.77051 23.36372,-50.21146 9.36248,-32.14807 18.51245,-40.78868 45.72671,-43.1815 39.66103,-3.48717 38.93141,-2.89478 52.16276,-42.34938 14.68412,-43.78658 19.85707,-47.16311 64.8817,-42.35017 17.39216,1.85916 37.31402,3.32619 44.27092,3.26014 43.1037,-0.40949 166.5784,10.71941 178.1251,16.0545 19.2684,8.90277 51.662,40.55564 51.662,50.48042 0,4.57029 -13.2004,20.35446 -29.3345,35.07602 -30.8338,28.13431 -35.8678,36.97909 -31.7059,55.70603 1.7718,7.97203 -2.3376,22.19281 -13.5326,46.83015 -15.6745,34.49589 -16.0723,36.63287 -15.8895,85.3778 0.1132,29.97772 2.244,54.206 5.3239,60.50991 4.4019,9.01 3.9625,11.22312 -3.0725,15.47504 -4.5148,2.72885 -19.4235,4.96151 -33.1302,4.96151 -19.7287,0 -26.5432,-2.02371 -32.7044,-9.71238 z"
       id="path20-8" />
    <path
       style="display:inline;fill:#ffffff;stroke-width:0.713276"
       d="m 1001.6948,494.28322 c -0.077,-0.0246 -0.1263,-0.0467 -0.111,-0.0492 0.015,-10e-4 -0.672,-0.71847 -1.5272,-1.59134 -3.96385,-4.04556 -6.24317,-6.99596 -7.73996,-10.01875 -1.03093,-2.08195 -1.4924,-3.79399 -1.54658,-5.7378 -0.032,-1.14895 0.0419,-1.8643 0.2941,-2.84511 0.76771,-2.98586 3.32337,-6.00356 6.21574,-7.33951 0.92062,-0.42521 2.27492,-0.81334 3.1556,-0.90431 0.2084,-0.0216 0.3498,-0.0573 0.3143,-0.0795 -0.036,-0.0224 0.2,-0.0523 0.5235,-0.0668 0.7092,-0.0319 1.7898,0.0112 1.6998,0.0668 -0.035,0.0222 0.1059,0.0576 0.3143,0.0789 0.8868,0.0901 2.2274,0.47768 3.204,0.92627 2.4257,1.11434 4.7389,3.57917 5.7778,6.15672 0.5332,1.32269 0.7269,2.45803 0.6837,4.00657 -0.054,1.94842 -0.5148,3.65354 -1.5536,5.75228 -1.4834,2.99752 -3.7672,5.95275 -7.7333,10.00728 -0.8554,0.87454 -1.5448,1.60073 -1.5319,1.61381 0.013,0.0132 -0.016,0.0237 -0.065,0.0237 -0.049,0 -0.1213,0.01 -0.1619,0.0224 -0.041,0.0124 -0.1365,10e-4 -0.2128,-0.0225 z m 1.6755,-2.99146 c 2.168,-2.27511 3.3551,-3.64736 4.5728,-5.2861 1.6597,-2.23365 2.7333,-4.20811 3.3527,-6.16595 0.8287,-2.61927 0.7012,-4.97521 -0.3885,-7.17409 -0.7197,-1.45255 -2.0462,-3.01473 -3.3861,-3.98774 -0.6186,-0.44924 -1.8653,-1.08391 -2.6052,-1.32633 -2.4838,-0.81372 -5.05238,-0.62017 -7.41401,0.55865 -0.9191,0.45877 -1.62246,0.95468 -2.36298,1.66604 -2.34998,2.25747 -3.46859,4.94463 -3.22038,7.73616 0.31119,3.49998 2.31377,7.19435 6.38307,11.77551 1.18722,1.3366 3.4541,3.68018 3.5597,3.68018 0.061,0 0.6705,-0.59647 1.5089,-1.47633 z m -2.7058,-9.21109 c -1.76696,-0.46166 -3.11819,-1.8923 -3.50157,-3.70732 -0.10644,-0.50394 -0.10732,-1.46187 -0.002,-1.97323 0.3212,-1.5567 1.43998,-2.91307 2.88507,-3.49783 0.6343,-0.25666 1.1047,-0.3485 1.7875,-0.34902 0.7011,-5.6e-4 1.2202,0.097 1.8309,0.3441 1.6408,0.66395 2.81,2.24329 2.9626,4.00203 0.083,0.96041 -0.057,1.76159 -0.454,2.59635 -0.6135,1.28945 -1.7586,2.23454 -3.1351,2.5874 -0.7248,0.18577 -1.6569,0.18479 -2.3736,-10e-4 z m 2.2431,-1.16214 c 0.5939,-0.18279 1.0481,-0.46901 1.5365,-0.96832 0.7343,-0.75073 1.0514,-1.52255 1.0514,-2.55895 0,-1.05028 -0.3149,-1.80589 -1.0789,-2.58844 -0.3909,-0.40035 -0.5541,-0.52298 -0.9446,-0.7098 -0.6117,-0.29267 -0.964,-0.37456 -1.6105,-0.37456 -0.6475,0 -1.0002,0.0822 -1.6085,0.37485 -0.38328,0.18442 -0.55858,0.31569 -0.95068,0.71188 -0.39198,0.3962 -0.52188,0.57336 -0.70442,0.96069 -0.29374,0.62347 -0.37235,0.97411 -0.37067,1.65344 0.002,1.0099 0.32643,1.78948 1.05161,2.53089 0.60778,0.62134 1.25246,0.96506 2.04876,1.09219 0.4114,0.0657 1.1529,0.009 1.58,-0.12384 z"
       id="path3" />
    <path
       style="display:inline;fill:#ffffff;stroke-width:0.695679"
       d="m 921.00683,396.02101 c -0.077,-0.0234 -0.1263,-0.0444 -0.111,-0.0468 0.015,-0.001 -0.672,-0.68346 -1.5272,-1.5138 -3.9639,-3.84841 -6.24321,-6.65504 -7.74,-9.53052 -1.03093,-1.98049 -1.4924,-3.6091 -1.54658,-5.45819 -0.032,-1.09296 0.0419,-1.77345 0.2941,-2.70647 0.76771,-2.84035 3.32337,-5.711 6.21578,-6.98184 0.9206,-0.4045 2.2749,-0.77371 3.1556,-0.86025 0.2084,-0.0206 0.3498,-0.0545 0.3143,-0.0756 -0.036,-0.0213 0.2,-0.0498 0.5235,-0.0636 0.7092,-0.0304 1.7898,0.0106 1.6998,0.0636 -0.035,0.0211 0.1059,0.0548 0.3143,0.075 0.8868,0.0857 2.2274,0.4544 3.204,0.88113 2.4257,1.06004 4.7389,3.40475 5.7778,5.85671 0.5332,1.25822 0.7269,2.33824 0.6837,3.81132 -0.054,1.85347 -0.5148,3.4755 -1.5536,5.47196 -1.4834,2.85145 -3.7672,5.66267 -7.7333,9.51962 -0.8554,0.83192 -1.5448,1.52272 -1.5319,1.53516 0.013,0.0125 -0.016,0.0226 -0.065,0.0226 -0.049,0 -0.1213,0.009 -0.1619,0.0213 -0.041,0.0118 -0.1365,10e-4 -0.2128,-0.0214 z m 1.6755,-2.84568 c 2.168,-2.16425 3.3551,-3.46962 4.5728,-5.0285 1.6597,-2.12481 2.7333,-4.00305 3.3527,-5.86548 0.8287,-2.49163 0.7012,-4.73276 -0.3885,-6.8245 -0.7197,-1.38176 -2.0462,-2.86781 -3.3861,-3.7934 -0.6186,-0.42735 -1.8653,-1.03109 -2.6052,-1.26171 -2.4838,-0.77405 -5.0524,-0.58994 -7.414,0.53144 -0.9191,0.4364 -1.6225,0.90815 -2.363,1.58485 -2.35001,2.14746 -3.46862,4.70367 -3.22041,7.35916 0.31119,3.32942 2.31377,6.84377 6.38311,11.20168 1.1872,1.27147 3.4541,3.50085 3.5597,3.50085 0.061,0 0.6705,-0.56741 1.5089,-1.40439 z m -2.7058,-8.76223 c -1.767,-0.43916 -3.1182,-1.80008 -3.5016,-3.52665 -0.1065,-0.47939 -0.1073,-1.39064 0,-1.87708 0.3212,-1.48084 1.44,-2.77111 2.8851,-3.32738 0.6343,-0.24415 1.1047,-0.33151 1.7875,-0.33201 0.7011,-5.3e-4 1.2202,0.0923 1.8309,0.32734 1.6408,0.63159 2.81,2.13397 2.9626,3.80701 0.083,0.9136 -0.057,1.67574 -0.454,2.46982 -0.6135,1.22661 -1.7586,2.12565 -3.1351,2.46131 -0.7248,0.17672 -1.6569,0.17579 -2.3736,-10e-4 z m 2.2431,-1.10551 c 0.5939,-0.17388 1.0481,-0.44615 1.5365,-0.92113 0.7343,-0.71414 1.0514,-1.44835 1.0514,-2.43425 0,-0.99909 -0.3149,-1.71789 -1.0789,-2.4623 -0.3909,-0.38084 -0.5541,-0.4975 -0.9446,-0.67521 -0.6117,-0.2784 -0.964,-0.35631 -1.6105,-0.35631 -0.6475,0 -1.0002,0.0782 -1.6085,0.35658 -0.3833,0.17543 -0.5586,0.30032 -0.9507,0.6772 -0.392,0.37689 -0.5219,0.54542 -0.7044,0.91387 -0.2938,0.59309 -0.3724,0.92664 -0.3707,1.57286 0,0.96069 0.3264,1.70228 1.0516,2.40756 0.6078,0.59107 1.2525,0.91804 2.0488,1.03897 0.4114,0.0625 1.1529,0.008 1.58,-0.1178 z"
       id="path3-5" />
    <text
       xml:space="preserve"
       style="font-size:24.4462px;font-family:Century;-inkscape-font-specification:Century;text-align:center;writing-mode:lr-tb;direction:ltr;text-anchor:middle;fill:#ffffff;stroke-width:0.91673"
       x="1209.9404"
       y="432.4523"
       id="text25"
       transform="scale(0.82988317,1.2049889)"><tspan
         id="tspan25"
         x="1209.9404"
         y="432.4523"
         style="font-style:normal;font-variant:normal;font-weight:normal;font-stretch:normal;font-size:24.4462px;font-family:Tahoma;-inkscape-font-specification:Tahoma;stroke-width:0.91673">Area Urbana</tspan></text>
    <path
       style="display:inline;fill:#ffffff;stroke-width:0.721913"
       d="m 1105.2094,405.06169 c -0.077,-0.0252 -0.1263,-0.0478 -0.111,-0.0504 0.015,-10e-4 -0.672,-0.73597 -1.5272,-1.63012 -3.9639,-4.14413 -6.2432,-7.16642 -7.74,-10.26286 -1.0309,-2.13268 -1.4924,-3.88643 -1.5466,-5.87762 -0.032,-1.17694 0.042,-1.90972 0.2941,-2.91443 0.7677,-3.05861 3.3234,-6.14984 6.2158,-7.51833 0.9206,-0.43559 2.2749,-0.83316 3.1556,-0.92635 0.2084,-0.0221 0.3498,-0.0587 0.3143,-0.0815 -0.036,-0.0229 0.2,-0.0536 0.5235,-0.0684 0.7092,-0.0327 1.7898,0.0115 1.6998,0.0684 -0.035,0.0228 0.1059,0.059 0.3143,0.0808 0.8868,0.0923 2.2274,0.48932 3.204,0.94884 2.4257,1.14149 4.7389,3.66638 5.7778,6.30674 0.5332,1.35491 0.7269,2.51792 0.6837,4.10419 -0.054,1.9959 -0.5148,3.74257 -1.5536,5.89243 -1.4834,3.07056 -3.7672,6.0978 -7.7333,10.25112 -0.8554,0.89585 -1.5448,1.63974 -1.5319,1.65313 0.013,0.0135 -0.016,0.0243 -0.065,0.0243 -0.049,0 -0.1213,0.01 -0.1619,0.0229 -0.041,0.0127 -0.1365,0.001 -0.2128,-0.023 z m 1.6755,-3.06434 c 2.168,-2.33055 3.3551,-3.73623 4.5728,-5.41491 1.6597,-2.28807 2.7333,-4.31064 3.3527,-6.31618 0.8287,-2.68309 0.7012,-5.09644 -0.3885,-7.3489 -0.7197,-1.48794 -2.0462,-3.08818 -3.3861,-4.0849 -0.6186,-0.46019 -1.8653,-1.11032 -2.6052,-1.35865 -2.4838,-0.83354 -5.0524,-0.63527 -7.414,0.57227 -0.9191,0.46994 -1.6225,0.97793 -2.363,1.70663 -2.35,2.31247 -3.4686,5.06511 -3.2204,7.92465 0.3112,3.58526 2.3138,7.36966 6.3831,12.06244 1.1872,1.36917 3.4541,3.76985 3.5597,3.76985 0.061,0 0.6705,-0.61101 1.5089,-1.5123 z m -2.7058,-9.43554 c -1.767,-0.4729 -3.1182,-1.93839 -3.5016,-3.79764 -0.1064,-0.51622 -0.1073,-1.4975 0,-2.02132 0.3212,-1.59461 1.44,-2.98404 2.8851,-3.58305 0.6343,-0.26292 1.1047,-0.35699 1.7875,-0.35753 0.7011,-5.7e-4 1.2202,0.0993 1.8309,0.35249 1.6408,0.68013 2.81,2.29796 2.9626,4.09955 0.083,0.9838 -0.057,1.8045 -0.454,2.65961 -0.6135,1.32087 -1.7586,2.28899 -3.1351,2.65044 -0.7248,0.1903 -1.6569,0.1893 -2.3736,-0.001 z m 2.2431,-1.19045 c 0.5939,-0.18725 1.0481,-0.48044 1.5365,-0.99191 0.7343,-0.76902 1.0514,-1.55966 1.0514,-2.62131 0,-1.07586 -0.3149,-1.84989 -1.0789,-2.6515 -0.3909,-0.4101 -0.5541,-0.53572 -0.9446,-0.72709 -0.6117,-0.2998 -0.964,-0.3837 -1.6105,-0.3837 -0.6475,0 -1.0002,0.0842 -1.6085,0.38399 -0.3833,0.18891 -0.5586,0.32339 -0.9507,0.72923 -0.392,0.40585 -0.5219,0.58733 -0.7044,0.9841 -0.2938,0.63866 -0.3724,0.99784 -0.3707,1.69372 0,1.03451 0.3264,1.83309 1.0516,2.59256 0.6078,0.63648 1.2525,0.98857 2.0488,1.1188 0.4114,0.0673 1.1529,0.009 1.58,-0.12685 z"
       id="path3-6" />
    <text
       xml:space="preserve"
       style="font-size:24.4462px;line-height:1.1;font-family:Century;-inkscape-font-specification:Century;text-align:center;writing-mode:lr-tb;direction:ltr;text-anchor:middle;display:inline;fill:#ffffff;stroke-width:0.91673"
       x="1332.1492"
       y="356.09048"
       id="text25-8"
       transform="scale(0.82988317,1.2049889)"><tspan
         id="tspan25-5"
         x="1332.1492"
         y="356.09048"
         style="font-style:normal;font-variant:normal;font-weight:normal;font-stretch:normal;font-size:24.4462px;line-height:1.1;font-family:Tahoma;-inkscape-font-specification:Tahoma;stroke-width:0.91673">Cerro de la Cruz</tspan></text>
    <text
       xml:space="preserve"
       style="font-size:23.9016px;font-family:Century;-inkscape-font-specification:Century;text-align:center;writing-mode:lr-tb;direction:ltr;text-anchor:middle;display:inline;fill:#ffffff;stroke-width:0.896308"
       x="1132.0554"
       y="342.31952"
       id="text25-4"
       transform="scale(0.81139537,1.2324448)"><tspan
         id="tspan25-2"
         x="1132.0554"
         y="342.31952"
         style="font-style:normal;font-variant:normal;font-weight:normal;font-stretch:normal;font-size:23.9016px;font-family:Tahoma;-inkscape-font-specification:Tahoma;stroke-width:0.896308">Los Encuentros</tspan></text>
  </g>
</svg>
