<?xml version="1.0" encoding="UTF-8" standalone="no"?>
<!-- Created with Inkscape (http://www.inkscape.org/) -->

<svg
   width="210mm"
   height="297mm"
   viewBox="0 0 210 297"
   version="1.1"
   id="svg1"
   xmlns="http://www.w3.org/2000/svg"
   xmlns:svg="http://www.w3.org/2000/svg">
  <defs
     id="defs1" />
  <g
     id="layer9"
     transform="matrix(0.1923824,0,0,0.17650245,-107.65963,93.505745)">
    <path
       style="display:inline;fill:#0772d2;stroke-width:2.36068"
       d="m 1395.4655,596.3962 c -1.3352,-1.10161 -1.4653,-29.26142 -0.3759,-81.4693 1.0335,-49.53338 0.9251,-81.60369 -0.2858,-84.58032 -1.0728,-2.637 -4.0076,-5.35651 -6.5221,-6.04332 -2.5144,-0.68684 -11.5181,-3.07778 -20.0082,-5.31321 -8.4901,-2.23545 -28.8664,-7.89402 -45.2808,-12.57462 -55.0897,-15.70908 -55.5293,-15.79493 -58.8067,-11.48346 -2.2516,2.96175 -2.9396,12.26469 -2.9396,39.7407 v 35.87374 l -18.0094,-1.02677 c -26.7338,-1.52416 -111.4632,-13.74829 -137.2312,-19.79868 -28.4982,-6.69149 -43.7844,-6.67633 -61.901,0.0615 -13.3195,4.95365 -50.25294,16.72093 -77.18302,24.59119 -6.22611,1.81958 -21.50834,7.39955 -33.96054,12.39999 -32.06904,12.87795 -36.58722,13.20924 -73.0666,5.35729 -17.54627,-3.77674 -43.01667,-8.15102 -56.60088,-9.72061 -13.58422,-1.5696 -32.10815,-3.93137 -41.16428,-5.24835 -9.05615,-1.31696 -30.47707,-3.27464 -47.60208,-4.35034 -36.0584,-2.26501 -31.36145,-5.14467 -51.08114,31.31733 l -12.23822,22.62864 -2.57493,-7.99009 c -1.41622,-4.39456 -4.02816,-17.12824 -5.80431,-28.29706 -7.89029,-49.61587 -12.31927,-74.14759 -19.55332,-108.30375 -4.25784,-20.10388 -10.27318,-50.56431 -13.36738,-67.68983 -3.09418,-17.12554 -8.23111,-45.02104 -11.41539,-61.99002 l -5.78957,-30.8527 24.55655,1.82568 c 13.5061,1.00411 36.58118,4.80641 51.27796,8.44952 29.05994,7.20357 79.03558,12.08906 124.46504,12.16736 31.38202,0.0541 108.08629,6.40629 132.75481,10.99398 8.49012,1.57893 27.25157,5.8439 41.69221,9.47774 30.31687,7.62886 48.70889,8.28551 69.66249,2.48709 33.9147,-9.38502 76.3984,-23.91924 98.9079,-33.83753 13.1966,-5.81491 35.7448,-13.15035 50.1068,-16.30099 14.3621,-3.1506 35.9058,-9.99406 47.8751,-15.20761 11.9695,-5.21356 32.0264,-12.36335 44.571,-15.88845 12.5446,-3.5251 28.6893,-9.58055 35.8765,-13.45653 29.0386,-15.65972 88.621,-16.17054 134.0944,-1.14962 22.1255,7.30862 31.3341,8.81566 65.7706,10.76401 23.4704,1.32792 46.0438,1.23916 54.5427,-0.21443 7.9747,-1.36401 15.1062,-2.5176 15.8474,-2.56359 0.7413,-0.0461 0.8647,4.65602 0.2739,10.44885 -1.2154,11.92049 3.0352,31.35026 12.0432,55.04948 4.9781,13.09695 5.8882,18.77553 5.8882,36.73797 0,22.19629 3.9775,44.97194 10.2658,58.78191 2.034,4.46755 5.6443,18.37437 8.0226,30.90404 2.3784,12.52969 5.6844,24.75846 7.3469,27.17504 6.5202,9.47783 9.3543,24.25814 9.3543,48.78391 v 24.45523 h -7.9741 c -9.3537,0 -24.2089,6.39258 -29.5039,12.69626 -2.0468,2.437 -4.744,9.4108 -5.9933,15.49737 -6.2883,30.63632 -8.2817,32.63975 -34.7408,34.9186 -10.7542,0.92623 -23.7209,3.51924 -28.8149,5.76224 -5.0942,2.24303 -14.966,5.24525 -21.9376,6.67164 -12.6078,2.57959 -25.1127,10.8414 -32.2035,21.27655 -2.6721,3.93216 -7.5599,6.00856 -17.4112,7.39639 -7.533,1.06123 -21.6067,5.6309 -31.2748,10.15477 -21.299,9.96606 -29.8792,12.73281 -32.5799,10.50521 z"
       id="path21-2" />
    <path
       style="display:inline;fill:#ffffff;stroke-width:1.00709"
       d="m 1190.9702,277.79474 c -0.1131,-0.0334 -0.1856,-0.0632 -0.1631,-0.0667 0.022,-0.002 -0.988,-0.97424 -2.2454,-2.15785 -5.8277,-5.48571 -9.1787,-9.48641 -11.3792,-13.58526 -1.5157,-2.82308 -2.1942,-5.14458 -2.2736,-7.78036 -0.047,-1.55796 0.062,-2.52796 0.4324,-3.85794 1.1286,-4.04877 4.8858,-8.14073 9.1382,-9.95224 1.3535,-0.5766 3.3445,-1.10289 4.6394,-1.22625 0.3064,-0.0293 0.5142,-0.0777 0.462,-0.10776 -0.053,-0.0303 0.2941,-0.071 0.7696,-0.0906 1.0427,-0.0433 2.6314,0.0151 2.4991,0.0906 -0.051,0.0301 0.1557,0.0781 0.4621,0.10691 1.3037,0.12216 3.2747,0.64773 4.7105,1.25601 3.5662,1.51102 6.9671,4.85329 8.4945,8.34843 0.7839,1.79352 1.0686,3.33304 1.0051,5.43284 -0.079,2.64202 -0.7568,4.95415 -2.2841,7.79999 -2.1809,4.0646 -5.5384,8.07184 -11.3694,13.56973 -1.2576,1.18585 -2.2712,2.17055 -2.2522,2.18828 0.019,0.0178 -0.024,0.0322 -0.096,0.0322 -0.072,0 -0.1783,0.0129 -0.238,0.0303 -0.06,0.0168 -0.2007,0.002 -0.3128,-0.0305 z m 2.4633,-4.05637 c 3.1873,-3.08502 4.9326,-4.94576 6.7229,-7.16786 2.4401,-3.0288 4.0186,-5.70614 4.9292,-8.36093 1.2183,-3.55169 1.0309,-6.74631 -0.5712,-9.72797 -1.0581,-1.96963 -3.0083,-4.08792 -4.9782,-5.40729 -0.9095,-0.60917 -2.7423,-1.46977 -3.8301,-1.79851 -3.6517,-1.10336 -7.428,-0.84093 -10.9,0.75754 -1.3513,0.62206 -2.3854,1.29452 -3.4741,2.25912 -3.455,3.06109 -5.0995,6.70484 -4.7347,10.4901 0.4576,4.74591 3.4018,9.75544 9.3845,15.96741 1.7454,1.81241 5.0782,4.99028 5.2334,4.99028 0.089,0 0.9858,-0.80881 2.2183,-2.00189 z m -3.9781,-12.49009 c -2.5978,-0.62601 -4.5843,-2.56593 -5.1479,-5.02707 -0.1566,-0.68333 -0.1577,-1.98227 0,-2.67567 0.4722,-2.11086 2.117,-3.95008 4.2416,-4.74301 0.9326,-0.34802 1.6242,-0.47255 2.628,-0.47327 1.0308,-7.5e-4 1.794,0.13157 2.6918,0.46662 2.4123,0.90029 4.1313,3.04186 4.3556,5.42668 0.1221,1.3023 -0.084,2.38869 -0.6675,3.52061 -0.9019,1.74847 -2.5854,3.03 -4.6091,3.50847 -1.0657,0.25191 -2.436,0.25057 -3.4897,-0.002 z m 3.2979,-1.57585 c 0.8731,-0.24786 1.5408,-0.63596 2.2589,-1.31303 1.0795,-1.01796 1.5458,-2.06455 1.5458,-3.4699 0,-1.42414 -0.463,-2.44876 -1.5862,-3.50987 -0.5747,-0.54287 -0.8147,-0.70916 -1.3888,-0.96248 -0.8993,-0.39685 -1.4173,-0.5079 -2.3678,-0.5079 -0.9519,0 -1.4704,0.11147 -2.3648,0.50829 -0.5635,0.25006 -0.8212,0.42809 -1.3976,0.9653 -0.5764,0.53725 -0.7673,0.77747 -1.0356,1.30269 -0.432,0.84541 -0.5476,1.32087 -0.5451,2.24202 0,1.36942 0.4799,2.42652 1.5461,3.43185 0.8936,0.84255 1.8414,1.30862 3.0122,1.481 0.6048,0.0891 1.6949,0.0114 2.3229,-0.16792 z"
       id="path3-5-4-1-0-8-7-7-1-3-2-9-9-0" />
    <text
       xml:space="preserve"
       style="font-size:29.3555px;font-family:Century;-inkscape-font-specification:Century;text-align:center;writing-mode:lr-tb;direction:ltr;text-anchor:middle;display:inline;fill:#ffffff;stroke-width:1.10082"
       x="1413.8795"
       y="259.95151"
       id="text25-4-3-1-9-9-2-5-4-8-0-8-9-78"
       transform="scale(0.84197048,1.1876901)"><tspan
         id="tspan25-2-1-3-0-3-6-4-6-0-1-8-2-1"
         x="1413.8795"
         y="259.95151"
         style="font-style:normal;font-variant:normal;font-weight:normal;font-stretch:normal;font-size:29.3555px;font-family:Tahoma;-inkscape-font-specification:Tahoma;stroke-width:1.10082">Panchisivic</tspan></text>
    <path
       style="display:inline;fill:#ffffff;stroke-width:1.02304"
       d="m 1502.5906,296.94582 c -0.1131,-0.0345 -0.1856,-0.0652 -0.1631,-0.0688 0.022,-0.002 -0.988,-1.00534 -2.2454,-2.22673 -5.8277,-5.66083 -9.1787,-9.78925 -11.3792,-14.01894 -1.5157,-2.9132 -2.1942,-5.30881 -2.2736,-8.02873 -0.047,-1.6077 0.062,-2.60866 0.4324,-3.9811 1.1286,-4.17802 4.8858,-8.4006 9.1382,-10.26994 1.3535,-0.59501 3.3445,-1.1381 4.6394,-1.2654 0.3064,-0.0302 0.5142,-0.0802 0.462,-0.1112 -0.053,-0.0313 0.2941,-0.0733 0.7696,-0.0935 1.0427,-0.0447 2.6314,0.0156 2.4991,0.0935 -0.051,0.0311 0.1557,0.0806 0.4621,0.11033 1.3037,0.12606 3.2747,0.6684 4.7105,1.2961 3.5662,1.55926 6.9671,5.00822 8.4945,8.61494 0.7839,1.85077 1.0686,3.43944 1.0051,5.60627 -0.079,2.72636 -0.7568,5.1123 -2.2841,8.04898 -2.1809,4.19436 -5.5384,8.32952 -11.3694,14.00292 -1.2576,1.2237 -2.2712,2.23984 -2.2522,2.25813 0.019,0.0184 -0.024,0.0332 -0.096,0.0332 -0.072,0 -0.1783,0.0133 -0.238,0.0313 -0.06,0.0173 -0.2007,0.002 -0.3128,-0.0315 z m 2.4633,-4.18586 c 3.1873,-3.1835 4.9326,-5.10364 6.7229,-7.39668 2.4401,-3.12549 4.0186,-5.88829 4.9292,-8.62783 1.2183,-3.66507 1.0309,-6.96167 -0.5712,-10.03852 -1.0581,-2.0325 -3.0083,-4.21841 -4.9782,-5.5799 -0.9095,-0.62862 -2.7423,-1.51669 -3.8301,-1.85592 -3.6517,-1.13859 -7.428,-0.86778 -10.9,0.78172 -1.3513,0.64192 -2.3854,1.33584 -3.4741,2.33124 -3.455,3.1588 -5.0995,6.91887 -4.7347,10.82497 0.4576,4.89741 3.4018,10.06686 9.3845,16.47713 1.7454,1.87027 5.0782,5.14958 5.2334,5.14958 0.089,0 0.9858,-0.83463 2.2183,-2.06579 z m -3.9781,-12.88881 c -2.5978,-0.64599 -4.5843,-2.64784 -5.1479,-5.18755 -0.1566,-0.70514 -0.1577,-2.04555 0,-2.76108 0.4722,-2.17825 2.117,-4.07618 4.2416,-4.89442 0.9326,-0.35913 1.6242,-0.48764 2.628,-0.48838 1.0308,-7.7e-4 1.794,0.13577 2.6918,0.48152 2.4123,0.92903 4.1313,3.13896 4.3556,5.59991 0.1221,1.34387 -0.084,2.46494 -0.6675,3.633 -0.9019,1.80428 -2.5854,3.12672 -4.6091,3.62047 -1.0657,0.25995 -2.436,0.25857 -3.4897,-0.002 z m 3.2979,-1.62615 c 0.8731,-0.25578 1.5408,-0.65627 2.2589,-1.35495 1.0795,-1.05046 1.5458,-2.13046 1.5458,-3.58067 0,-1.4696 -0.463,-2.52693 -1.5862,-3.62191 -0.5747,-0.5602 -0.8147,-0.7318 -1.3888,-0.99321 -0.8993,-0.40952 -1.4173,-0.52411 -2.3678,-0.52411 -0.9519,0 -1.4704,0.11503 -2.3648,0.52451 -0.5635,0.25805 -0.8212,0.44176 -1.3976,0.99612 -0.5764,0.5544 -0.7673,0.80229 -1.0356,1.34427 -0.432,0.8724 -0.5476,1.36304 -0.5451,2.3136 0,1.41313 0.4799,2.50398 1.5461,3.5414 0.8936,0.86945 1.8414,1.35039 3.0122,1.52828 0.6048,0.0919 1.6949,0.0118 2.3229,-0.17328 z"
       id="path3-5-4-1-0-8-7-7-1-3-2-9-9-0-6" />
    <text
       xml:space="preserve"
       style="font-size:29.3555px;font-family:Century;-inkscape-font-specification:Century;text-align:center;writing-mode:lr-tb;direction:ltr;text-anchor:middle;display:inline;fill:#ffffff;stroke-width:1.10082"
       x="1783.988"
       y="276.07715"
       id="text25-4-3-1-9-9-2-5-4-8-0-8-9-78-5"
       transform="scale(0.84197048,1.1876901)"><tspan
         id="tspan25-2-1-3-0-3-6-4-6-0-1-8-2-1-3"
         x="1783.988"
         y="276.07715"
         style="font-style:normal;font-variant:normal;font-weight:normal;font-stretch:normal;font-size:29.3555px;font-family:Tahoma;-inkscape-font-specification:Tahoma;stroke-width:1.10082">Concepción</tspan><tspan
         x="1783.988"
         y="312.89819"
         style="font-style:normal;font-variant:normal;font-weight:normal;font-stretch:normal;font-size:29.3555px;font-family:Tahoma;-inkscape-font-specification:Tahoma;stroke-width:1.10082"
         id="tspan31">Panchisivic</tspan></text>
    <path
       style="display:inline;fill:#ffffff;stroke-width:1.00709"
       d="m 867.16753,289.98276 c -0.1131,-0.0334 -0.1856,-0.0632 -0.1631,-0.0667 0.022,-0.002 -0.988,-0.97424 -2.2454,-2.15785 -5.8277,-5.48571 -9.1787,-9.48641 -11.3792,-13.58526 -1.5157,-2.82308 -2.1942,-5.14458 -2.2736,-7.78036 -0.047,-1.55796 0.062,-2.52796 0.4324,-3.85794 1.1286,-4.04877 4.8858,-8.14073 9.1382,-9.95224 1.3535,-0.5766 3.3445,-1.10289 4.6394,-1.22625 0.3064,-0.0293 0.5142,-0.0777 0.462,-0.10776 -0.053,-0.0303 0.2941,-0.071 0.7696,-0.0906 1.0427,-0.0433 2.6314,0.0151 2.4991,0.0906 -0.051,0.0301 0.1557,0.0781 0.4621,0.10691 1.3037,0.12216 3.2747,0.64773 4.7105,1.25601 3.5662,1.51102 6.9671,4.85329 8.4945,8.34843 0.7839,1.79352 1.0686,3.33304 1.0051,5.43284 -0.079,2.64202 -0.7568,4.95415 -2.2841,7.79999 -2.1809,4.0646 -5.5384,8.07184 -11.3694,13.56973 -1.2576,1.18585 -2.2712,2.17055 -2.2522,2.18828 0.019,0.0178 -0.024,0.0322 -0.096,0.0322 -0.072,0 -0.1783,0.0129 -0.238,0.0303 -0.06,0.0168 -0.2007,0.002 -0.3128,-0.0305 z m 2.4633,-4.05637 c 3.1873,-3.08502 4.9326,-4.94576 6.7229,-7.16786 2.4401,-3.0288 4.0186,-5.70614 4.9292,-8.36093 1.2183,-3.55169 1.0309,-6.74631 -0.5712,-9.72797 -1.0581,-1.96963 -3.0083,-4.08792 -4.9782,-5.40729 -0.9095,-0.60917 -2.7423,-1.46977 -3.8301,-1.79851 -3.6517,-1.10336 -7.428,-0.84093 -10.9,0.75754 -1.3513,0.62206 -2.3854,1.29452 -3.4741,2.25912 -3.455,3.06109 -5.0995,6.70484 -4.7347,10.4901 0.4576,4.74591 3.4018,9.75544 9.3845,15.96741 1.7454,1.81241 5.0782,4.99028 5.2334,4.99028 0.089,0 0.9858,-0.80881 2.2183,-2.00189 z m -3.9781,-12.49009 c -2.5978,-0.62601 -4.5843,-2.56593 -5.1479,-5.02707 -0.1566,-0.68333 -0.1577,-1.98227 0,-2.67567 0.4722,-2.11086 2.117,-3.95008 4.2416,-4.74301 0.9326,-0.34802 1.6242,-0.47255 2.628,-0.47327 1.0308,-7.5e-4 1.794,0.13157 2.6918,0.46662 2.4123,0.90029 4.1313,3.04186 4.3556,5.42668 0.1221,1.3023 -0.084,2.38869 -0.6675,3.52061 -0.9019,1.74847 -2.5854,3.03 -4.6091,3.50847 -1.0657,0.25191 -2.436,0.25057 -3.4897,-0.002 z m 3.2979,-1.57585 c 0.8731,-0.24786 1.5408,-0.63596 2.2589,-1.31303 1.0795,-1.01796 1.5458,-2.06455 1.5458,-3.4699 0,-1.42414 -0.463,-2.44876 -1.5862,-3.50987 -0.5747,-0.54287 -0.8147,-0.70916 -1.3888,-0.96248 -0.8993,-0.39685 -1.4173,-0.5079 -2.3678,-0.5079 -0.9519,0 -1.4704,0.11147 -2.3648,0.50829 -0.5635,0.25006 -0.8212,0.42809 -1.3976,0.9653 -0.5764,0.53725 -0.7673,0.77747 -1.0356,1.30269 -0.432,0.84541 -0.5476,1.32087 -0.5451,2.24202 0,1.36942 0.4799,2.42652 1.5461,3.43185 0.8936,0.84255 1.8414,1.30862 3.0122,1.481 0.6048,0.0891 1.6949,0.0114 2.3229,-0.16792 z"
       id="path3-5-4-1-0-8-7-7-1-3-2-9-9-0-2" />
    <text
       xml:space="preserve"
       style="font-size:29.3555px;font-family:Century;-inkscape-font-specification:Century;text-align:center;writing-mode:lr-tb;direction:ltr;text-anchor:middle;display:inline;fill:#ffffff;stroke-width:1.10082"
       x="1029.3024"
       y="270.21347"
       id="text25-4-3-1-9-9-2-5-4-8-0-8-9-78-4"
       transform="scale(0.84197048,1.1876901)"><tspan
         id="tspan25-2-1-3-0-3-6-4-6-0-1-8-2-1-2"
         x="1029.3024"
         y="270.21347"
         style="font-style:normal;font-variant:normal;font-weight:normal;font-stretch:normal;font-size:29.3555px;font-family:Tahoma;-inkscape-font-specification:Tahoma;stroke-width:1.10082">Chejel</tspan></text>
  </g>
</svg>
