<?xml version="1.0" encoding="UTF-8" standalone="no"?>
<!-- Created with Inkscape (http://www.inkscape.org/) -->

<svg
   width="210mm"
   height="297mm"
   viewBox="0 0 210 297"
   version="1.1"
   id="svg1"
   xmlns="http://www.w3.org/2000/svg"
   xmlns:svg="http://www.w3.org/2000/svg">
  <defs
     id="defs1" />
  <g
     id="layer6"
     style="display:inline"
     transform="matrix(0.24926028,0,0,0.23745427,-185.25731,50.527468)">
    <path
       style="display:inline;fill:#0772d2;stroke-width:3.068"
       d="m 952.05629,640.28639 c -6.82982,-3.41017 -17.36077,-10.49742 -23.40212,-15.7495 -16.61908,-14.44782 -28.53725,-16.48385 -96.60402,-16.50348 l -62.21762,-0.018 1.46761,-7.23985 c 0.80717,-3.98192 3.50122,-17.27528 5.98673,-29.54081 2.48554,-12.26552 5.96049,-24.21127 7.72211,-26.5461 1.97912,-2.62312 9.69264,-4.24516 20.18743,-4.24516 17.97971,0 26.17815,-4.98459 26.17815,-15.91618 0,-3.74815 2.84886,-6.4427 8.04447,-7.60864 4.42447,-0.99292 15.71006,-9.34812 25.0791,-18.56715 16.57786,-16.31241 17.315,-16.6672 27.49068,-13.23196 8.23897,2.78138 12.64706,2.52287 20.78918,-1.21922 10.02624,-4.60806 35.42994,-11.46002 67.19101,-18.12296 l 15.49487,-3.25059 17.40653,18.26282 c 14.1881,14.88609 18.6249,17.84614 23.9962,16.0092 9.5347,-3.26073 57.8783,-30.09817 67.0202,-37.20551 6.5353,-5.08087 15.5599,-6.38291 56.5721,-8.16208 34.2002,-1.48369 49.9457,-3.38108 52.6385,-6.34321 5.6403,-6.20422 8.5274,-34.54794 4.3861,-43.05978 -3.6362,-7.47339 -30.0204,-21.95399 -61.2167,-33.59779 -10.3545,-3.86476 -19.7209,-9.09598 -20.8141,-11.62494 -5.1858,-11.99569 -27.8837,-93.53441 -26.3309,-94.58995 4.174,-2.83756 161.3412,-5.10239 178.764,-2.57603 19.217,2.78654 69.7332,-0.80714 138.1962,-9.8311 27.1458,-3.57803 32.445,-3.50859 37.6392,0.49324 5.1173,3.94259 5.7718,6.85167 4.2642,18.95125 -0.9796,7.86151 -0.4998,16.92738 1.0664,20.14638 3.0339,6.23567 25.8212,16.15133 37.1175,16.15133 8.0568,0 8.8076,6.1048 1.6728,13.60278 -2.8155,2.95894 -6.6582,7.01759 -8.5395,9.01927 -1.8811,2.00167 -7.4757,7.75501 -12.4323,12.78515 -10.1881,10.33912 -11.2156,16.41049 -4.1015,24.23576 5.1453,5.65976 20.0604,5.3601 51.1141,-1.027 l 13.6083,-2.79891 1.4059,24.37927 c 0.7733,13.40858 2.3278,27.45012 3.4544,31.20339 1.6565,5.51876 0.6191,7.21864 -5.4228,8.88671 -9.1572,2.52809 -14.587,12.83161 -12.2226,23.1938 0.982,4.30359 10.1792,15.01014 20.7256,24.12685 10.4281,9.01441 18.9603,17.50884 18.9603,18.8765 0,3.5712 -23.6971,6.63869 -35.4071,4.58328 -7.3123,-1.28352 -15.3395,0.94031 -30.4114,8.42499 -14.5886,7.24464 -27.8514,11.01484 -46.1218,13.11108 -14.1048,1.61824 -30.3911,5.12356 -36.1918,7.78956 -5.8007,2.666 -17.9551,4.88181 -27.0098,4.92402 -21.7128,0.10137 -38.8281,4.68046 -43.4434,11.62334 -2.2748,3.42197 -3.7349,15.44154 -3.7349,30.74513 0,24.14258 -0.2659,25.12668 -6.792,25.12668 -3.7357,0 -13.0992,-2.36388 -20.8079,-5.25306 -12.8621,-4.82072 -15.9749,-4.83603 -37.8182,-0.18599 -13.0914,2.78682 -34.3334,5.02229 -47.2046,4.96769 -16.5561,-0.0701 -30.6761,2.24629 -48.2668,7.91866 -13.6757,4.40987 -34.7377,9.64303 -46.8044,11.62926 -12.0667,1.9862 -28.6573,5.72511 -36.8681,8.30867 -8.2107,2.58356 -21.3745,4.59316 -29.2526,4.46576 -7.8783,-0.12742 -36.4184,3.51378 -63.4227,8.09155 -27.00431,4.57778 -49.38259,8.29143 -49.72953,8.25256 -0.34697,-0.0389 -6.21886,-2.8608 -13.04868,-6.27094 z"
       id="path22-8" />
    <path
       style="display:inline;fill:#ffffff;stroke-width:1.10049"
       d="m 1376.8917,442.36627 c -0.1242,-0.0363 -0.2038,-0.0688 -0.1791,-0.0726 0.024,-0.002 -1.0844,-1.05984 -2.4646,-2.34744 -6.3967,-5.96771 -10.0749,-10.31993 -12.4902,-14.77892 -1.6637,-3.07113 -2.4084,-5.59661 -2.4956,-8.46398 -0.052,-1.69485 0.068,-2.75008 0.4746,-4.19691 1.2388,-4.40451 5.3629,-8.85601 10.0304,-10.82669 1.4857,-0.62726 3.6711,-1.19979 5.0924,-1.33399 0.3363,-0.0319 0.5644,-0.0845 0.5071,-0.11723 -0.058,-0.033 0.3228,-0.0772 0.8448,-0.0986 1.1445,-0.0471 2.8883,0.0164 2.7431,0.0986 -0.056,0.0327 0.1709,0.085 0.5072,0.1163 1.431,0.1329 3.5944,0.70464 5.1704,1.36637 3.9144,1.64379 7.6473,5.27972 9.3238,9.08196 0.8605,1.95111 1.173,3.62589 1.1033,5.91019 -0.087,2.87416 -0.8307,5.38944 -2.5071,8.48533 -2.3939,4.42173 -6.0792,8.78107 -12.4795,14.76202 -1.3804,1.29005 -2.4929,2.36127 -2.4721,2.38056 0.021,0.0194 -0.026,0.035 -0.1049,0.035 -0.079,0 -0.1957,0.014 -0.2612,0.033 -0.066,0.0183 -0.2203,0.002 -0.3434,-0.0332 z m 2.7038,-4.41278 c 3.4985,-3.35609 5.4142,-5.38032 7.3793,-7.79766 2.6783,-3.29493 4.4109,-6.20751 5.4104,-9.09556 1.3373,-3.86376 1.1316,-7.33907 -0.6269,-10.58271 -1.1614,-2.14269 -3.3021,-4.4471 -5.4643,-5.8824 -0.9983,-0.66269 -3.0101,-1.59891 -4.2041,-1.95653 -4.0082,-1.20031 -8.1532,-0.91482 -11.9642,0.8241 -1.4832,0.67672 -2.6183,1.40826 -3.8133,2.45762 -3.7923,3.33005 -5.5974,7.29395 -5.1969,11.4118 0.5022,5.16291 3.7339,10.61259 10.3007,17.37037 1.9158,1.97166 5.574,5.42875 5.7444,5.42875 0.098,0 1.082,-0.87988 2.4349,-2.17778 z m -4.3665,-13.58753 c -2.8515,-0.68101 -5.0319,-2.79138 -5.6506,-5.46876 -0.1719,-0.74338 -0.1731,-2.15645 0,-2.91077 0.5183,-2.29633 2.3237,-4.29715 4.6558,-5.15975 1.0236,-0.3786 1.7827,-0.51407 2.8846,-0.51485 1.1314,-8.2e-4 1.9691,0.14313 2.9546,0.50761 2.6478,0.9794 4.5346,3.30913 4.7808,5.9035 0.134,1.41672 -0.092,2.59856 -0.7326,3.82994 -0.99,1.9021 -2.8379,3.29623 -5.0592,3.81674 -1.1697,0.27404 -2.6738,0.27259 -3.8304,-0.002 z m 3.6198,-1.71431 c 0.9584,-0.26963 1.6913,-0.69184 2.4795,-1.42839 1.1849,-1.10741 1.6967,-2.24595 1.6967,-3.77478 0,-1.54928 -0.5082,-2.66392 -1.7411,-3.81827 -0.6308,-0.59057 -0.8942,-0.77147 -1.5243,-1.04704 -0.9872,-0.43172 -1.5557,-0.55253 -2.599,-0.55253 -1.0449,0 -1.614,0.12126 -2.5957,0.55295 -0.6185,0.27203 -0.9014,0.4657 -1.5341,1.05012 -0.6326,0.58445 -0.8422,0.84578 -1.1367,1.41714 -0.4742,0.9197 -0.601,1.43693 -0.5983,2.43902 0,1.48974 0.5268,2.63972 1.697,3.73339 0.9809,0.91657 2.0212,1.4236 3.3063,1.61112 0.6639,0.0969 1.8604,0.0124 2.5497,-0.18267 z"
       id="path3-5-4-1-0-8-7-7-1-3-2" />
    <text
       xml:space="preserve"
       style="font-size:32.0779px;font-family:Century;-inkscape-font-specification:Century;text-align:center;writing-mode:lr-tb;direction:ltr;text-anchor:middle;display:inline;fill:#ffffff;stroke-width:1.20291"
       x="1625.7329"
       y="403.74323"
       id="text25-4-3-1-9-9-2-5-4-8-0"
       transform="scale(0.84574335,1.1823918)"><tspan
         id="tspan25-2-1-3-0-3-6-4-6-0-1"
         x="1625.7329"
         y="403.74323"
         style="font-style:normal;font-variant:normal;font-weight:normal;font-stretch:normal;font-size:32.0779px;font-family:Tahoma;-inkscape-font-specification:Tahoma;stroke-width:1.20291">Tres Cruces</tspan></text>
    <path
       style="display:inline;fill:#ffffff;stroke-width:1.10049"
       d="m 884.61017,558.98206 c -0.1242,-0.0363 -0.2038,-0.0688 -0.1791,-0.0726 0.024,-0.002 -1.0844,-1.05984 -2.4646,-2.34744 -6.3967,-5.96771 -10.0749,-10.31993 -12.4902,-14.77892 -1.6637,-3.07113 -2.4084,-5.59661 -2.4956,-8.46398 -0.052,-1.69485 0.068,-2.75008 0.4746,-4.19691 1.2388,-4.40451 5.3629,-8.85601 10.0304,-10.82669 1.4857,-0.62726 3.6711,-1.19979 5.0924,-1.33399 0.3363,-0.0319 0.5644,-0.0845 0.5071,-0.11723 -0.058,-0.033 0.3228,-0.0772 0.8448,-0.0986 1.1445,-0.0471 2.8883,0.0164 2.7431,0.0986 -0.056,0.0327 0.1709,0.085 0.5072,0.1163 1.431,0.1329 3.5944,0.70464 5.1704,1.36637 3.9144,1.64379 7.6473,5.27972 9.3238,9.08196 0.8605,1.95111 1.173,3.62589 1.1033,5.91019 -0.087,2.87416 -0.8307,5.38944 -2.5071,8.48533 -2.3939,4.42173 -6.0792,8.78107 -12.4795,14.76202 -1.3804,1.29005 -2.4929,2.36127 -2.4721,2.38056 0.021,0.0194 -0.026,0.035 -0.1049,0.035 -0.079,0 -0.1957,0.014 -0.2612,0.033 -0.066,0.0183 -0.2203,0.002 -0.3434,-0.0332 z m 2.7038,-4.41278 c 3.4985,-3.35609 5.4142,-5.38032 7.3793,-7.79766 2.6783,-3.29493 4.4109,-6.20751 5.4104,-9.09556 1.3373,-3.86376 1.1316,-7.33907 -0.6269,-10.58271 -1.1614,-2.14269 -3.3021,-4.4471 -5.4643,-5.8824 -0.9983,-0.66269 -3.0101,-1.59891 -4.2041,-1.95653 -4.0082,-1.20031 -8.1532,-0.91482 -11.9642,0.8241 -1.4832,0.67672 -2.6183,1.40826 -3.8133,2.45762 -3.7923,3.33005 -5.5974,7.29395 -5.1969,11.4118 0.5022,5.16291 3.7339,10.61259 10.3007,17.37037 1.9158,1.97166 5.574,5.42875 5.7444,5.42875 0.098,0 1.082,-0.87988 2.4349,-2.17778 z m -4.3665,-13.58753 c -2.8515,-0.68101 -5.0319,-2.79138 -5.6506,-5.46876 -0.1719,-0.74338 -0.1731,-2.15645 0,-2.91077 0.5183,-2.29633 2.3237,-4.29715 4.6558,-5.15975 1.0236,-0.3786 1.7827,-0.51407 2.8846,-0.51485 1.1314,-8.2e-4 1.9691,0.14313 2.9546,0.50761 2.6478,0.9794 4.5346,3.30913 4.7808,5.9035 0.134,1.41672 -0.092,2.59856 -0.7326,3.82994 -0.99,1.9021 -2.8379,3.29623 -5.0592,3.81674 -1.1697,0.27404 -2.6738,0.27259 -3.8304,-0.002 z m 3.6198,-1.71431 c 0.9584,-0.26963 1.6913,-0.69184 2.4795,-1.42839 1.1849,-1.10741 1.6967,-2.24595 1.6967,-3.77478 0,-1.54928 -0.5082,-2.66392 -1.7411,-3.81827 -0.6308,-0.59057 -0.8942,-0.77147 -1.5243,-1.04704 -0.9872,-0.43172 -1.5557,-0.55253 -2.599,-0.55253 -1.0449,0 -1.614,0.12126 -2.5957,0.55295 -0.6185,0.27203 -0.9014,0.4657 -1.5341,1.05012 -0.6326,0.58445 -0.8422,0.84578 -1.1367,1.41714 -0.4742,0.9197 -0.601,1.43693 -0.5983,2.43902 0,1.48974 0.5268,2.63972 1.697,3.73339 0.9809,0.91657 2.0212,1.4236 3.3063,1.61112 0.6639,0.0969 1.8604,0.0124 2.5497,-0.18267 z"
       id="path3-5-4-1-0-8-7-7-1-3" />
    <text
       xml:space="preserve"
       style="font-size:32.0779px;font-family:Century;-inkscape-font-specification:Century;text-align:center;writing-mode:lr-tb;direction:ltr;text-anchor:middle;display:inline;fill:#ffffff;stroke-width:1.20291"
       x="1043.6633"
       y="502.37027"
       id="text25-4-3-1-9-9-2-5-4-8"
       transform="scale(0.84574335,1.1823918)"><tspan
         id="tspan25-2-1-3-0-3-6-4-6-0"
         x="1043.6633"
         y="502.37027"
         style="font-style:normal;font-variant:normal;font-weight:normal;font-stretch:normal;font-size:32.0779px;font-family:Tahoma;-inkscape-font-specification:Tahoma;stroke-width:1.20291">El Comunal</tspan></text>
    <path
       style="display:inline;fill:#ffffff;stroke-width:1.10049"
       d="m 1218.9344,510.86951 c -0.1242,-0.0363 -0.2038,-0.0688 -0.1791,-0.0726 0.024,-0.002 -1.0844,-1.05984 -2.4646,-2.34744 -6.3967,-5.96771 -10.0749,-10.31993 -12.4902,-14.77892 -1.6637,-3.07113 -2.4084,-5.59661 -2.4956,-8.46398 -0.052,-1.69485 0.068,-2.75008 0.4746,-4.19691 1.2388,-4.40451 5.3629,-8.85601 10.0304,-10.82669 1.4857,-0.62726 3.6711,-1.19979 5.0924,-1.33399 0.3363,-0.0319 0.5644,-0.0845 0.5071,-0.11723 -0.058,-0.033 0.3228,-0.0772 0.8448,-0.0986 1.1445,-0.0471 2.8883,0.0164 2.7431,0.0986 -0.056,0.0327 0.1709,0.085 0.5072,0.1163 1.431,0.1329 3.5944,0.70464 5.1704,1.36637 3.9144,1.64379 7.6473,5.27972 9.3238,9.08196 0.8605,1.95111 1.173,3.62589 1.1033,5.91019 -0.087,2.87416 -0.8307,5.38944 -2.5071,8.48533 -2.3939,4.42173 -6.0792,8.78107 -12.4795,14.76202 -1.3804,1.29005 -2.4929,2.36127 -2.4721,2.38056 0.021,0.0194 -0.026,0.035 -0.1049,0.035 -0.079,0 -0.1957,0.014 -0.2612,0.033 -0.066,0.0183 -0.2203,0.002 -0.3434,-0.0332 z m 2.7038,-4.41278 c 3.4985,-3.35609 5.4142,-5.38032 7.3793,-7.79766 2.6783,-3.29493 4.4109,-6.20751 5.4104,-9.09556 1.3373,-3.86376 1.1316,-7.33907 -0.6269,-10.58271 -1.1614,-2.14269 -3.3021,-4.4471 -5.4643,-5.8824 -0.9983,-0.66269 -3.0101,-1.59891 -4.2041,-1.95653 -4.0082,-1.20031 -8.1532,-0.91482 -11.9642,0.8241 -1.4832,0.67672 -2.6183,1.40826 -3.8133,2.45762 -3.7923,3.33005 -5.5974,7.29395 -5.1969,11.4118 0.5022,5.16291 3.7339,10.61259 10.3007,17.37037 1.9158,1.97166 5.574,5.42875 5.7444,5.42875 0.098,0 1.082,-0.87988 2.4349,-2.17778 z m -4.3665,-13.58753 c -2.8515,-0.68101 -5.0319,-2.79138 -5.6506,-5.46876 -0.1719,-0.74338 -0.1731,-2.15645 0,-2.91077 0.5183,-2.29633 2.3237,-4.29715 4.6558,-5.15975 1.0236,-0.3786 1.7827,-0.51407 2.8846,-0.51485 1.1314,-8.2e-4 1.9691,0.14313 2.9546,0.50761 2.6478,0.9794 4.5346,3.30913 4.7808,5.9035 0.134,1.41672 -0.092,2.59856 -0.7326,3.82994 -0.99,1.9021 -2.8379,3.29623 -5.0592,3.81674 -1.1697,0.27404 -2.6738,0.27259 -3.8304,-0.002 z m 3.6198,-1.71431 c 0.9584,-0.26963 1.6913,-0.69184 2.4795,-1.42839 1.1849,-1.10741 1.6967,-2.24595 1.6967,-3.77478 0,-1.54928 -0.5082,-2.66392 -1.7411,-3.81827 -0.6308,-0.59057 -0.8942,-0.77147 -1.5243,-1.04704 -0.9872,-0.43172 -1.5557,-0.55253 -2.599,-0.55253 -1.0449,0 -1.614,0.12126 -2.5957,0.55295 -0.6185,0.27203 -0.9014,0.4657 -1.5341,1.05012 -0.6326,0.58445 -0.8422,0.84578 -1.1367,1.41714 -0.4742,0.9197 -0.601,1.43693 -0.5983,2.43902 0,1.48974 0.5268,2.63972 1.697,3.73339 0.9809,0.91657 2.0212,1.4236 3.3063,1.61112 0.6639,0.0969 1.8604,0.0124 2.5497,-0.18267 z"
       id="path3-5-4-1-0-8-7-7-1-3-9" />
    <text
       xml:space="preserve"
       style="font-size:32.0779px;font-family:Century;-inkscape-font-specification:Century;text-align:center;writing-mode:lr-tb;direction:ltr;text-anchor:middle;display:inline;fill:#ffffff;stroke-width:1.20291"
       x="1438.9656"
       y="461.67938"
       id="text25-4-3-1-9-9-2-5-4-8-4"
       transform="scale(0.84574335,1.1823918)"><tspan
         id="tspan25-2-1-3-0-3-6-4-6-0-7"
         x="1438.9656"
         y="461.67938"
         style="font-style:normal;font-variant:normal;font-weight:normal;font-stretch:normal;font-size:32.0779px;font-family:Tahoma;-inkscape-font-specification:Tahoma;stroke-width:1.20291">Sachut</tspan></text>
  </g>
</svg>
