<?xml version="1.0" encoding="UTF-8" standalone="no"?>
<!-- Created with Inkscape (http://www.inkscape.org/) -->

<svg
   width="210mm"
   height="297mm"
   viewBox="0 0 210 297"
   version="1.1"
   id="svg1"
   xmlns="http://www.w3.org/2000/svg"
   xmlns:svg="http://www.w3.org/2000/svg">
  <defs
     id="defs1" />
  <g
     id="layer20"
     transform="matrix(0.26458333,0,0,0.26458333,-182.76234,35.081421)">
    <path
       style="display:inline;fill:#0772d2;stroke-width:3.26265"
       d="m 699.37803,857.47352 c 0.21085,-31.50046 9.67516,-91.56742 18.80357,-119.32224 11.52448,-35.04076 16.53583,-62.02182 22.8421,-122.98242 3.4216,-33.07642 8.47186,-63.25862 12.00362,-71.73976 6.42915,-15.43775 7.84839,-65.19201 2.48805,-87.21298 -1.95983,-8.05052 -0.94375,-14.21366 3.71534,-22.53571 3.84112,-6.86105 5.32144,-13.57287 3.69135,-16.73645 -1.49704,-2.90495 -3.97637,-22.27422 -5.51013,-43.04282 -2.25756,-30.57688 -1.76206,-39.73887 2.60438,-48.15664 4.50567,-8.68595 4.63582,-12.24235 0.79142,-21.62529 -3.94401,-9.62542 -3.73388,-12.69503 1.47123,-21.48635 3.33945,-5.64111 6.07215,-13.5343 6.07215,-17.54042 0,-4.00609 4.07307,-12.24136 9.05134,-18.30059 4.97827,-6.05922 10.48948,-17.21751 12.24755,-24.79622 3.92184,-16.90961 8.15449,-21.19324 29.58135,-29.9388 19.74476,-8.05904 60.41506,-29.48479 63.43241,-33.41732 1.15387,-1.50393 13.12258,-5.66636 26.59744,-9.24988 13.47448,-3.58351 31.58625,-10.41232 40.24787,-15.17507 8.66198,-4.76279 25.00368,-11.27957 36.31513,-14.48174 26.6072,-7.5325 30.7483,-9.38798 58.0605,-26.016207 26.8384,-16.339738 42.9304,-19.552683 65.6179,-13.10126 14.9487,4.250742 17.7465,4.085184 52.7129,-3.118921 20.3097,-4.18436 50.8319,-9.29182 67.8272,-11.349931 16.9953,-2.058082 40.7161,-7.046161 52.7128,-11.084612 21.4734,-7.228584 68.2532,-19.667349 73.9648,-19.667349 3.3565,0 71.1136,30.194324 94.1709,41.964825 8.4977,4.338 15.4503,9.129863 15.4503,10.648638 0,7.215321 -19.5048,24.934067 -30.9305,28.097837 -6.8747,1.90376 -18.3262,7.58172 -25.4472,12.6177 -7.1209,5.03601 -15.0263,9.15636 -17.5675,9.15636 -2.5411,0 -10.255,3.37622 -17.1415,7.50275 -12.3159,7.37971 -13.445,7.49124 -68.8694,6.80148 -38.3302,-0.47699 -61.1454,0.51462 -71.3502,3.10109 -12.942,3.28024 -17.5582,3.11837 -33.6211,-1.1789 -22.8013,-6.10007 -32.5125,-4.49635 -58.6202,9.68056 -16.9092,9.18192 -21.3316,13.55606 -28.6584,28.34507 -11.7131,23.64338 -23.2623,84.83105 -21.2628,112.65269 1.9118,26.60598 15.9977,61.30448 35.732,88.02059 17.2196,23.31139 17.6853,31.20638 3.695,62.63188 -5.772,12.96496 -12.2955,31.47864 -14.4975,41.14155 -10.2815,45.12541 -29.4876,89.29141 -60.5848,139.32129 -36.6467,58.95759 -50.2121,77.25228 -79.8367,107.66917 -19.75785,20.28622 -23.87346,22.95729 -43.62441,28.31042 -34.0961,9.24127 -63.43678,22.54232 -141.77529,64.27178 -70.50103,37.55458 -86.30179,45.47946 -90.67623,45.47946 -1.14805,0 -2.01507,-10.87077 -1.92674,-24.15726 z"
       id="path14-6" />
    <path
       style="display:inline;fill:#ffffff;stroke-width:1.02541"
       d="m 913.10246,200.89547 c -0.111,-0.0352 -0.1821,-0.0667 -0.16,-0.0706 0.022,-0.002 -0.9695,-1.02933 -2.2033,-2.27988 -5.7183,-5.79589 -9.0066,-10.02282 -11.1657,-14.35344 -1.4872,-2.98272 -2.153,-5.4355 -2.2309,-8.22032 -0.046,-1.64605 0.061,-2.67091 0.4243,-4.07608 1.1074,-4.27773 4.7941,-8.60107 8.9667,-10.51501 1.328,-0.60921 3.2817,-1.16525 4.5524,-1.29558 0.3006,-0.031 0.5045,-0.0821 0.4533,-0.11386 -0.052,-0.032 0.2885,-0.075 0.7552,-0.0957 1.0232,-0.0457 2.582,0.0158 2.452,0.0957 -0.05,0.0319 0.1529,0.0825 0.4536,0.11295 1.2792,0.12907 3.2131,0.68436 4.6221,1.32704 3.4992,1.59647 6.8362,5.12772 8.335,8.8205 0.7692,1.89493 1.0486,3.5215 0.9862,5.74004 -0.078,2.79143 -0.7425,5.23429 -2.2411,8.24105 -2.14,4.29443 -5.4345,8.52827 -11.1561,14.33705 -1.2339,1.2529 -2.2287,2.29329 -2.2098,2.31202 0.019,0.0188 -0.023,0.0339 -0.094,0.0339 -0.071,0 -0.175,0.0136 -0.2335,0.0321 -0.059,0.0177 -0.1969,0.002 -0.307,-0.0322 z m 2.4171,-4.28573 c 3.1275,-3.25947 4.84,-5.22542 6.5967,-7.57318 2.3943,-3.20007 3.9432,-6.02881 4.8367,-8.83371 1.1955,-3.75252 1.0116,-7.12779 -0.5605,-10.27806 -1.0382,-2.08099 -2.9518,-4.31906 -4.8847,-5.71305 -0.8925,-0.64362 -2.6909,-1.55286 -3.7583,-1.9002 -3.5831,-1.16574 -7.2886,-0.88848 -10.6956,0.80039 -1.3259,0.65722 -2.3405,1.36771 -3.4088,2.38686 -3.3902,3.23418 -5.0038,7.08397 -4.6458,11.08327 0.449,5.01427 3.338,10.30708 9.2084,16.8703 1.7126,1.91489 4.9828,5.27248 5.1351,5.27248 0.088,0 0.9674,-0.85456 2.1768,-2.1151 z m -3.9034,-13.19637 c -2.5492,-0.66139 -4.4985,-2.71103 -5.0513,-5.31133 -0.1537,-0.72197 -0.1549,-2.09435 0,-2.82697 0.4632,-2.23021 2.0771,-4.17344 4.1618,-5.01121 0.9153,-0.36769 1.5939,-0.49926 2.5789,-0.50002 1.0114,-7.9e-4 1.7603,0.139 2.6412,0.493 2.3671,0.9512 4.0538,3.21387 4.2737,5.73354 0.12,1.37594 -0.082,2.52376 -0.6549,3.71968 -0.8849,1.84735 -2.5368,3.20134 -4.5225,3.70686 -1.0457,0.26617 -2.3903,0.26475 -3.4242,-0.002 z m 3.236,-1.66494 c 0.8567,-0.26189 1.5118,-0.67194 2.2165,-1.38728 1.0592,-1.07553 1.5168,-2.1813 1.5168,-3.66612 0,-1.50467 -0.4544,-2.58723 -1.5564,-3.70835 -0.5641,-0.57355 -0.7995,-0.74925 -1.3627,-1.01689 -0.8825,-0.41929 -1.3909,-0.53661 -2.3236,-0.53661 -0.9339,0 -1.4428,0.11777 -2.3203,0.53702 -0.553,0.26421 -0.8059,0.4523 -1.3714,1.01989 -0.5656,0.56763 -0.753,0.82142 -1.0162,1.37635 -0.4239,0.89321 -0.5373,1.39556 -0.5349,2.36879 0,1.44687 0.4709,2.56374 1.5171,3.62592 0.8768,0.89019 1.807,1.3826 2.9557,1.56474 0.5935,0.0942 1.6632,0.012 2.2794,-0.17741 z"
       id="path3-5-4-1-0-8-7-7-1-3-2-9-9-0-29-25-6-6-0-8-3-5-04-8-4-9-2-1" />
    <text
       xml:space="preserve"
       style="font-size:30.9038px;font-family:Century;-inkscape-font-specification:Century;text-align:center;writing-mode:lr-tb;direction:ltr;text-anchor:middle;display:inline;fill:#ffffff;stroke-width:1.15887"
       x="1089.1012"
       y="199.03493"
       id="text25-4-3-1-9-9-2-5-4-8-0-8-9-78-52-54-93-3-3-8-0-1-5-2-8-2-3-7"
       transform="scale(0.83893764,1.1919837)"><tspan
         id="tspan25-2-1-3-0-3-6-4-6-0-1-8-2-1-0-91-5-3-6-7-3-2-4-1-4-6-6-3"
         x="1089.1012"
         y="199.03493"
         style="font-style:normal;font-variant:normal;font-weight:normal;font-stretch:normal;font-size:30.9038px;font-family:Tahoma;-inkscape-font-specification:Tahoma;stroke-width:1.15887">Rio Nuevo Chantelito</tspan></text>
    <path
       style="display:inline;fill:#ffffff;stroke-width:1.02541"
       d="m 972.60464,340.52623 c -0.111,-0.0352 -0.1821,-0.0667 -0.16,-0.0706 0.022,-0.002 -0.9695,-1.02933 -2.2033,-2.27988 -5.7183,-5.79589 -9.0066,-10.02282 -11.1657,-14.35344 -1.4872,-2.98272 -2.153,-5.4355 -2.2309,-8.22032 -0.046,-1.64605 0.061,-2.67091 0.4243,-4.07608 1.1074,-4.27773 4.7941,-8.60107 8.9667,-10.51501 1.328,-0.60921 3.2817,-1.16525 4.5524,-1.29558 0.3006,-0.031 0.5045,-0.0821 0.4533,-0.11386 -0.052,-0.032 0.2885,-0.075 0.7552,-0.0957 1.0232,-0.0457 2.582,0.0158 2.452,0.0957 -0.05,0.0319 0.1529,0.0825 0.4536,0.11295 1.2792,0.12907 3.2131,0.68436 4.6221,1.32704 3.4992,1.59647 6.8362,5.12772 8.335,8.8205 0.7692,1.89493 1.0486,3.5215 0.9862,5.74004 -0.078,2.79143 -0.7425,5.23429 -2.2411,8.24105 -2.14,4.29443 -5.4345,8.52827 -11.1561,14.33705 -1.2339,1.2529 -2.2287,2.29329 -2.2098,2.31202 0.019,0.0188 -0.023,0.0339 -0.094,0.0339 -0.071,0 -0.175,0.0136 -0.2335,0.0321 -0.059,0.0177 -0.1969,0.002 -0.307,-0.0322 z m 2.4171,-4.28573 c 3.1275,-3.25947 4.84,-5.22542 6.5967,-7.57318 2.3943,-3.20007 3.9432,-6.02881 4.8367,-8.83371 1.1955,-3.75252 1.0116,-7.12779 -0.5605,-10.27806 -1.0382,-2.08099 -2.9518,-4.31906 -4.8847,-5.71305 -0.8925,-0.64362 -2.6909,-1.55286 -3.7583,-1.9002 -3.5831,-1.16574 -7.2886,-0.88848 -10.6956,0.80039 -1.3259,0.65722 -2.3405,1.36771 -3.4088,2.38686 -3.3902,3.23418 -5.0038,7.08397 -4.6458,11.08327 0.449,5.01427 3.338,10.30708 9.2084,16.8703 1.7126,1.91489 4.9828,5.27248 5.1351,5.27248 0.088,0 0.9674,-0.85456 2.1768,-2.1151 z m -3.9034,-13.19637 c -2.5492,-0.66139 -4.4985,-2.71103 -5.0513,-5.31133 -0.1537,-0.72197 -0.1549,-2.09435 0,-2.82697 0.4632,-2.23021 2.0771,-4.17344 4.1618,-5.01121 0.9153,-0.36769 1.5939,-0.49926 2.5789,-0.50002 1.0114,-7.9e-4 1.7603,0.139 2.6412,0.493 2.3671,0.9512 4.0538,3.21387 4.2737,5.73354 0.12,1.37594 -0.082,2.52376 -0.6549,3.71968 -0.8849,1.84735 -2.5368,3.20134 -4.5225,3.70686 -1.0457,0.26617 -2.3903,0.26475 -3.4242,-0.002 z m 3.236,-1.66494 c 0.8567,-0.26189 1.5118,-0.67194 2.2165,-1.38728 1.0592,-1.07553 1.5168,-2.1813 1.5168,-3.66612 0,-1.50467 -0.4544,-2.58723 -1.5564,-3.70835 -0.5641,-0.57355 -0.7995,-0.74925 -1.3627,-1.01689 -0.8825,-0.41929 -1.3909,-0.53661 -2.3236,-0.53661 -0.9339,0 -1.4428,0.11777 -2.3203,0.53702 -0.553,0.26421 -0.8059,0.4523 -1.3714,1.01989 -0.5656,0.56763 -0.753,0.82142 -1.0162,1.37635 -0.4239,0.89321 -0.5373,1.39556 -0.5349,2.36879 0,1.44687 0.4709,2.56374 1.5171,3.62592 0.8768,0.89019 1.807,1.3826 2.9557,1.56474 0.5935,0.0942 1.6632,0.012 2.2794,-0.17741 z"
       id="path3-5-4-1-0-8-7-7-1-3-2-9-9-0-29-25-6-6-0-8-3-5-04-8-4-9-2-1-3" />
    <text
       xml:space="preserve"
       style="font-size:30.9038px;font-family:Century;-inkscape-font-specification:Century;text-align:center;writing-mode:lr-tb;direction:ltr;text-anchor:middle;display:inline;fill:#ffffff;stroke-width:1.15887"
       x="1160.0269"
       y="316.17642"
       id="text25-4-3-1-9-9-2-5-4-8-0-8-9-78-52-54-93-3-3-8-0-1-5-2-8-2-3-7-0"
       transform="scale(0.83893764,1.1919837)"><tspan
         id="tspan25-2-1-3-0-3-6-4-6-0-1-8-2-1-0-91-5-3-6-7-3-2-4-1-4-6-6-3-1"
         x="1160.0269"
         y="316.17642"
         style="font-style:normal;font-variant:normal;font-weight:normal;font-stretch:normal;font-size:30.9038px;font-family:Tahoma;-inkscape-font-specification:Tahoma;stroke-width:1.15887">Sierra Linda</tspan></text>
    <path
       style="display:inline;fill:#ffffff;stroke-width:1.02541"
       d="m 894.72293,601.66806 c -0.111,-0.0352 -0.1821,-0.0667 -0.16,-0.0706 0.022,-0.002 -0.9695,-1.02933 -2.2033,-2.27988 -5.7183,-5.79589 -9.0066,-10.02282 -11.1657,-14.35344 -1.4872,-2.98272 -2.153,-5.4355 -2.2309,-8.22032 -0.046,-1.64605 0.061,-2.67091 0.4243,-4.07608 1.1074,-4.27773 4.7941,-8.60107 8.9667,-10.51501 1.328,-0.60921 3.2817,-1.16525 4.5524,-1.29558 0.3006,-0.031 0.5045,-0.0821 0.4533,-0.11386 -0.052,-0.032 0.2885,-0.075 0.7552,-0.0957 1.0232,-0.0457 2.582,0.0158 2.452,0.0957 -0.05,0.0319 0.1529,0.0825 0.4536,0.11295 1.2792,0.12907 3.2131,0.68436 4.6221,1.32704 3.4992,1.59647 6.8362,5.12772 8.335,8.8205 0.7692,1.89493 1.0486,3.5215 0.9862,5.74004 -0.078,2.79143 -0.7425,5.23429 -2.2411,8.24105 -2.14,4.29443 -5.4345,8.52827 -11.1561,14.33705 -1.2339,1.2529 -2.2287,2.29329 -2.2098,2.31202 0.019,0.0188 -0.023,0.0339 -0.094,0.0339 -0.071,0 -0.175,0.0136 -0.2335,0.0321 -0.059,0.0177 -0.1969,0.002 -0.307,-0.0322 z m 2.4171,-4.28573 c 3.1275,-3.25947 4.84,-5.22542 6.5967,-7.57318 2.3943,-3.20007 3.9432,-6.02881 4.8367,-8.83371 1.1955,-3.75252 1.0116,-7.12779 -0.5605,-10.27806 -1.0382,-2.08099 -2.9518,-4.31906 -4.8847,-5.71305 -0.8925,-0.64362 -2.6909,-1.55286 -3.7583,-1.9002 -3.5831,-1.16574 -7.2886,-0.88848 -10.6956,0.80039 -1.3259,0.65722 -2.3405,1.36771 -3.4088,2.38686 -3.3902,3.23418 -5.0038,7.08397 -4.6458,11.08327 0.449,5.01427 3.338,10.30708 9.2084,16.8703 1.7126,1.91489 4.9828,5.27248 5.1351,5.27248 0.088,0 0.9674,-0.85456 2.1768,-2.1151 z m -3.9034,-13.19637 c -2.5492,-0.66139 -4.4985,-2.71103 -5.0513,-5.31133 -0.1537,-0.72197 -0.1549,-2.09435 0,-2.82697 0.4632,-2.23021 2.0771,-4.17344 4.1618,-5.01121 0.9153,-0.36769 1.5939,-0.49926 2.5789,-0.50002 1.0114,-7.9e-4 1.7603,0.139 2.6412,0.493 2.3671,0.9512 4.0538,3.21387 4.2737,5.73354 0.12,1.37594 -0.082,2.52376 -0.6549,3.71968 -0.8849,1.84735 -2.5368,3.20134 -4.5225,3.70686 -1.0457,0.26617 -2.3903,0.26475 -3.4242,-0.002 z m 3.236,-1.66494 c 0.8567,-0.26189 1.5118,-0.67194 2.2165,-1.38728 1.0592,-1.07553 1.5168,-2.1813 1.5168,-3.66612 0,-1.50467 -0.4544,-2.58723 -1.5564,-3.70835 -0.5641,-0.57355 -0.7995,-0.74925 -1.3627,-1.01689 -0.8825,-0.41929 -1.3909,-0.53661 -2.3236,-0.53661 -0.9339,0 -1.4428,0.11777 -2.3203,0.53702 -0.553,0.26421 -0.8059,0.4523 -1.3714,1.01989 -0.5656,0.56763 -0.753,0.82142 -1.0162,1.37635 -0.4239,0.89321 -0.5373,1.39556 -0.5349,2.36879 0,1.44687 0.4709,2.56374 1.5171,3.62592 0.8768,0.89019 1.807,1.3826 2.9557,1.56474 0.5935,0.0942 1.6632,0.012 2.2794,-0.17741 z"
       id="path3-5-4-1-0-8-7-7-1-3-2-9-9-0-29-25-6-6-0-8-3-5-04-8-4-9-2-1-3-8" />
    <text
       xml:space="preserve"
       style="font-size:30.9038px;font-family:Century;-inkscape-font-specification:Century;text-align:center;writing-mode:lr-tb;direction:ltr;text-anchor:middle;display:inline;fill:#ffffff;stroke-width:1.15887"
       x="1067.1932"
       y="535.25812"
       id="text25-4-3-1-9-9-2-5-4-8-0-8-9-78-52-54-93-3-3-8-0-1-5-2-8-2-3-7-0-8"
       transform="scale(0.83893764,1.1919837)"><tspan
         id="tspan25-2-1-3-0-3-6-4-6-0-1-8-2-1-0-91-5-3-6-7-3-2-4-1-4-6-6-3-1-5"
         x="1067.1932"
         y="535.25812"
         style="font-style:normal;font-variant:normal;font-weight:normal;font-stretch:normal;font-size:30.9038px;font-family:Tahoma;-inkscape-font-specification:Tahoma;stroke-width:1.15887">Moxanté</tspan></text>
  </g>
</svg>
