<?xml version="1.0" encoding="UTF-8" standalone="no"?>
<!-- Created with Inkscape (http://www.inkscape.org/) -->

<svg
   width="210mm"
   height="297mm"
   viewBox="0 0 210 297"
   version="1.1"
   id="svg1"
   xmlns="http://www.w3.org/2000/svg"
   xmlns:svg="http://www.w3.org/2000/svg">
  <defs
     id="defs1" />
  <g
     id="layer2"
     style="display:inline"
     transform="matrix(0.19754643,0,0,0.20548358,-94.545178,36.648108)">
    <path
       style="display:inline;fill:#0772d2;stroke-width:2.80579"
       d="m 1341.6799,858.90823 c -7.535,-1.7678 -15.1298,-7.7438 -28.8856,-22.7293 -36.4263,-39.6824 -54.1073,-71.6433 -70.6011,-127.62105 -16.9489,-57.5225 -19.5639,-59.53471 -76.375,-58.76919 l -38.1685,0.51432 -38.5176,-13.79859 c -41.497,-14.86589 -54.446,-16.84949 -70.9928,-10.87523 -37.78673,13.64303 -60.01418,39.86066 -60.01418,70.78767 0,16.38328 -20.23224,44.48107 -53.58011,74.40987 -23.24855,20.865 -65.10752,35.4864 -87.99134,30.7355 -15.52135,-3.2223 -39.71486,-21.117 -81.78684,-60.4932 -21.90631,-20.5027 -44.58454,-40.71702 -50.39609,-44.92073 -10.67121,-7.71892 -29.44522,-15.36162 -46.60709,-18.97329 -14.72656,-3.09916 -69.56532,-36.23441 -82.20326,-49.66971 l -11.45674,-12.17957 -24.27146,-1.04524 -24.27147,-1.04525 1.40206,-34.34102 c 2.13828,-52.3726 7.4719,-75.22301 28.71731,-123.03199 18.43146,-41.47663 26.69297,-54.09847 40.61444,-62.05038 8.9709,-5.12414 67.12974,-20.67133 87.48719,-23.38732 21.83176,-2.9127 59.60269,-15.4034 63.31704,-20.93877 1.78711,-2.66319 5.87469,-13.60542 9.08356,-24.31605 15.7848,-52.68703 33.54105,-84.91994 52.35352,-95.03725 12.39944,-6.6684 15.09034,-6.87872 102.32009,-7.99707 106.94702,-1.37116 172.78767,2.4472 219.59777,12.73526 18.5804,4.08366 36.798,7.42483 40.4836,7.42483 4.5564,0 13.601,6.84244 28.2597,21.37921 11.8573,11.75855 28.6954,26.02365 37.418,31.70019 8.7226,5.67655 25.0064,17.25736 36.1862,25.73514 21.744,16.48879 36.8222,22.41331 95.7532,37.62339 17.6199,4.5477 35.4429,9.61138 39.6066,11.25262 l 7.5706,2.98407 -1.8787,20.91674 c -1.0333,11.50419 -4.1397,25.84003 -6.9031,31.85743 -2.7635,6.0174 -5.0199,13.97932 -5.0144,17.69314 0.019,12.08172 10.0432,25.95096 23.4209,32.40067 6.9353,3.34373 13.0671,6.52325 13.6262,7.06558 0.559,0.54232 -1.6829,8.33217 -4.982,17.31072 -5.4854,14.92838 -6.7156,16.32469 -14.3825,16.32469 -22.6553,0 -43.2365,16.06254 -46.1222,35.99594 -0.8916,6.15928 -6.2504,17.98709 -12.0178,26.52547 -5.7248,8.47528 -12.1391,21.84612 -14.2542,29.71302 -2.115,7.86687 -6.8907,18.30092 -10.6126,23.18673 -11.0785,14.54282 -8.4572,21.41548 10.582,27.74467 7.0763,2.35233 18.7511,4.27696 25.944,4.27696 14.8509,0 46.2335,6.85592 106.2089,23.20259 41.3584,11.27255 57.7636,18.32284 74.0835,31.83813 l 8.6765,7.18542 v 43.83493 43.835 l -10.0113,8.4697 c -5.5062,4.6582 -15.0214,12.0171 -21.1449,16.353 -6.1235,4.3358 -11.9109,10.5884 -12.8609,13.8945 -1.6022,5.5761 -3.8885,6.012 -31.5812,6.022 -16.4197,0.011 -46.673,0.6135 -67.2295,1.3501 -20.5565,0.7366 -41.9758,0.2601 -47.5984,-1.059 z"
       id="path18-9" />
    <path
       style="display:inline;fill:#ffffff;stroke-width:1.10049"
       d="m 1259.2599,483.82512 c -0.1242,-0.0363 -0.2038,-0.0688 -0.1791,-0.0726 0.024,-0.002 -1.0844,-1.05984 -2.4645,-2.34744 -6.3967,-5.96771 -10.0749,-10.31993 -12.4903,-14.77892 -1.6636,-3.07113 -2.4083,-5.59661 -2.4956,-8.46398 -0.052,-1.69485 0.068,-2.75008 0.4746,-4.19691 1.2388,-4.40451 5.3629,-8.85601 10.0304,-10.82669 1.4857,-0.62726 3.6711,-1.19979 5.0924,-1.33399 0.3363,-0.0319 0.5644,-0.0845 0.5071,-0.11723 -0.058,-0.033 0.3228,-0.0772 0.8448,-0.0986 1.1445,-0.0471 2.8883,0.0164 2.7431,0.0986 -0.056,0.0327 0.1709,0.085 0.5072,0.1163 1.431,0.1329 3.5944,0.70464 5.1704,1.36637 3.9144,1.64379 7.6473,5.27972 9.3238,9.08196 0.8605,1.95111 1.173,3.62589 1.1033,5.91019 -0.087,2.87416 -0.8307,5.38944 -2.5071,8.48533 -2.3938,4.42173 -6.0792,8.78107 -12.4795,14.76202 -1.3804,1.29005 -2.4929,2.36127 -2.4721,2.38056 0.021,0.0194 -0.026,0.035 -0.1049,0.035 -0.079,0 -0.1957,0.014 -0.2612,0.033 -0.066,0.0183 -0.2203,0.002 -0.3434,-0.0332 z m 2.7038,-4.41278 c 3.4986,-3.35609 5.4143,-5.38032 7.3793,-7.79766 2.6783,-3.29493 4.4109,-6.20751 5.4104,-9.09556 1.3373,-3.86376 1.1316,-7.33907 -0.6269,-10.58271 -1.1614,-2.14269 -3.3021,-4.4471 -5.4643,-5.8824 -0.9983,-0.66269 -3.0101,-1.59891 -4.2041,-1.95653 -4.0082,-1.20031 -8.1532,-0.91482 -11.9642,0.8241 -1.4832,0.67672 -2.6183,1.40826 -3.8133,2.45762 -3.7923,3.33005 -5.5974,7.29395 -5.1969,11.4118 0.5022,5.16291 3.7339,10.61259 10.3007,17.37037 1.9158,1.97166 5.574,5.42875 5.7444,5.42875 0.098,0 1.082,-0.87988 2.4349,-2.17778 z m -4.3664,-13.58753 c -2.8515,-0.68101 -5.032,-2.79138 -5.6507,-5.46876 -0.1718,-0.74338 -0.1731,-2.15645 0,-2.91077 0.5184,-2.29633 2.3238,-4.29715 4.6558,-5.15975 1.0236,-0.3786 1.7827,-0.51407 2.8846,-0.51485 1.1314,-8.2e-4 1.9691,0.14313 2.9546,0.50761 2.6478,0.9794 4.5346,3.30913 4.7808,5.9035 0.134,1.41672 -0.092,2.59856 -0.7326,3.82994 -0.99,1.9021 -2.8379,3.29623 -5.0592,3.81674 -1.1697,0.27404 -2.6738,0.27259 -3.8304,-0.002 z m 3.6198,-1.71431 c 0.9584,-0.26963 1.6913,-0.69184 2.4795,-1.42839 1.1849,-1.10741 1.6967,-2.24595 1.6967,-3.77478 0,-1.54928 -0.5082,-2.66392 -1.7411,-3.81827 -0.6308,-0.59057 -0.8942,-0.77147 -1.5243,-1.04704 -0.9872,-0.43172 -1.5557,-0.55253 -2.599,-0.55253 -1.0449,0 -1.614,0.12126 -2.5957,0.55295 -0.6185,0.27203 -0.9014,0.4657 -1.5341,1.05012 -0.6326,0.58445 -0.8422,0.84578 -1.1367,1.41714 -0.4742,0.9197 -0.601,1.43693 -0.5983,2.43902 0,1.48974 0.5268,2.63972 1.697,3.73339 0.9809,0.91657 2.0212,1.4236 3.3063,1.61112 0.6639,0.0969 1.8604,0.0124 2.5497,-0.18267 z"
       id="path3-5-4" />
    <text
       xml:space="preserve"
       style="font-size:32.0779px;font-family:Century;-inkscape-font-specification:Century;text-align:center;writing-mode:lr-tb;direction:ltr;text-anchor:middle;display:inline;fill:#ffffff;stroke-width:1.20291"
       x="1491.3186"
       y="438.80676"
       id="text25-4-3"
       transform="scale(0.84574335,1.1823918)"><tspan
         id="tspan25-2-1"
         x="1491.3186"
         y="438.80676"
         style="font-style:normal;font-variant:normal;font-weight:normal;font-stretch:normal;font-size:32.0779px;font-family:Tahoma;-inkscape-font-specification:Tahoma;stroke-width:1.20291">Mocohan</tspan></text>
    <path
       style="display:inline;fill:#ffffff;stroke-width:1.10049"
       d="m 619.5898,578.50453 c -0.1242,-0.0363 -0.2038,-0.0688 -0.1791,-0.0726 0.024,-0.002 -1.0844,-1.05984 -2.4645,-2.34744 -6.3967,-5.96771 -10.0749,-10.31993 -12.4903,-14.77892 -1.6636,-3.07113 -2.4083,-5.59661 -2.4956,-8.46398 -0.052,-1.69485 0.068,-2.75008 0.4746,-4.19691 1.2388,-4.40451 5.3629,-8.85601 10.0304,-10.82669 1.4857,-0.62726 3.6711,-1.19979 5.0924,-1.33399 0.3363,-0.0319 0.5644,-0.0845 0.5071,-0.11723 -0.058,-0.033 0.3228,-0.0772 0.8448,-0.0986 1.1445,-0.0471 2.8883,0.0164 2.7431,0.0986 -0.056,0.0327 0.1709,0.085 0.5072,0.1163 1.431,0.1329 3.5944,0.70464 5.1704,1.36637 3.9144,1.64379 7.6473,5.27972 9.3238,9.08196 0.8605,1.95111 1.173,3.62589 1.1033,5.91019 -0.087,2.87416 -0.8307,5.38944 -2.5071,8.48533 -2.3938,4.42173 -6.0792,8.78107 -12.4795,14.76202 -1.3804,1.29005 -2.4929,2.36127 -2.4721,2.38056 0.021,0.0194 -0.026,0.035 -0.1049,0.035 -0.079,0 -0.1957,0.014 -0.2612,0.033 -0.066,0.0183 -0.2203,0.002 -0.3434,-0.0332 z m 2.7038,-4.41278 c 3.4986,-3.35609 5.4143,-5.38032 7.3793,-7.79766 2.6783,-3.29493 4.4109,-6.20751 5.4104,-9.09556 1.3373,-3.86376 1.1316,-7.33907 -0.6269,-10.58271 -1.1614,-2.14269 -3.3021,-4.4471 -5.4643,-5.8824 -0.9983,-0.66269 -3.0101,-1.59891 -4.2041,-1.95653 -4.0082,-1.20031 -8.1532,-0.91482 -11.9642,0.8241 -1.4832,0.67672 -2.6183,1.40826 -3.8133,2.45762 -3.7923,3.33005 -5.5974,7.29395 -5.1969,11.4118 0.5022,5.16291 3.7339,10.61259 10.3007,17.37037 1.9158,1.97166 5.574,5.42875 5.7444,5.42875 0.098,0 1.082,-0.87988 2.4349,-2.17778 z m -4.3664,-13.58753 c -2.8515,-0.68101 -5.032,-2.79138 -5.6507,-5.46876 -0.1718,-0.74338 -0.1731,-2.15645 0,-2.91077 0.5184,-2.29633 2.3238,-4.29715 4.6558,-5.15975 1.0236,-0.3786 1.7827,-0.51407 2.8846,-0.51485 1.1314,-8.2e-4 1.9691,0.14313 2.9546,0.50761 2.6478,0.9794 4.5346,3.30913 4.7808,5.9035 0.134,1.41672 -0.092,2.59856 -0.7326,3.82994 -0.99,1.9021 -2.8379,3.29623 -5.0592,3.81674 -1.1697,0.27404 -2.6738,0.27259 -3.8304,-0.002 z m 3.6198,-1.71431 c 0.9584,-0.26963 1.6913,-0.69184 2.4795,-1.42839 1.1849,-1.10741 1.6967,-2.24595 1.6967,-3.77478 0,-1.54928 -0.5082,-2.66392 -1.7411,-3.81827 -0.6308,-0.59057 -0.8942,-0.77147 -1.5243,-1.04704 -0.9872,-0.43172 -1.5557,-0.55253 -2.599,-0.55253 -1.0449,0 -1.614,0.12126 -2.5957,0.55295 -0.6185,0.27203 -0.9014,0.4657 -1.5341,1.05012 -0.6326,0.58445 -0.8422,0.84578 -1.1367,1.41714 -0.4742,0.9197 -0.601,1.43693 -0.5983,2.43902 0,1.48974 0.5268,2.63972 1.697,3.73339 0.9809,0.91657 2.0212,1.4236 3.3063,1.61112 0.6639,0.0969 1.8604,0.0124 2.5497,-0.18267 z"
       id="path3-5-4-1" />
    <text
       xml:space="preserve"
       style="font-size:32.0779px;font-family:Century;-inkscape-font-specification:Century;text-align:center;writing-mode:lr-tb;direction:ltr;text-anchor:middle;display:inline;fill:#ffffff;stroke-width:1.20291"
       x="734.97784"
       y="519.71686"
       id="text25-4-3-1"
       transform="scale(0.84574335,1.1823918)"><tspan
         id="tspan25-2-1-3"
         x="734.97784"
         y="519.71686"
         style="font-style:normal;font-variant:normal;font-weight:normal;font-stretch:normal;font-size:32.0779px;font-family:Tahoma;-inkscape-font-specification:Tahoma;stroke-width:1.20291">Cola del Mico</tspan></text>
    <path
       style="display:inline;fill:#ffffff;stroke-width:1.10049"
       d="m 913.27031,374.13341 c -0.1242,-0.0363 -0.2038,-0.0688 -0.1791,-0.0726 0.024,-0.002 -1.0844,-1.05984 -2.4645,-2.34744 -6.3967,-5.96771 -10.0749,-10.31993 -12.4903,-14.77892 -1.6636,-3.07113 -2.4083,-5.59661 -2.4956,-8.46398 -0.052,-1.69485 0.068,-2.75008 0.4746,-4.19691 1.2388,-4.40451 5.3629,-8.85601 10.0304,-10.82669 1.4857,-0.62726 3.6711,-1.19979 5.0924,-1.33399 0.3363,-0.0319 0.5644,-0.0845 0.5071,-0.11723 -0.058,-0.033 0.3228,-0.0772 0.8448,-0.0986 1.1445,-0.0471 2.8883,0.0164 2.7431,0.0986 -0.056,0.0327 0.1709,0.085 0.5072,0.1163 1.431,0.1329 3.5944,0.70464 5.1704,1.36637 3.9144,1.64379 7.6473,5.27972 9.3238,9.08196 0.8605,1.95111 1.173,3.62589 1.1033,5.91019 -0.087,2.87416 -0.8307,5.38944 -2.5071,8.48533 -2.3938,4.42173 -6.0792,8.78107 -12.4795,14.76202 -1.3804,1.29005 -2.4929,2.36127 -2.4721,2.38056 0.021,0.0194 -0.026,0.035 -0.1049,0.035 -0.079,0 -0.1957,0.014 -0.2612,0.033 -0.066,0.0183 -0.2203,0.002 -0.3434,-0.0332 z m 2.7038,-4.41278 c 3.4986,-3.35609 5.4143,-5.38032 7.3793,-7.79766 2.6783,-3.29493 4.4109,-6.20751 5.4104,-9.09556 1.3373,-3.86376 1.1316,-7.33907 -0.6269,-10.58271 -1.1614,-2.14269 -3.3021,-4.4471 -5.4643,-5.8824 -0.9983,-0.66269 -3.0101,-1.59891 -4.2041,-1.95653 -4.0082,-1.20031 -8.1532,-0.91482 -11.9642,0.8241 -1.4832,0.67672 -2.6183,1.40826 -3.8133,2.45762 -3.7923,3.33005 -5.5974,7.29395 -5.1969,11.4118 0.5022,5.16291 3.7339,10.61259 10.3007,17.37037 1.9158,1.97166 5.574,5.42875 5.7444,5.42875 0.098,0 1.082,-0.87988 2.4349,-2.17778 z m -4.3664,-13.58753 c -2.8515,-0.68101 -5.032,-2.79138 -5.6507,-5.46876 -0.1718,-0.74338 -0.1731,-2.15645 0,-2.91077 0.5184,-2.29633 2.3238,-4.29715 4.6558,-5.15975 1.0236,-0.3786 1.7827,-0.51407 2.8846,-0.51485 1.1314,-8.2e-4 1.9691,0.14313 2.9546,0.50761 2.6478,0.9794 4.5346,3.30913 4.7808,5.9035 0.134,1.41672 -0.092,2.59856 -0.7326,3.82994 -0.99,1.9021 -2.8379,3.29623 -5.0592,3.81674 -1.1697,0.27404 -2.6738,0.27259 -3.8304,-0.002 z m 3.6198,-1.71431 c 0.9584,-0.26963 1.6913,-0.69184 2.4795,-1.42839 1.1849,-1.10741 1.6967,-2.24595 1.6967,-3.77478 0,-1.54928 -0.5082,-2.66392 -1.7411,-3.81827 -0.6308,-0.59057 -0.8942,-0.77147 -1.5243,-1.04704 -0.9872,-0.43172 -1.5557,-0.55253 -2.599,-0.55253 -1.0449,0 -1.614,0.12126 -2.5957,0.55295 -0.6185,0.27203 -0.9014,0.4657 -1.5341,1.05012 -0.6326,0.58445 -0.8422,0.84578 -1.1367,1.41714 -0.4742,0.9197 -0.601,1.43693 -0.5983,2.43902 0,1.48974 0.5268,2.63972 1.697,3.73339 0.9809,0.91657 2.0212,1.4236 3.3063,1.61112 0.6639,0.0969 1.8604,0.0124 2.5497,-0.18267 z"
       id="path3-5-4-1-7" />
    <text
       xml:space="preserve"
       style="font-size:32.0779px;font-family:Century;-inkscape-font-specification:Century;text-align:center;writing-mode:lr-tb;direction:ltr;text-anchor:middle;display:inline;fill:#ffffff;stroke-width:1.20291"
       x="1082.2233"
       y="346.87134"
       id="text25-4-3-1-7"
       transform="scale(0.84574335,1.1823918)"><tspan
         id="tspan25-2-1-3-9"
         x="1082.2233"
         y="346.87134"
         style="font-style:normal;font-variant:normal;font-weight:normal;font-stretch:normal;font-size:32.0779px;font-family:Tahoma;-inkscape-font-specification:Tahoma;stroke-width:1.20291">Pantin</tspan></text>
    <path
       style="display:inline;fill:#ffffff;stroke-width:1.10049"
       d="m 1052.9596,277.13988 c -0.1242,-0.0363 -0.2038,-0.0688 -0.1791,-0.0726 0.024,-0.002 -1.0844,-1.05984 -2.4645,-2.34744 -6.3967,-5.96771 -10.0749,-10.31993 -12.4903,-14.77892 -1.6636,-3.07113 -2.4083,-5.59661 -2.4956,-8.46398 -0.052,-1.69485 0.068,-2.75008 0.4746,-4.19691 1.2388,-4.40451 5.3629,-8.85601 10.0304,-10.82669 1.4857,-0.62726 3.6711,-1.19979 5.0924,-1.33399 0.3363,-0.0319 0.5644,-0.0845 0.5071,-0.11723 -0.058,-0.033 0.3228,-0.0772 0.8448,-0.0986 1.1445,-0.0471 2.8883,0.0164 2.7431,0.0986 -0.056,0.0327 0.1709,0.085 0.5072,0.1163 1.431,0.1329 3.5944,0.70464 5.1704,1.36637 3.9144,1.64379 7.6473,5.27972 9.3238,9.08196 0.8605,1.95111 1.173,3.62589 1.1033,5.91019 -0.087,2.87416 -0.8307,5.38944 -2.5071,8.48533 -2.3938,4.42173 -6.0792,8.78107 -12.4795,14.76202 -1.3804,1.29005 -2.4929,2.36127 -2.4721,2.38056 0.021,0.0194 -0.026,0.035 -0.1049,0.035 -0.079,0 -0.1957,0.014 -0.2612,0.033 -0.066,0.0183 -0.2203,0.002 -0.3434,-0.0332 z m 2.7038,-4.41278 c 3.4986,-3.35609 5.4143,-5.38032 7.3793,-7.79766 2.6783,-3.29493 4.4109,-6.20751 5.4104,-9.09556 1.3373,-3.86376 1.1316,-7.33907 -0.6269,-10.58271 -1.1614,-2.14269 -3.3021,-4.4471 -5.4643,-5.8824 -0.9983,-0.66269 -3.0101,-1.59891 -4.2041,-1.95653 -4.0082,-1.20031 -8.1532,-0.91482 -11.9642,0.8241 -1.4832,0.67672 -2.6183,1.40826 -3.8133,2.45762 -3.7923,3.33005 -5.5974,7.29395 -5.1969,11.4118 0.5022,5.16291 3.7339,10.61259 10.3007,17.37037 1.9158,1.97166 5.574,5.42875 5.7444,5.42875 0.098,0 1.082,-0.87988 2.4349,-2.17778 z m -4.3664,-13.58753 c -2.8515,-0.68101 -5.032,-2.79138 -5.6507,-5.46876 -0.1718,-0.74338 -0.1731,-2.15645 0,-2.91077 0.5184,-2.29633 2.3238,-4.29715 4.6558,-5.15975 1.0236,-0.3786 1.7827,-0.51407 2.8846,-0.51485 1.1314,-8.2e-4 1.9691,0.14313 2.9546,0.50761 2.6478,0.9794 4.5346,3.30913 4.7808,5.9035 0.134,1.41672 -0.092,2.59856 -0.7326,3.82994 -0.99,1.9021 -2.8379,3.29623 -5.0592,3.81674 -1.1697,0.27404 -2.6738,0.27259 -3.8304,-0.002 z m 3.6198,-1.71431 c 0.9584,-0.26963 1.6913,-0.69184 2.4795,-1.42839 1.1849,-1.10741 1.6967,-2.24595 1.6967,-3.77478 0,-1.54928 -0.5082,-2.66392 -1.7411,-3.81827 -0.6308,-0.59057 -0.8942,-0.77147 -1.5243,-1.04704 -0.9872,-0.43172 -1.5557,-0.55253 -2.599,-0.55253 -1.0449,0 -1.614,0.12126 -2.5957,0.55295 -0.6185,0.27203 -0.9014,0.4657 -1.5341,1.05012 -0.6326,0.58445 -0.8422,0.84578 -1.1367,1.41714 -0.4742,0.9197 -0.601,1.43693 -0.5983,2.43902 0,1.48974 0.5268,2.63972 1.697,3.73339 0.9809,0.91657 2.0212,1.4236 3.3063,1.61112 0.6639,0.0969 1.8604,0.0124 2.5497,-0.18267 z"
       id="path3-5-4-1-7-6" />
    <text
       xml:space="preserve"
       style="font-size:32.0779px;font-family:Century;-inkscape-font-specification:Century;text-align:center;writing-mode:lr-tb;direction:ltr;text-anchor:middle;display:inline;fill:#ffffff;stroke-width:1.20291"
       x="1247.3907"
       y="264.83969"
       id="text25-4-3-1-7-5"
       transform="scale(0.84574335,1.1823918)"><tspan
         id="tspan25-2-1-3-9-0"
         x="1247.3907"
         y="264.83969"
         style="font-style:normal;font-variant:normal;font-weight:normal;font-stretch:normal;font-size:32.0779px;font-family:Tahoma;-inkscape-font-specification:Tahoma;stroke-width:1.20291">El Durazno</tspan></text>
  </g>
</svg>
