<?xml version="1.0" encoding="UTF-8" standalone="no"?>
<!-- Created with Inkscape (http://www.inkscape.org/) -->

<svg
   width="210mm"
   height="297mm"
   viewBox="0 0 210 297"
   version="1.1"
   id="svg1"
   xmlns="http://www.w3.org/2000/svg"
   xmlns:svg="http://www.w3.org/2000/svg">
  <defs
     id="defs1" />
  <g
     id="layer16"
     style="display:inline"
     transform="matrix(0.28109108,0,0,0.27814593,-207.49667,31.291193)">
    <path
       style="display:inline;fill:#0772d2;stroke-width:2.08817"
       d="m 1263.5234,915.46645 c -7.9261,-2.3392 -22.517,-6.76188 -32.4244,-9.82819 -10.9002,-3.37355 -22.3995,-5.59977 -29.1203,-5.63759 -6.1084,-0.0343 -15.7015,-1.28795 -21.3176,-2.78574 -6.7561,-1.80182 -19.3526,-2.72326 -37.228,-2.72326 -18.9996,0 -30.1358,-0.87398 -37.5265,-2.94516 -8.387,-2.35032 -21.4246,-3.01101 -64.5503,-3.27118 -46.89109,-0.28285 -57.21623,-0.87977 -78.04517,-4.51187 -42.80624,-7.46446 -117.44781,-31.54759 -148.31108,-47.85254 -11.20775,-5.9211 -15.15079,-9.45561 -21.01578,-18.83858 -3.97066,-6.3525 -7.21933,-12.23092 -7.21933,-13.06313 0,-0.83223 5.40412,-6.60298 12.00906,-12.82393 6.60495,-6.22093 12.00896,-12.17262 12.00896,-13.22598 0,-1.05335 5.59164,-9.23882 12.42604,-18.18994 14.10868,-18.47845 26.00291,-42.15644 26.00291,-51.76395 0,-5.17283 2.16255,-8.23596 10.66735,-15.10866 11.55844,-9.34054 15.66967,-17.45887 21.60382,-42.66127 2.48177,-10.54005 7.61105,-21.08856 18.94615,-38.96229 16.04167,-25.29545 19.37339,-31.13165 41.45683,-72.62013 7.17513,-13.48011 14.00638,-25.7935 15.18058,-27.3631 1.174,-1.56961 5.16627,-7.28844 8.87157,-12.70852 3.7053,-5.42009 12.46294,-15.25542 19.46129,-21.85626 6.99845,-6.60084 12.72435,-12.76998 12.72435,-13.70916 0,-4.00895 19.88165,-24.38322 26.20615,-26.85533 18.0677,-7.06249 48.8171,-41.10561 79.7261,-88.26628 17.8262,-27.19918 24.1176,-40.66729 40.6466,-87.01332 5.5195,-15.47717 11.6715,-32.11083 13.6705,-36.9637 5.2686,-12.78882 2.1487,-25.25781 -8.9212,-35.65643 -2.6574,-2.49632 -8.6115,-12.64756 -13.2313,-22.5583 -9.6836,-20.77469 -10.3794,-29.58687 -4.7518,-60.18494 5.0534,-27.475345 9.0316,-35.676518 21.0894,-43.478152 12.869,-8.326515 19.0287,-9.351003 33.1482,-5.513156 10.4862,2.850339 12.7202,2.89324 24.2678,0.466021 9.6121,-2.020364 21.0168,-2.445719 46.6955,-1.741521 27.3047,0.748804 35.3228,0.398303 40.8306,-1.78484 21.5334,-8.535388 31.3955,-12.94303 35.6928,-15.952063 2.6516,-1.856697 9.1365,-4.442972 14.4108,-5.747265 7.2049,-1.781717 11.5777,-4.62779 17.5835,-11.444406 4.3965,-4.99011 9.4506,-9.325458 11.2313,-9.63413 4.5775,-0.7934298 22.8065,8.258088 22.8065,11.324455 0,1.40135 -4.4786,5.229175 -9.9525,8.506267 -11.2854,6.756322 -18.1296,16.974845 -21.3324,31.84997 -3.799,17.64384 -14.0083,31.264434 -32.5301,43.39969 -21.7493,14.24977 -34.31,24.15015 -38.6736,30.4827 -6.0245,8.7423 -10.3429,21.61575 -10.3703,30.913 -0.024,4.87252 -2.361,15.29943 -5.2148,23.1709 -4.9674,13.7014 -5.0236,14.76062 -1.3177,24.83657 3.036,8.25403 3.4457,13.71515 1.8992,25.31171 -1.0846,8.13282 -1.4318,20.49803 -0.771,27.47828 0.8661,9.14841 0.1322,14.71042 -2.6271,19.92396 -2.4627,4.65254 -4.2891,15.53588 -5.1199,30.50893 -0.9812,17.6862 -2.7328,26.76448 -7.2926,37.80036 -7.2693,17.59299 -7.3222,19.27501 -1.0345,32.84871 5.0938,10.99574 4.9958,25.88254 -0.2378,36.28946 -1.2033,2.39205 -2.8915,9.5429 -3.7519,15.89075 -2.1618,15.94976 0.375,16.34284 32.4153,5.02254 20.9423,-7.39916 65.7382,-21.60787 82.1281,-26.05 3.4663,-0.93947 3.7237,3.22026 2.6717,43.15251 -0.691,26.22369 -0.029,54.39271 1.6275,69.27954 3.9354,35.36279 7.369,100.87128 8.7373,166.69658 2.109,101.44225 2.2759,103.36596 10.39,119.8232 3.9387,7.98822 10.6309,20.09488 14.8715,26.90371 6.4056,10.2846 7.4634,13.7421 6.2507,20.43022 -2.5392,14.00281 -9.171,21.25703 -25.4178,27.80256 -17.3502,6.99019 -60.8082,18.94248 -83.0519,22.84186 -21.2562,3.72626 -30.8722,3.39364 -47.9965,-1.66019 z"
       id="path10-0" />
    <path
       style="display:inline;fill:#ffffff;stroke-width:1.12103"
       d="m 1198.3187,424.47745 c -0.1243,-0.0376 -0.204,-0.0712 -0.1792,-0.0753 0.024,-0.002 -1.0861,-1.09818 -2.4683,-2.43237 -6.4061,-6.18355 -10.0898,-10.69319 -12.5086,-15.31346 -1.6661,-3.18222 -2.4119,-5.79905 -2.4992,-8.77013 -0.052,-1.75615 0.068,-2.84955 0.4753,-4.34871 1.2406,-4.56384 5.3707,-9.17634 10.0451,-11.21829 1.4878,-0.64996 3.6764,-1.24319 5.0999,-1.38224 0.3368,-0.0331 0.5652,-0.0876 0.5078,-0.12147 -0.058,-0.0341 0.3233,-0.08 0.8461,-0.10214 1.1462,-0.0488 2.8925,0.0169 2.7469,0.10214 -0.056,0.034 0.1713,0.088 0.5081,0.1205 1.4331,0.1377 3.5996,0.73014 5.178,1.4158 3.9201,1.70325 7.6584,5.47068 9.3374,9.41045 0.8617,2.02167 1.1747,3.75704 1.1049,6.12396 -0.087,2.97813 -0.8319,5.58438 -2.5107,8.79225 -2.3974,4.58166 -6.0881,9.09867 -12.4978,15.29597 -1.3823,1.3367 -2.4967,2.44667 -2.4756,2.46666 0.021,0.0201 -0.026,0.0362 -0.1056,0.0362 -0.079,0 -0.1961,0.0145 -0.2616,0.0342 -0.066,0.0189 -0.2206,0.002 -0.3439,-0.0344 z m 2.7078,-4.57238 c 3.5036,-3.47748 5.4221,-5.57492 7.3901,-8.07971 2.6822,-3.4141 4.4174,-6.43204 5.4184,-9.42454 1.3392,-4.00351 1.1332,-7.60453 -0.628,-10.9655 -1.163,-2.22018 -3.3067,-4.60794 -5.4721,-6.09516 -0.9999,-0.68667 -3.0145,-1.65673 -4.2103,-2.0273 -4.0141,-1.24371 -8.1652,-0.9479 -11.9819,0.85392 -1.4854,0.70118 -2.622,1.45919 -3.8188,2.54651 -3.7979,3.45049 -5.6056,7.55777 -5.2045,11.82456 0.5029,5.34965 3.7394,10.99646 10.3158,17.99866 1.9186,2.04297 5.5821,5.62512 5.7527,5.62512 0.098,0 1.0838,-0.91171 2.4386,-2.25656 z m -4.3729,-14.079 c -2.8557,-0.70563 -5.0395,-2.89235 -5.6588,-5.66657 -0.1722,-0.77026 -0.1735,-2.23443 0,-3.01605 0.5189,-2.37938 2.327,-4.45258 4.6624,-5.34638 1.0253,-0.39229 1.7856,-0.53266 2.889,-0.53347 1.1331,-8.4e-4 1.972,0.1483 2.9589,0.52598 2.6518,1.01482 4.5413,3.42882 4.7877,6.11702 0.1344,1.46797 -0.092,2.69256 -0.7337,3.96847 -0.9913,1.97091 -2.8419,3.41546 -5.0664,3.95479 -1.1715,0.28397 -2.6778,0.28246 -3.836,-0.002 z m 3.6252,-1.7763 c 0.9598,-0.2794 1.6937,-0.71688 2.4831,-1.48007 1.1866,-1.14746 1.6992,-2.32719 1.6992,-3.91132 0,-1.60531 -0.509,-2.76028 -1.7436,-3.95638 -0.6319,-0.61191 -0.8956,-0.79936 -1.5266,-1.0849 -0.9886,-0.44734 -1.5581,-0.57251 -2.603,-0.57251 -1.0462,0 -1.6163,0.12565 -2.5993,0.57294 -0.6196,0.28188 -0.9029,0.48255 -1.5364,1.08811 -0.6336,0.60559 -0.8435,0.87636 -1.1384,1.4684 -0.4749,0.95296 -0.6019,1.4889 -0.5992,2.52723 0,1.54364 0.5275,2.73521 1.6995,3.86843 0.9823,0.94973 2.0243,1.47508 3.3112,1.6694 0.6649,0.10046 1.8632,0.0128 2.5535,-0.18928 z"
       id="path3-5-4-1-0-8-7-7-1-3-2-9-9-0-29-25-6-6-0-8-3" />
    <text
       xml:space="preserve"
       style="font-size:33.7856px;font-family:Century;-inkscape-font-specification:Century;text-align:center;writing-mode:lr-tb;direction:ltr;text-anchor:middle;display:inline;fill:#ffffff;stroke-width:1.26694"
       x="1391.8038"
       y="393.76892"
       id="text25-4-3-1-9-9-2-5-4-8-0-8-9-78-52-54-93-3-3-8-0"
       transform="scale(0.85967019,1.1632368)"><tspan
         id="tspan25-2-1-3-0-3-6-4-6-0-1-8-2-1-0-91-5-3-6-7-3"
         x="1391.8038"
         y="393.76892"
         style="font-style:normal;font-variant:normal;font-weight:normal;font-stretch:normal;font-size:33.7856px;font-family:Tahoma;-inkscape-font-specification:Tahoma;stroke-width:1.26694">La Pinada</tspan></text>
    <path
       style="display:inline;fill:#ffffff;stroke-width:1.12103"
       d="m 1106.6957,642.74382 c -0.1243,-0.0376 -0.204,-0.0712 -0.1792,-0.0753 0.024,-0.002 -1.0861,-1.09818 -2.4683,-2.43237 -6.4061,-6.18355 -10.0898,-10.69319 -12.5086,-15.31346 -1.6661,-3.18222 -2.4119,-5.79905 -2.4992,-8.77013 -0.052,-1.75615 0.068,-2.84955 0.4753,-4.34871 1.2406,-4.56384 5.3707,-9.17634 10.0451,-11.21829 1.4878,-0.64996 3.6764,-1.24319 5.0999,-1.38224 0.3368,-0.0331 0.5652,-0.0876 0.5078,-0.12147 -0.058,-0.0341 0.3233,-0.08 0.8461,-0.10214 1.1462,-0.0488 2.8925,0.0169 2.7469,0.10214 -0.056,0.034 0.1713,0.088 0.5081,0.1205 1.4331,0.1377 3.5996,0.73014 5.178,1.4158 3.9201,1.70325 7.6584,5.47068 9.3374,9.41045 0.8617,2.02167 1.1747,3.75704 1.1049,6.12396 -0.087,2.97813 -0.8319,5.58438 -2.5107,8.79225 -2.3974,4.58166 -6.0881,9.09867 -12.4978,15.29597 -1.3823,1.3367 -2.4967,2.44667 -2.4756,2.46666 0.021,0.0201 -0.026,0.0362 -0.1056,0.0362 -0.079,0 -0.1961,0.0145 -0.2616,0.0342 -0.066,0.0189 -0.2206,0.002 -0.3439,-0.0344 z m 2.7078,-4.57238 c 3.5036,-3.47748 5.4221,-5.57492 7.3901,-8.07971 2.6822,-3.4141 4.4174,-6.43204 5.4184,-9.42454 1.3392,-4.00351 1.1332,-7.60453 -0.628,-10.9655 -1.163,-2.22018 -3.3067,-4.60794 -5.4721,-6.09516 -0.9999,-0.68667 -3.0145,-1.65673 -4.2103,-2.0273 -4.0141,-1.24371 -8.1652,-0.9479 -11.9819,0.85392 -1.4854,0.70118 -2.622,1.45919 -3.8188,2.54651 -3.7979,3.45049 -5.6056,7.55777 -5.2045,11.82456 0.5029,5.34965 3.7394,10.99646 10.3158,17.99866 1.9186,2.04297 5.5821,5.62512 5.7527,5.62512 0.098,0 1.0838,-0.91171 2.4386,-2.25656 z m -4.3729,-14.079 c -2.8557,-0.70563 -5.0395,-2.89235 -5.6588,-5.66657 -0.1722,-0.77026 -0.1735,-2.23443 0,-3.01605 0.5189,-2.37938 2.327,-4.45258 4.6624,-5.34638 1.0253,-0.39229 1.7856,-0.53266 2.889,-0.53347 1.1331,-8.4e-4 1.972,0.1483 2.9589,0.52598 2.6518,1.01482 4.5413,3.42882 4.7877,6.11702 0.1344,1.46797 -0.092,2.69256 -0.7337,3.96847 -0.9913,1.97091 -2.8419,3.41546 -5.0664,3.95479 -1.1715,0.28397 -2.6778,0.28246 -3.836,-0.002 z m 3.6252,-1.7763 c 0.9598,-0.2794 1.6937,-0.71688 2.4831,-1.48007 1.1866,-1.14746 1.6992,-2.32719 1.6992,-3.91132 0,-1.60531 -0.509,-2.76028 -1.7436,-3.95638 -0.6319,-0.61191 -0.8956,-0.79936 -1.5266,-1.0849 -0.9886,-0.44734 -1.5581,-0.57251 -2.603,-0.57251 -1.0462,0 -1.6163,0.12565 -2.5993,0.57294 -0.6196,0.28188 -0.9029,0.48255 -1.5364,1.08811 -0.6336,0.60559 -0.8435,0.87636 -1.1384,1.4684 -0.4749,0.95296 -0.6019,1.4889 -0.5992,2.52723 0,1.54364 0.5275,2.73521 1.6995,3.86843 0.9823,0.94973 2.0243,1.47508 3.3112,1.6694 0.6649,0.10046 1.8632,0.0128 2.5535,-0.18928 z"
       id="path3-5-4-1-0-8-7-7-1-3-2-9-9-0-29-25-6-6-0-8-3-7" />
    <text
       xml:space="preserve"
       style="font-size:33.7856px;font-family:Century;-inkscape-font-specification:Century;text-align:center;writing-mode:lr-tb;direction:ltr;text-anchor:middle;display:inline;fill:#ffffff;stroke-width:1.26694"
       x="1285.2246"
       y="581.40601"
       id="text25-4-3-1-9-9-2-5-4-8-0-8-9-78-52-54-93-3-3-8-0-2"
       transform="scale(0.85967019,1.1632368)"><tspan
         id="tspan25-2-1-3-0-3-6-4-6-0-1-8-2-1-0-91-5-3-6-7-3-9"
         x="1285.2246"
         y="581.40601"
         style="font-style:normal;font-variant:normal;font-weight:normal;font-stretch:normal;font-size:33.7856px;font-family:Tahoma;-inkscape-font-specification:Tahoma;stroke-width:1.26694">Monte Blanco</tspan></text>
  </g>
</svg>
