<?xml version="1.0" encoding="UTF-8" standalone="no"?>
<!-- Created with Inkscape (http://www.inkscape.org/) -->

<svg
   width="210mm"
   height="297mm"
   viewBox="0 0 210 297"
   version="1.1"
   id="svg1"
   xmlns="http://www.w3.org/2000/svg"
   xmlns:svg="http://www.w3.org/2000/svg">
  <defs
     id="defs1" />
  <g
     id="layer11"
     transform="matrix(0.18638389,0,0,0.190609,-109.63387,60.00336)">
    <path
       style="display:inline;fill:#0772d2;stroke-width:4.00521"
       d="m 616.19286,749.25009 c 0,-6.71783 51.6858,-120.14485 58.12202,-127.55199 6.17806,-7.10988 87.19259,-30.94616 125.0836,-36.80236 10.75302,-1.66191 21.92382,-5.8361 24.824,-9.27595 4.27856,-5.0748 5.27299,-25.51071 5.27299,-108.36587 V 365.14234 l 8.27468,-1.98151 c 4.55106,-1.08984 14.57482,-2.98486 22.27503,-4.21109 8.47732,-1.35008 19.16451,-7.60754 27.09133,-15.86235 15.91196,-16.5709 28.31986,-23.14888 61.88195,-32.80662 35.7448,-10.28579 59.00324,-14.40567 83.42674,-14.7777 43.221,-0.65831 60.6714,-19.32421 70.9096,-75.84984 3.465,-19.13072 22.4336,-26.53193 58.9664,-23.00798 26.8673,2.59166 31.496,4.50691 53.3257,22.06602 31.1973,25.09393 60.9203,35.46538 82.8599,28.91287 8.8087,-2.6307 30.6568,-4.78311 48.5517,-4.78311 37.267,0 69.782,-8.6528 86,-22.88577 9.9397,-8.72328 15.4065,-9.80571 48.5964,-9.62185 20.5678,0.1139 53.1182,2.83672 72.3339,6.05062 19.2155,3.21394 39.9023,5.63767 45.9703,5.38607 10.2801,-0.42617 51.6689,-13.80096 71.0235,-22.95107 8.2692,-3.90941 8.4395,-3.50798 6.1663,14.54839 -1.2857,10.21276 -0.8057,23.4759 1.0665,29.47361 2.3066,7.38869 1.9073,15.12443 -1.2394,23.99082 -5.3383,15.04391 -3.6489,97.59904 2.5998,127.01695 3.1095,14.63921 2.6703,20.59673 -2.371,32.15975 -4.9243,11.29413 -5.6914,20.54011 -3.7571,45.2808 1.3368,17.09883 3.226,34.43143 4.1984,38.51688 1.2534,5.26642 -2.3018,9.82821 -12.2164,15.6756 -21.9565,12.9496 -84.3692,34.87783 -119.9643,42.14858 -17.8354,3.64307 -46.7967,10.74483 -64.3585,15.78169 -17.5617,5.03685 -46.8248,11.96339 -65.0292,15.39234 -57.1761,10.7697 -113.1746,24.01804 -136.0723,32.19251 -30.0168,10.71604 -67.222,17.09232 -130.5559,22.37502 -29.3291,2.44637 -65.7377,8.23474 -80.9079,12.86305 -15.1703,4.6283 -40.8217,11.21658 -57.0033,14.64065 -16.18165,3.424 -44.3155,9.47318 -62.51984,13.44258 -44.40446,9.6823 -147.05925,27.92637 -185.72035,33.0067 -17.19293,2.25928 -49.46415,7.85342 -71.71381,12.4314 -55.57084,11.43402 -75.39144,13.9299 -75.39144,9.49374 z"
       id="path17-1" />
    <path
       style="display:inline;fill:#ffffff;stroke-width:1.15515"
       d="m 1255.4887,349.11114 c -0.1318,-0.0377 -0.2164,-0.0713 -0.1901,-0.0753 0.026,-0.002 -1.152,-1.09929 -2.6182,-2.43482 -6.795,-6.18984 -10.7023,-10.70406 -13.2681,-15.32902 -1.7673,-3.18545 -2.5584,-5.80493 -2.651,-8.77903 -0.055,-1.75793 0.072,-2.85244 0.5042,-4.35313 1.3159,-4.56846 5.6968,-9.18565 10.6551,-11.22968 1.5782,-0.65061 3.8997,-1.24445 5.4095,-1.38364 0.3573,-0.0331 0.5996,-0.0877 0.5387,-0.12159 -0.062,-0.0342 0.3429,-0.0801 0.8974,-0.10223 1.2158,-0.0489 3.0682,0.017 2.9139,0.10223 -0.059,0.034 0.1816,0.0881 0.5388,0.12063 1.5201,0.13784 3.8183,0.73087 5.4925,1.41723 4.1581,1.70497 8.1236,5.47624 9.9045,9.42 0.914,2.02373 1.246,3.76086 1.172,6.13018 -0.092,2.98115 -0.8825,5.59005 -2.6633,8.80118 -2.5429,4.58631 -6.4578,9.10791 -13.2567,15.31149 -1.4663,1.33806 -2.6482,2.44916 -2.626,2.46916 0.022,0.0201 -0.028,0.0363 -0.112,0.0363 -0.084,0 -0.2079,0.0145 -0.2775,0.0342 -0.07,0.019 -0.234,0.002 -0.3647,-0.0344 z m 2.8722,-4.57703 c 3.7164,-3.481 5.7514,-5.58058 7.8389,-8.0879 2.8452,-3.41757 4.6857,-6.43857 5.7475,-9.43412 1.4205,-4.00757 1.202,-7.61224 -0.6661,-10.97662 -1.2337,-2.22244 -3.5076,-4.61263 -5.8045,-6.10135 -1.0605,-0.68736 -3.1975,-1.65842 -4.4659,-2.02936 -4.2579,-1.24498 -8.661,-0.94887 -12.7094,0.85478 -1.5756,0.7019 -2.7813,1.46068 -4.0508,2.54909 -4.0285,3.454 -5.946,7.56545 -5.5206,11.83657 0.5335,5.35508 3.9665,11.00762 10.9423,18.01694 2.0351,2.04504 5.9211,5.63082 6.1021,5.63082 0.1038,0 1.1495,-0.91263 2.5865,-2.25885 z m -4.6384,-14.09328 c -3.029,-0.70636 -5.3453,-2.89528 -6.0024,-5.67233 -0.1826,-0.77104 -0.1839,-2.2367 0,-3.01911 0.5505,-2.3818 2.4684,-4.4571 4.9456,-5.3518 1.0875,-0.39269 1.8939,-0.53321 3.0643,-0.53402 1.2019,-8.5e-4 2.0918,0.14846 3.1386,0.52651 2.8128,1.01585 4.8171,3.43231 5.0786,6.12323 0.1424,1.46946 -0.098,2.6953 -0.7783,3.97251 -1.0516,1.9729 -3.0145,3.41892 -5.3742,3.9588 -1.2426,0.28425 -2.8403,0.28274 -4.0689,-0.002 z m 3.8453,-1.77812 c 1.0181,-0.27967 1.7966,-0.71759 2.6339,-1.48157 1.2587,-1.14862 1.8024,-2.32954 1.8024,-3.91528 0,-1.60694 -0.5399,-2.76308 -1.8495,-3.96039 -0.6701,-0.61255 -0.9499,-0.80018 -1.6193,-1.08602 -1.0486,-0.44778 -1.6526,-0.57309 -2.7609,-0.57309 -1.1099,0 -1.7145,0.12578 -2.7573,0.57353 -0.6571,0.28216 -0.9576,0.48304 -1.6296,1.08921 -0.6721,0.60621 -0.8947,0.87726 -1.2075,1.4699 -0.5038,0.95392 -0.6385,1.49041 -0.6356,2.52979 0,1.5452 0.5595,2.73798 1.8027,3.87235 1.042,0.9507 2.1471,1.47659 3.5122,1.6711 0.7052,0.10054 1.9763,0.0129 2.7085,-0.18947 z"
       id="path3-5-4-1-0-8-7-7-1-3-2-9-9-0-29-25" />
    <text
       xml:space="preserve"
       style="font-size:34.814px;font-family:Century;-inkscape-font-specification:Century;text-align:center;writing-mode:lr-tb;direction:ltr;text-anchor:middle;display:inline;fill:#ffffff;stroke-width:1.30551"
       x="1416.5385"
       y="337.21512"
       id="text25-4-3-1-9-9-2-5-4-8-0-8-9-78-52-54"
       transform="scale(0.88493995,1.1300202)"><tspan
         id="tspan25-2-1-3-0-3-6-4-6-0-1-8-2-1-0-91"
         x="1416.5385"
         y="337.21512"
         style="font-style:normal;font-variant:normal;font-weight:normal;font-stretch:normal;font-size:34.814px;font-family:Tahoma;-inkscape-font-specification:Tahoma;stroke-width:1.30551">Ribacó</tspan></text>
    <path
       style="display:inline;fill:#ffffff;stroke-width:1.15515"
       d="m 1497.137,353.0927 c -0.1318,-0.0377 -0.2164,-0.0713 -0.1901,-0.0753 0.026,-0.002 -1.152,-1.09929 -2.6182,-2.43482 -6.795,-6.18984 -10.7023,-10.70406 -13.2681,-15.32902 -1.7673,-3.18545 -2.5584,-5.80493 -2.651,-8.77903 -0.055,-1.75793 0.072,-2.85244 0.5042,-4.35313 1.3159,-4.56846 5.6968,-9.18565 10.6551,-11.22968 1.5782,-0.65061 3.8997,-1.24445 5.4095,-1.38364 0.3573,-0.0331 0.5996,-0.0877 0.5387,-0.12159 -0.062,-0.0342 0.3429,-0.0801 0.8974,-0.10223 1.2158,-0.0489 3.0682,0.017 2.9139,0.10223 -0.059,0.034 0.1816,0.0881 0.5388,0.12063 1.5201,0.13784 3.8183,0.73087 5.4925,1.41723 4.1581,1.70497 8.1236,5.47624 9.9045,9.42 0.914,2.02373 1.246,3.76086 1.172,6.13018 -0.092,2.98115 -0.8825,5.59005 -2.6633,8.80118 -2.5429,4.58631 -6.4578,9.10791 -13.2567,15.31149 -1.4663,1.33806 -2.6482,2.44916 -2.626,2.46916 0.022,0.0201 -0.028,0.0363 -0.112,0.0363 -0.084,0 -0.2079,0.0145 -0.2775,0.0342 -0.07,0.019 -0.234,0.002 -0.3647,-0.0344 z m 2.8722,-4.57703 c 3.7164,-3.481 5.7514,-5.58058 7.8389,-8.0879 2.8452,-3.41757 4.6857,-6.43857 5.7475,-9.43412 1.4205,-4.00757 1.202,-7.61224 -0.6661,-10.97662 -1.2337,-2.22244 -3.5076,-4.61263 -5.8045,-6.10135 -1.0605,-0.68736 -3.1975,-1.65842 -4.4659,-2.02936 -4.2579,-1.24498 -8.661,-0.94887 -12.7094,0.85478 -1.5756,0.7019 -2.7813,1.46068 -4.0508,2.54909 -4.0285,3.454 -5.946,7.56545 -5.5206,11.83657 0.5335,5.35508 3.9665,11.00762 10.9423,18.01694 2.0351,2.04504 5.9211,5.63082 6.1021,5.63082 0.1038,0 1.1495,-0.91263 2.5865,-2.25885 z m -4.6384,-14.09328 c -3.029,-0.70636 -5.3453,-2.89528 -6.0024,-5.67233 -0.1826,-0.77104 -0.1839,-2.2367 0,-3.01911 0.5505,-2.3818 2.4684,-4.4571 4.9456,-5.3518 1.0875,-0.39269 1.8939,-0.53321 3.0643,-0.53402 1.2019,-8.5e-4 2.0918,0.14846 3.1386,0.52651 2.8128,1.01585 4.8171,3.43231 5.0786,6.12323 0.1424,1.46946 -0.098,2.6953 -0.7783,3.97251 -1.0516,1.9729 -3.0145,3.41892 -5.3742,3.9588 -1.2426,0.28425 -2.8403,0.28274 -4.0689,-0.002 z m 3.8453,-1.77812 c 1.0181,-0.27967 1.7966,-0.71759 2.6339,-1.48157 1.2587,-1.14862 1.8024,-2.32954 1.8024,-3.91528 0,-1.60694 -0.5399,-2.76308 -1.8495,-3.96039 -0.6701,-0.61255 -0.9499,-0.80018 -1.6193,-1.08602 -1.0486,-0.44778 -1.6526,-0.57309 -2.7609,-0.57309 -1.1099,0 -1.7145,0.12578 -2.7573,0.57353 -0.6571,0.28216 -0.9576,0.48304 -1.6296,1.08921 -0.6721,0.60621 -0.8947,0.87726 -1.2075,1.4699 -0.5038,0.95392 -0.6385,1.49041 -0.6356,2.52979 0,1.5452 0.5595,2.73798 1.8027,3.87235 1.042,0.9507 2.1471,1.47659 3.5122,1.6711 0.7052,0.10054 1.9763,0.0129 2.7085,-0.18947 z"
       id="path3-5-4-1-0-8-7-7-1-3-2-9-9-0-29-25-6" />
    <text
       xml:space="preserve"
       style="font-size:34.814px;font-family:Century;-inkscape-font-specification:Century;text-align:center;writing-mode:lr-tb;direction:ltr;text-anchor:middle;display:inline;fill:#ffffff;stroke-width:1.30551"
       x="1689.606"
       y="340.73859"
       id="text25-4-3-1-9-9-2-5-4-8-0-8-9-78-52-54-93"
       transform="scale(0.88493994,1.1300202)"><tspan
         id="tspan25-2-1-3-0-3-6-4-6-0-1-8-2-1-0-91-5"
         x="1689.606"
         y="340.73859"
         style="font-style:normal;font-variant:normal;font-weight:normal;font-stretch:normal;font-size:34.814px;font-family:Tahoma;-inkscape-font-specification:Tahoma;stroke-width:1.30551">Los Naranjales</tspan></text>
    <path
       style="display:inline;fill:#ffffff;stroke-width:1.15515"
       d="m 984.51838,390.36981 c -0.1318,-0.0377 -0.2164,-0.0713 -0.1901,-0.0753 0.026,-0.002 -1.152,-1.09929 -2.6182,-2.43482 -6.795,-6.18984 -10.7023,-10.70406 -13.2681,-15.32902 -1.7673,-3.18545 -2.5584,-5.80493 -2.651,-8.77903 -0.055,-1.75793 0.072,-2.85244 0.5042,-4.35313 1.3159,-4.56846 5.6968,-9.18565 10.6551,-11.22968 1.5782,-0.65061 3.8997,-1.24445 5.4095,-1.38364 0.3573,-0.0331 0.5996,-0.0877 0.5387,-0.12159 -0.062,-0.0342 0.3429,-0.0801 0.8974,-0.10223 1.2158,-0.0489 3.06823,0.017 2.91393,0.10223 -0.059,0.034 0.1816,0.0881 0.5388,0.12063 1.5201,0.13784 3.8183,0.73087 5.4925,1.41723 4.1581,1.70497 8.12359,5.47624 9.90449,9.42 0.914,2.02373 1.246,3.76086 1.172,6.13018 -0.092,2.98115 -0.8825,5.59005 -2.6633,8.80118 -2.54289,4.58631 -6.45779,9.10791 -13.25669,15.31149 -1.4663,1.33806 -2.6482,2.44916 -2.626,2.46916 0.022,0.0201 -0.028,0.0363 -0.112,0.0363 -0.084,0 -0.20793,0.0145 -0.27753,0.0342 -0.07,0.019 -0.234,0.002 -0.3647,-0.0344 z m 2.87223,-4.57703 c 3.7164,-3.481 5.7514,-5.58058 7.8389,-8.0879 2.8452,-3.41757 4.6857,-6.43857 5.74749,-9.43412 1.4205,-4.00757 1.202,-7.61224 -0.6661,-10.97662 -1.23369,-2.22244 -3.50759,-4.61263 -5.80449,-6.10135 -1.0605,-0.68736 -3.1975,-1.65842 -4.4659,-2.02936 -4.2579,-1.24498 -8.66103,-0.94887 -12.70943,0.85478 -1.5756,0.7019 -2.7813,1.46068 -4.0508,2.54909 -4.0285,3.454 -5.946,7.56545 -5.5206,11.83657 0.5335,5.35508 3.9665,11.00762 10.9423,18.01694 2.0351,2.04504 5.9211,5.63082 6.1021,5.63082 0.1038,0 1.14953,-0.91263 2.58653,-2.25885 z m -4.63843,-14.09328 c -3.029,-0.70636 -5.3453,-2.89528 -6.0024,-5.67233 -0.1826,-0.77104 -0.1839,-2.2367 0,-3.01911 0.5505,-2.3818 2.4684,-4.4571 4.9456,-5.3518 1.0875,-0.39269 1.8939,-0.53321 3.0643,-0.53402 1.20193,-8.5e-4 2.09183,0.14846 3.13863,0.52651 2.8128,1.01585 4.8171,3.43231 5.0786,6.12323 0.1424,1.46946 -0.098,2.6953 -0.7783,3.97251 -1.0516,1.9729 -3.0145,3.41892 -5.3742,3.9588 -1.2426,0.28425 -2.84033,0.28274 -4.06893,-0.002 z m 3.84533,-1.77812 c 1.0181,-0.27967 1.7966,-0.71759 2.6339,-1.48157 1.2587,-1.14862 1.8024,-2.32954 1.8024,-3.91528 0,-1.60694 -0.5399,-2.76308 -1.8495,-3.96039 -0.6701,-0.61255 -0.9499,-0.80018 -1.6193,-1.08602 -1.0486,-0.44778 -1.6526,-0.57309 -2.76093,-0.57309 -1.1099,0 -1.7145,0.12578 -2.7573,0.57353 -0.6571,0.28216 -0.9576,0.48304 -1.6296,1.08921 -0.6721,0.60621 -0.8947,0.87726 -1.2075,1.4699 -0.5038,0.95392 -0.6385,1.49041 -0.6356,2.52979 0,1.5452 0.5595,2.73798 1.8027,3.87235 1.042,0.9507 2.1471,1.47659 3.5122,1.6711 0.7052,0.10054 1.97633,0.0129 2.70853,-0.18947 z"
       id="path3-5-4-1-0-8-7-7-1-3-2-9-9-0-29-25-3" />
    <text
       xml:space="preserve"
       style="font-size:34.814px;font-family:Century;-inkscape-font-specification:Century;text-align:center;writing-mode:lr-tb;direction:ltr;text-anchor:middle;display:inline;fill:#ffffff;stroke-width:1.30551"
       x="1110.3365"
       y="373.72656"
       id="text25-4-3-1-9-9-2-5-4-8-0-8-9-78-52-54-9"
       transform="scale(0.88493994,1.1300202)"><tspan
         id="tspan25-2-1-3-0-3-6-4-6-0-1-8-2-1-0-91-6"
         x="1110.3365"
         y="373.72656"
         style="font-style:normal;font-variant:normal;font-weight:normal;font-stretch:normal;font-size:34.814px;font-family:Tahoma;-inkscape-font-specification:Tahoma;stroke-width:1.30551">Olimpia</tspan></text>
  </g>
</svg>
