<?xml version="1.0" encoding="UTF-8" standalone="no"?>
<!-- Created with Inkscape (http://www.inkscape.org/) -->

<svg
   width="210mm"
   height="297mm"
   viewBox="0 0 210 297"
   version="1.1"
   id="svg1"
   xmlns="http://www.w3.org/2000/svg"
   xmlns:svg="http://www.w3.org/2000/svg">
  <defs
     id="defs1" />
  <g
     id="layer8"
     style="display:inline"
     transform="matrix(0.22744325,0,0,0.22920762,-157.96607,52.272604)">
    <path
       style="display:inline;fill:#0772d2;stroke-width:1.84086"
       d="m 838.62067,699.26565 c -7.63008,-2.69205 -8.43342,-3.49339 -14.06161,-14.02647 -7.6461,-14.30963 -21.94474,-68.4069 -31.29172,-118.38865 -5.42402,-29.00427 -14.99065,-57.14842 -30.70119,-90.32013 -7.43348,-15.69525 -15.35386,-34.65308 -17.60089,-42.12851 -2.24703,-7.47543 -6.78108,-18.94935 -10.07569,-25.49758 -7.67589,-15.25635 -8.91634,-22.07153 -6.35935,-34.93914 2.43569,-12.25719 -0.11618,-27.75288 -5.55049,-33.70447 -1.86193,-2.03913 -3.87565,-6.89761 -4.47493,-10.79662 -1.17376,-7.63656 -0.23299,-8.90192 16.5012,-22.19478 3.78882,-3.00964 8.41824,-7.95516 10.28761,-10.99005 4.19208,-6.80565 4.50016,-21.72642 0.63758,-30.87885 -1.52633,-3.61664 -2.77514,-9.01104 -2.77514,-11.98752 0,-4.50651 1.00584,-5.72007 6.01279,-7.25461 11.44226,-3.50681 19.03533,-4.5548 35.61425,-4.91548 9.15795,-0.19923 22.06233,-1.41004 28.6764,-2.69067 10.88412,-2.10743 13.16706,-1.97689 24.05118,1.37526 l 12.02558,3.7037 -0.10657,18.98594 c -0.0803,14.30147 -0.98056,21.10759 -3.64876,27.58498 -3.15032,7.64775 -3.27992,9.5728 -1.17143,17.4009 4.38646,16.28535 13.71628,21.71254 40.07849,23.31379 7.67409,0.46613 16.7196,2.41785 22.20109,4.79027 5.08775,2.20202 16.1844,6.80381 24.65925,10.22624 8.47483,3.42242 18.09386,8.2502 21.37561,10.7284 8.9569,6.76375 17.77596,9.83782 31.88936,11.11568 16.65381,1.50789 22.70201,3.29357 40.48161,11.9521 8.1404,3.96429 21.444,9.72852 29.5637,12.80936 l 14.763,5.60151 16.6885,-2.98238 c 9.1787,-1.64032 20.8512,-4.20445 25.939,-5.69807 12.3993,-3.64012 42.7682,-8.94514 72.1535,-12.60423 46.9021,-5.84027 74.8832,-11.23103 104.5301,-20.13847 22.6472,-6.80439 61.9877,-8.60852 78.6288,-3.60585 19.6069,5.89424 57.3752,2.33018 76.2919,-7.19934 8.3425,-4.20276 11.2283,-4.51075 54.1395,-5.77849 62.4446,-1.84483 81.2616,-1.77467 88.8044,0.33104 l 6.4752,1.80775 -16.6508,7.64935 c -9.1579,4.20713 -17.8996,8.49171 -19.4259,9.52126 -1.5263,1.02956 -7.7704,4.09379 -13.8757,6.80938 -6.1053,2.71558 -16.512,7.78756 -23.1261,11.27106 -6.6141,3.48347 -16.1883,8.35961 -21.2761,10.83585 -5.0877,2.47622 -11.748,6.30939 -14.8007,8.51815 -3.0526,2.20874 -10.9617,7.12151 -17.5758,10.91723 -18.8463,10.81564 -38.4259,24.96547 -77.7038,56.15511 -13.2989,10.56029 -33.0039,24.42099 -45.1477,31.75738 -3.1514,1.90383 -10.3834,6.60321 -16.0711,10.44307 -5.6878,3.83989 -14.4582,8.58812 -19.4898,10.55167 -5.0317,1.96354 -14.5312,6.44845 -21.1102,9.96645 -6.579,3.51803 -15.1307,7.38845 -19.0038,8.60096 -3.8731,1.21249 -14.2796,5.86081 -23.1254,10.32958 -8.8459,4.46877 -21.586,9.74749 -28.3115,11.73048 -8.9206,2.63025 -17.9282,7.60724 -33.3024,18.40063 -42.7231,29.99382 -112.5292,58.47042 -143.3315,58.47042 -10.5361,0 -12.4584,-0.68441 -25.3808,-9.03628 -18.56526,-11.99887 -25.52813,-13.86267 -35.38638,-9.4721 -8.03307,3.5777 -26.23916,21.59383 -44.76088,44.29383 -17.1224,20.98501 -25.32626,26.79294 -49.34843,34.93625 -22.4542,7.61182 -34.09795,8.70073 -46.44704,4.34371 z"
       id="path13-8" />
    <path
       style="display:inline;fill:#ffffff;stroke-width:1.00709"
       d="m 834.03243,388.1258 c -0.1131,-0.0334 -0.1856,-0.0632 -0.1631,-0.0667 0.022,-0.002 -0.988,-0.97424 -2.2454,-2.15785 -5.8277,-5.48571 -9.1787,-9.48641 -11.3792,-13.58526 -1.5157,-2.82308 -2.1942,-5.14458 -2.2736,-7.78036 -0.047,-1.55796 0.062,-2.52796 0.4324,-3.85794 1.1286,-4.04877 4.8858,-8.14073 9.1382,-9.95224 1.3535,-0.5766 3.3445,-1.10289 4.6394,-1.22625 0.3064,-0.0293 0.5142,-0.0777 0.462,-0.10776 -0.053,-0.0303 0.2941,-0.071 0.7696,-0.0906 1.0427,-0.0433 2.6314,0.0151 2.4991,0.0906 -0.051,0.0301 0.1557,0.0781 0.4621,0.10691 1.3037,0.12216 3.27469,0.64773 4.71049,1.25601 3.5662,1.51102 6.9671,4.85329 8.4945,8.34843 0.7839,1.79352 1.0686,3.33304 1.0051,5.43284 -0.079,2.64202 -0.7568,4.95415 -2.2841,7.79999 -2.1809,4.0646 -5.5384,8.07184 -11.36939,13.56973 -1.2576,1.18585 -2.2712,2.17055 -2.2522,2.18828 0.019,0.0178 -0.024,0.0322 -0.096,0.0322 -0.072,0 -0.1783,0.0129 -0.238,0.0303 -0.06,0.0168 -0.2007,0.002 -0.3128,-0.0305 z m 2.4633,-4.05637 c 3.18729,-3.08502 4.93259,-4.94576 6.72289,-7.16786 2.4401,-3.0288 4.0186,-5.70614 4.9292,-8.36093 1.2183,-3.55169 1.0309,-6.74631 -0.5712,-9.72797 -1.0581,-1.96963 -3.0083,-4.08792 -4.9782,-5.40729 -0.9095,-0.60917 -2.7423,-1.46977 -3.83009,-1.79851 -3.6517,-1.10336 -7.428,-0.84093 -10.9,0.75754 -1.3513,0.62206 -2.3854,1.29452 -3.4741,2.25912 -3.455,3.06109 -5.0995,6.70484 -4.7347,10.4901 0.4576,4.74591 3.4018,9.75544 9.3845,15.96741 1.7454,1.81241 5.0782,4.99028 5.2334,4.99028 0.089,0 0.9858,-0.80881 2.2183,-2.00189 z m -3.9781,-12.49009 c -2.5978,-0.62601 -4.5843,-2.56593 -5.1479,-5.02707 -0.1566,-0.68333 -0.1577,-1.98227 0,-2.67567 0.4722,-2.11086 2.117,-3.95008 4.2416,-4.74301 0.9326,-0.34802 1.6242,-0.47255 2.628,-0.47327 1.0308,-7.5e-4 1.794,0.13157 2.6918,0.46662 2.4123,0.90029 4.13129,3.04186 4.35559,5.42668 0.1221,1.3023 -0.084,2.38869 -0.6675,3.52061 -0.9019,1.74847 -2.58539,3.03 -4.60909,3.50847 -1.0657,0.25191 -2.436,0.25057 -3.4897,-0.002 z m 3.2979,-1.57585 c 0.8731,-0.24786 1.5408,-0.63596 2.2589,-1.31303 1.0795,-1.01796 1.54579,-2.06455 1.54579,-3.4699 0,-1.42414 -0.46299,-2.44876 -1.58619,-3.50987 -0.5747,-0.54287 -0.8147,-0.70916 -1.3888,-0.96248 -0.8993,-0.39685 -1.4173,-0.5079 -2.3678,-0.5079 -0.9519,0 -1.4704,0.11147 -2.3648,0.50829 -0.5635,0.25006 -0.8212,0.42809 -1.3976,0.9653 -0.5764,0.53725 -0.7673,0.77747 -1.0356,1.30269 -0.432,0.84541 -0.5476,1.32087 -0.5451,2.24202 0,1.36942 0.4799,2.42652 1.5461,3.43185 0.8936,0.84255 1.8414,1.30862 3.0122,1.481 0.6048,0.0891 1.6949,0.0114 2.3229,-0.16792 z"
       id="path3-5-4-1-0-8-7-7-1-3-2-9-9-8" />
    <text
       xml:space="preserve"
       style="font-size:29.3555px;font-family:Century;-inkscape-font-specification:Century;text-align:center;writing-mode:lr-tb;direction:ltr;text-anchor:middle;display:inline;fill:#ffffff;stroke-width:1.10082"
       x="994.37006"
       y="349.71222"
       id="text25-4-3-1-9-9-2-5-4-8-0-8-9-0"
       transform="scale(0.84197048,1.1876901)"><tspan
         id="tspan25-2-1-3-0-3-6-4-6-0-1-8-2-6"
         x="994.37006"
         y="349.71222"
         style="font-style:normal;font-variant:normal;font-weight:normal;font-stretch:normal;font-size:29.3555px;font-family:Tahoma;-inkscape-font-specification:Tahoma;stroke-width:1.10082">Peña del Angel</tspan></text>
    <path
       style="display:inline;fill:#ffffff;stroke-width:1.00709"
       d="m 1051.6533,431.50989 c -0.1131,-0.0334 -0.1856,-0.0632 -0.1631,-0.0667 0.022,-0.002 -0.988,-0.97424 -2.2454,-2.15785 -5.8277,-5.48571 -9.1787,-9.48641 -11.3792,-13.58526 -1.5157,-2.82308 -2.1942,-5.14458 -2.2736,-7.78036 -0.047,-1.55796 0.062,-2.52796 0.4324,-3.85794 1.1286,-4.04877 4.8858,-8.14073 9.1382,-9.95224 1.3535,-0.5766 3.3445,-1.10289 4.6394,-1.22625 0.3064,-0.0293 0.5142,-0.0777 0.462,-0.10776 -0.053,-0.0303 0.2941,-0.071 0.7696,-0.0906 1.0427,-0.0433 2.6314,0.0151 2.4991,0.0906 -0.051,0.0301 0.1557,0.0781 0.4621,0.10691 1.3037,0.12216 3.2747,0.64773 4.7105,1.25601 3.5662,1.51102 6.9671,4.85329 8.4945,8.34843 0.7839,1.79352 1.0686,3.33304 1.0051,5.43284 -0.079,2.64202 -0.7568,4.95415 -2.2841,7.79999 -2.1809,4.0646 -5.5384,8.07184 -11.3694,13.56973 -1.2576,1.18585 -2.2712,2.17055 -2.2522,2.18828 0.019,0.0178 -0.024,0.0322 -0.096,0.0322 -0.072,0 -0.1783,0.0129 -0.238,0.0303 -0.06,0.0168 -0.2007,0.002 -0.3128,-0.0305 z m 2.4633,-4.05637 c 3.1873,-3.08502 4.9326,-4.94576 6.7229,-7.16786 2.4401,-3.0288 4.0186,-5.70614 4.9292,-8.36093 1.2183,-3.55169 1.0309,-6.74631 -0.5712,-9.72797 -1.0581,-1.96963 -3.0083,-4.08792 -4.9782,-5.40729 -0.9095,-0.60917 -2.7423,-1.46977 -3.8301,-1.79851 -3.6517,-1.10336 -7.428,-0.84093 -10.9,0.75754 -1.3513,0.62206 -2.3854,1.29452 -3.4741,2.25912 -3.455,3.06109 -5.0995,6.70484 -4.7347,10.4901 0.4576,4.74591 3.4018,9.75544 9.3845,15.96741 1.7454,1.81241 5.0782,4.99028 5.2334,4.99028 0.089,0 0.9858,-0.80881 2.2183,-2.00189 z m -3.9781,-12.49009 c -2.5978,-0.62601 -4.5843,-2.56593 -5.1479,-5.02707 -0.1566,-0.68333 -0.1577,-1.98227 0,-2.67567 0.4722,-2.11086 2.117,-3.95008 4.2416,-4.74301 0.9326,-0.34802 1.6242,-0.47255 2.628,-0.47327 1.0308,-7.5e-4 1.794,0.13157 2.6918,0.46662 2.4123,0.90029 4.1313,3.04186 4.3556,5.42668 0.1221,1.3023 -0.084,2.38869 -0.6675,3.52061 -0.9019,1.74847 -2.5854,3.03 -4.6091,3.50847 -1.0657,0.25191 -2.436,0.25057 -3.4897,-0.002 z m 3.2979,-1.57585 c 0.8731,-0.24786 1.5408,-0.63596 2.2589,-1.31303 1.0795,-1.01796 1.5458,-2.06455 1.5458,-3.4699 0,-1.42414 -0.463,-2.44876 -1.5862,-3.50987 -0.5747,-0.54287 -0.8147,-0.70916 -1.3888,-0.96248 -0.8993,-0.39685 -1.4173,-0.5079 -2.3678,-0.5079 -0.9519,0 -1.4704,0.11147 -2.3648,0.50829 -0.5635,0.25006 -0.8212,0.42809 -1.3976,0.9653 -0.5764,0.53725 -0.7673,0.77747 -1.0356,1.30269 -0.432,0.84541 -0.5476,1.32087 -0.5451,2.24202 0,1.36942 0.4799,2.42652 1.5461,3.43185 0.8936,0.84255 1.8414,1.30862 3.0122,1.481 0.6048,0.0891 1.6949,0.0114 2.3229,-0.16792 z"
       id="path3-5-4-1-0-8-7-7-1-3-2-9-9" />
    <text
       xml:space="preserve"
       style="font-size:29.3555px;font-family:Century;-inkscape-font-specification:Century;text-align:center;writing-mode:lr-tb;direction:ltr;text-anchor:middle;display:inline;fill:#ffffff;stroke-width:1.10082"
       x="1252.8363"
       y="386.24033"
       id="text25-4-3-1-9-9-2-5-4-8-0-8-9"
       transform="scale(0.84197048,1.1876901)"><tspan
         id="tspan25-2-1-3-0-3-6-4-6-0-1-8-2"
         x="1252.8363"
         y="386.24033"
         style="font-style:normal;font-variant:normal;font-weight:normal;font-stretch:normal;font-size:29.3555px;font-family:Tahoma;-inkscape-font-specification:Tahoma;stroke-width:1.10082">Panimá</tspan></text>
    <path
       style="display:inline;fill:#ffffff;stroke-width:1.00709"
       d="m 911.07743,571.31141 c -0.1131,-0.0334 -0.1856,-0.0632 -0.1631,-0.0667 0.022,-0.002 -0.988,-0.97424 -2.2454,-2.15785 -5.8277,-5.48571 -9.1787,-9.48641 -11.3792,-13.58526 -1.5157,-2.82308 -2.1942,-5.14458 -2.2736,-7.78036 -0.047,-1.55796 0.062,-2.52796 0.4324,-3.85794 1.1286,-4.04877 4.8858,-8.14073 9.1382,-9.95224 1.3535,-0.5766 3.3445,-1.10289 4.6394,-1.22625 0.3064,-0.0293 0.5142,-0.0777 0.462,-0.10776 -0.053,-0.0303 0.2941,-0.071 0.7696,-0.0906 1.0427,-0.0433 2.6314,0.0151 2.4991,0.0906 -0.051,0.0301 0.1557,0.0781 0.4621,0.10691 1.3037,0.12216 3.27469,0.64773 4.71049,1.25601 3.5662,1.51102 6.9671,4.85329 8.4945,8.34843 0.7839,1.79352 1.0686,3.33304 1.0051,5.43284 -0.079,2.64202 -0.7568,4.95415 -2.2841,7.79999 -2.1809,4.0646 -5.5384,8.07184 -11.36939,13.56973 -1.2576,1.18585 -2.2712,2.17055 -2.2522,2.18828 0.019,0.0178 -0.024,0.0322 -0.096,0.0322 -0.072,0 -0.1783,0.0129 -0.238,0.0303 -0.06,0.0168 -0.2007,0.002 -0.3128,-0.0305 z m 2.4633,-4.05637 c 3.18729,-3.08502 4.93259,-4.94576 6.72289,-7.16786 2.4401,-3.0288 4.0186,-5.70614 4.9292,-8.36093 1.2183,-3.55169 1.0309,-6.74631 -0.5712,-9.72797 -1.0581,-1.96963 -3.0083,-4.08792 -4.9782,-5.40729 -0.9095,-0.60917 -2.7423,-1.46977 -3.83009,-1.79851 -3.6517,-1.10336 -7.428,-0.84093 -10.9,0.75754 -1.3513,0.62206 -2.3854,1.29452 -3.4741,2.25912 -3.455,3.06109 -5.0995,6.70484 -4.7347,10.4901 0.4576,4.74591 3.4018,9.75544 9.3845,15.96741 1.7454,1.81241 5.0782,4.99028 5.2334,4.99028 0.089,0 0.9858,-0.80881 2.2183,-2.00189 z m -3.9781,-12.49009 c -2.5978,-0.62601 -4.5843,-2.56593 -5.1479,-5.02707 -0.1566,-0.68333 -0.1577,-1.98227 0,-2.67567 0.4722,-2.11086 2.117,-3.95008 4.2416,-4.74301 0.9326,-0.34802 1.6242,-0.47255 2.628,-0.47327 1.0308,-7.5e-4 1.794,0.13157 2.6918,0.46662 2.4123,0.90029 4.13129,3.04186 4.35559,5.42668 0.1221,1.3023 -0.084,2.38869 -0.6675,3.52061 -0.9019,1.74847 -2.58539,3.03 -4.60909,3.50847 -1.0657,0.25191 -2.436,0.25057 -3.4897,-0.002 z m 3.2979,-1.57585 c 0.8731,-0.24786 1.5408,-0.63596 2.2589,-1.31303 1.0795,-1.01796 1.54579,-2.06455 1.54579,-3.4699 0,-1.42414 -0.46299,-2.44876 -1.58619,-3.50987 -0.5747,-0.54287 -0.8147,-0.70916 -1.3888,-0.96248 -0.8993,-0.39685 -1.4173,-0.5079 -2.3678,-0.5079 -0.9519,0 -1.4704,0.11147 -2.3648,0.50829 -0.5635,0.25006 -0.8212,0.42809 -1.3976,0.9653 -0.5764,0.53725 -0.7673,0.77747 -1.0356,1.30269 -0.432,0.84541 -0.5476,1.32087 -0.5451,2.24202 0,1.36942 0.4799,2.42652 1.5461,3.43185 0.8936,0.84255 1.8414,1.30862 3.0122,1.481 0.6048,0.0891 1.6949,0.0114 2.3229,-0.16792 z"
       id="path3-5-4-1-0-8-7-7-1-3-2-9-9-3" />
    <text
       xml:space="preserve"
       style="font-size:29.3555px;font-family:Century;-inkscape-font-specification:Century;text-align:center;writing-mode:lr-tb;direction:ltr;text-anchor:middle;display:inline;fill:#ffffff;stroke-width:1.10082"
       x="1077.0317"
       y="506.03894"
       id="text25-4-3-1-9-9-2-5-4-8-0-8-9-7"
       transform="scale(0.84197048,1.1876901)"><tspan
         id="tspan25-2-1-3-0-3-6-4-6-0-1-8-2-4"
         x="1077.0317"
         y="506.03894"
         style="font-style:normal;font-variant:normal;font-weight:normal;font-stretch:normal;font-size:29.3555px;font-family:Tahoma;-inkscape-font-specification:Tahoma;stroke-width:1.10082">El Pacayal</tspan></text>
  </g>
</svg>
