<?xml version="1.0" encoding="UTF-8" standalone="no"?>
<!-- Created with Inkscape (http://www.inkscape.org/) -->

<svg
   width="210mm"
   height="297mm"
   viewBox="0 0 210 297"
   version="1.1"
   id="svg1"
   xmlns="http://www.w3.org/2000/svg"
   xmlns:svg="http://www.w3.org/2000/svg">
  <defs
     id="defs1" />
  <g
     id="layer15"
     transform="matrix(0.23270773,0,0,0.24008645,-140.63007,61.017133)">
    <path
       style="display:inline;fill:#0772d2;stroke-width:2.85444"
       d="m 760.06767,907.24385 c -5.21962,-2.36389 -15.57405,-8.82284 -23.00961,-14.35323 -12.34896,-9.18449 -61.55402,-30.8079 -85.70119,-37.66166 -5.45433,-1.54804 -9.86728,-4.32372 -9.80718,-6.16816 0.11389,-3.5039 17.49486,-44.41277 34.80055,-81.9109 12.99018,-28.1471 36.79031,-82.23405 44.20184,-100.45039 16.13776,-39.66473 15.46426,-38.89127 44.36034,-50.95956 14.53454,-6.07031 38.60832,-16.61928 53.49685,-23.44215 57.70892,-26.44574 76.39986,-33.78456 131.21553,-51.52057 68.3354,-22.11042 84.0768,-29.10403 84.0768,-37.35369 0,-8.11579 -17.2602,-26.90221 -27.7854,-30.24213 -17.67106,-5.60755 -68.55779,-12.53325 -91.93878,-12.51285 -13.31569,0.0129 -36.31043,1.12394 -51.09931,2.47178 -14.7889,1.34783 -46.85911,3.64798 -71.26725,5.1114 -40.5554,2.43158 -46.25331,2.22413 -66.14887,-2.40834 -28.92232,-6.73429 -46.06098,-16.40259 -46.06098,-25.98377 0,-10.84159 5.17723,-19.87761 19.20532,-33.5195 7.98979,-7.77002 17.01464,-13.46035 24.41478,-15.39425 6.4565,-1.68737 13.87467,-4.52782 16.48447,-6.31215 2.6098,-1.78431 11.86274,-6.32204 20.56209,-10.08383 8.69934,-3.76179 39.30522,-17.61132 68.01305,-30.77676 28.70784,-13.16544 105.11655,-45.28079 169.79665,-71.36745 77.91653,-31.42488 117.68063,-48.79226 117.83663,-51.4663 0.3197,-5.4686 -12.7143,-25.71198 -41.3484,-64.21876 -28.3371,-38.10776 -51.3619,-72.019837 -49.7347,-73.252415 1.5088,-1.143228 66.0758,-10.941236 86.574,-13.137648 8.6992,-0.932153 29.3405,-4.395502 45.8692,-7.696328 16.5287,-3.300851 45.725,-8.304903 64.8807,-11.120089 28.692,-4.216778 81.76,-16.579722 106.7213,-24.862319 6.1981,-2.05658 5.7906,2.508709 -2.6429,29.618413 -2.4239,7.791344 -7.2303,39.665023 -10.6815,70.830406 -4.3776,39.53109 -9.0844,66.00973 -15.5666,87.57212 -18.0145,59.923 -25.8262,142.4495 -14.3675,151.77944 2.7341,2.22611 5.6271,4.04746 6.4283,4.04746 6.4047,0 31.3471,-11.58525 70.4951,-32.7432 51.2785,-27.71392 121.3714,-62.7563 122.9525,-61.46896 1.2166,0.99057 -8.4903,13.84502 -26.9747,35.72096 -31.7636,37.59174 -37.1822,45.5343 -52.9233,77.57532 -20.985,42.71457 -41.2482,81.02596 -59.4516,112.40391 -22.5614,38.89029 -24.6634,43.66395 -29.3181,66.58088 -4.4193,21.75879 -20.3229,54.34487 -26.5229,54.34487 -8.8803,0 -15.9846,10.51857 -16.0918,23.82477 -0.1455,17.95685 -12.8482,43.65272 -38.1171,77.10074 -33.1612,43.89509 -40.1995,51.03789 -50.292,51.03789 -33.116,0 -214.31773,60.40038 -273.18793,91.06234 -36.65968,19.09379 -66.19791,33.16285 -80.25667,38.22632 -19.97623,7.19464 -59.29347,8.87355 -72.08973,3.07834 z"
       id="path11-3" />
    <path
       style="display:inline;fill:#ffffff;stroke-width:1.12103"
       d="m 793.54737,412.03106 c -0.12433,-0.0376 -0.20403,-0.0712 -0.17922,-0.0753 0.0243,-0.002 -1.08609,-1.09818 -2.46829,-2.43237 -6.40608,-6.18355 -10.08973,-10.69319 -12.50862,-15.31346 -1.6661,-3.18222 -2.41185,-5.79905 -2.49914,-8.77013 -0.0517,-1.75615 0.0681,-2.84955 0.47524,-4.34871 1.24065,-4.56384 5.37073,-9.17634 10.04511,-11.21829 1.48782,-0.64996 3.67644,-1.24319 5.0999,-1.38224 0.33682,-0.0331 0.56521,-0.0876 0.50782,-0.12147 -0.0579,-0.0341 0.32327,-0.08 0.84612,-0.10214 1.14615,-0.0488 2.89249,0.0169 2.74694,0.10214 -0.0564,0.034 0.17123,0.088 0.50805,0.1205 1.43309,0.1377 3.59964,0.73014 5.17797,1.4158 3.92009,1.70325 7.65847,5.47068 9.33748,9.41045 0.86163,2.02167 1.17465,3.75704 1.10489,6.12396 -0.087,2.97813 -0.83195,5.58438 -2.51073,8.79225 -2.39744,4.58166 -6.08813,9.09867 -12.49782,15.29597 -1.38228,1.3367 -2.49664,2.44667 -2.47557,2.46666 0.0211,0.0201 -0.0258,0.0362 -0.10562,0.0362 -0.079,0 -0.19605,0.0145 -0.26158,0.0342 -0.0658,0.0189 -0.22064,0.002 -0.34387,-0.0344 z m 2.70779,-4.57238 c 3.50358,-3.47748 5.42209,-5.57492 7.39009,-8.07971 2.68227,-3.4141 4.41742,-6.43204 5.4184,-9.42454 1.33922,-4.00351 1.13323,-7.60453 -0.62799,-10.9655 -1.16298,-2.22018 -3.30667,-4.60794 -5.47212,-6.09516 -0.99981,-0.68667 -3.01447,-1.65673 -4.21025,-2.0273 -4.01413,-1.24371 -8.16519,-0.9479 -11.98187,0.85392 -1.48539,0.70118 -2.62206,1.45919 -3.81886,2.54651 -3.79788,3.45049 -5.60561,7.55777 -5.20451,11.82456 0.50289,5.34965 3.7394,10.99646 10.31585,17.99866 1.91859,2.04297 5.58212,5.62512 5.75272,5.62512 0.098,0 1.08375,-0.91171 2.43854,-2.25656 z m -4.37287,-14.079 c -2.85569,-0.70563 -5.03946,-2.89235 -5.65884,-5.66657 -0.17217,-0.77026 -0.17343,-2.23443 0,-3.01605 0.51893,-2.37938 2.32705,-4.45258 4.66248,-5.34638 1.02525,-0.39229 1.78557,-0.53266 2.88896,-0.53347 1.13307,-8.4e-4 1.97199,0.1483 2.95888,0.52598 2.65182,1.01482 4.54128,3.42882 4.78775,6.11702 0.13436,1.46797 -0.092,2.69256 -0.73369,3.96847 -0.99136,1.97091 -2.84191,3.41546 -5.06647,3.95479 -1.17152,0.28397 -2.67773,0.28246 -3.83601,-0.002 z m 3.62517,-1.7763 c 0.9598,-0.2794 1.69373,-0.71688 2.48309,-1.48007 1.18662,-1.14746 1.69921,-2.32719 1.69921,-3.91132 0,-1.60531 -0.50899,-2.76028 -1.7436,-3.95638 -0.63184,-0.61191 -0.89561,-0.79936 -1.52658,-1.0849 -0.98862,-0.44734 -1.55805,-0.57251 -2.60296,-0.57251 -1.04624,0 -1.6163,0.12565 -2.59936,0.57294 -0.61961,0.28188 -0.90288,0.48255 -1.53636,1.08811 -0.63363,0.60559 -0.84353,0.87636 -1.13839,1.4684 -0.47493,0.95296 -0.60192,1.4889 -0.59926,2.52723 0,1.54364 0.52754,2.73521 1.69952,3.86843 0.98236,0.94973 2.02429,1.47508 3.31121,1.6694 0.66487,0.10046 1.86316,0.0128 2.55348,-0.18928 z"
       id="path3-5-4-1-0-8-7-7-1-3-2-9-9-0-29-25-6-6-0" />
    <text
       xml:space="preserve"
       style="font-size:33.7856px;font-family:Century;-inkscape-font-specification:Century;text-align:center;writing-mode:lr-tb;direction:ltr;text-anchor:middle;display:inline;fill:#ffffff;stroke-width:1.26694"
       x="920.95892"
       y="383.06918"
       id="text25-4-3-1-9-9-2-5-4-8-0-8-9-78-52-54-93-3-3"
       transform="scale(0.85967019,1.1632368)"><tspan
         id="tspan25-2-1-3-0-3-6-4-6-0-1-8-2-1-0-91-5-3-6"
         x="920.95892"
         y="383.06918"
         style="font-style:normal;font-variant:normal;font-weight:normal;font-stretch:normal;font-size:33.7856px;font-family:Tahoma;-inkscape-font-specification:Tahoma;stroke-width:1.26694">Sacsamaní</tspan></text>
    <path
       style="display:inline;fill:#ffffff;stroke-width:1.12103"
       d="m 1253.4847,379.5582 c -0.1243,-0.0376 -0.204,-0.0712 -0.1792,-0.0753 0.024,-0.002 -1.0861,-1.09818 -2.4683,-2.43237 -6.4061,-6.18355 -10.0898,-10.69319 -12.5086,-15.31346 -1.6661,-3.18222 -2.4119,-5.79905 -2.4992,-8.77013 -0.052,-1.75615 0.068,-2.84955 0.4753,-4.34871 1.2406,-4.56384 5.3707,-9.17634 10.0451,-11.21829 1.4878,-0.64996 3.6764,-1.24319 5.0999,-1.38224 0.3368,-0.0331 0.5652,-0.0876 0.5078,-0.12147 -0.058,-0.0341 0.3233,-0.08 0.8461,-0.10214 1.1462,-0.0488 2.8925,0.0169 2.7469,0.10214 -0.056,0.034 0.1713,0.088 0.5081,0.1205 1.4331,0.1377 3.5996,0.73014 5.178,1.4158 3.9201,1.70325 7.6584,5.47068 9.3374,9.41045 0.8617,2.02167 1.1747,3.75704 1.1049,6.12396 -0.087,2.97813 -0.8319,5.58438 -2.5107,8.79225 -2.3974,4.58166 -6.0881,9.09867 -12.4978,15.29597 -1.3823,1.3367 -2.4967,2.44667 -2.4756,2.46666 0.021,0.0201 -0.026,0.0362 -0.1056,0.0362 -0.079,0 -0.1961,0.0145 -0.2616,0.0342 -0.066,0.0189 -0.2206,0.002 -0.3439,-0.0344 z m 2.7078,-4.57238 c 3.5036,-3.47748 5.4221,-5.57492 7.3901,-8.07971 2.6822,-3.4141 4.4174,-6.43204 5.4184,-9.42454 1.3392,-4.00351 1.1332,-7.60453 -0.628,-10.9655 -1.163,-2.22018 -3.3067,-4.60794 -5.4721,-6.09516 -0.9999,-0.68667 -3.0145,-1.65673 -4.2103,-2.0273 -4.0141,-1.24371 -8.1652,-0.9479 -11.9819,0.85392 -1.4854,0.70118 -2.622,1.45919 -3.8188,2.54651 -3.7979,3.45049 -5.6056,7.55777 -5.2045,11.82456 0.5029,5.34965 3.7394,10.99646 10.3158,17.99866 1.9186,2.04297 5.5821,5.62512 5.7527,5.62512 0.098,0 1.0838,-0.91171 2.4386,-2.25656 z m -4.3729,-14.079 c -2.8557,-0.70563 -5.0395,-2.89235 -5.6588,-5.66657 -0.1722,-0.77026 -0.1735,-2.23443 0,-3.01605 0.5189,-2.37938 2.327,-4.45258 4.6624,-5.34638 1.0253,-0.39229 1.7856,-0.53266 2.889,-0.53347 1.1331,-8.4e-4 1.972,0.1483 2.9589,0.52598 2.6518,1.01482 4.5413,3.42882 4.7877,6.11702 0.1344,1.46797 -0.092,2.69256 -0.7337,3.96847 -0.9913,1.97091 -2.8419,3.41546 -5.0664,3.95479 -1.1715,0.28397 -2.6778,0.28246 -3.836,-0.002 z m 3.6252,-1.7763 c 0.9598,-0.2794 1.6937,-0.71688 2.4831,-1.48007 1.1866,-1.14746 1.6992,-2.32719 1.6992,-3.91132 0,-1.60531 -0.509,-2.76028 -1.7436,-3.95638 -0.6319,-0.61191 -0.8956,-0.79936 -1.5266,-1.0849 -0.9886,-0.44734 -1.5581,-0.57251 -2.603,-0.57251 -1.0462,0 -1.6163,0.12565 -2.5993,0.57294 -0.6196,0.28188 -0.9029,0.48255 -1.5364,1.08811 -0.6336,0.60559 -0.8435,0.87636 -1.1384,1.4684 -0.4749,0.95296 -0.6019,1.4889 -0.5992,2.52723 0,1.54364 0.5275,2.73521 1.6995,3.86843 0.9823,0.94973 2.0243,1.47508 3.3112,1.6694 0.6649,0.10046 1.8632,0.0128 2.5535,-0.18928 z"
       id="path3-5-4-1-0-8-7-7-1-3-2-9-9-0-29-25-6-6-0-8" />
    <text
       xml:space="preserve"
       style="font-size:33.7856px;font-family:Century;-inkscape-font-specification:Century;text-align:center;writing-mode:lr-tb;direction:ltr;text-anchor:middle;display:inline;fill:#ffffff;stroke-width:1.26694"
       x="1455.975"
       y="355.15323"
       id="text25-4-3-1-9-9-2-5-4-8-0-8-9-78-52-54-93-3-3-8"
       transform="scale(0.85967019,1.1632368)"><tspan
         id="tspan25-2-1-3-0-3-6-4-6-0-1-8-2-1-0-91-5-3-6-7"
         x="1455.975"
         y="355.15323"
         style="font-style:normal;font-variant:normal;font-weight:normal;font-stretch:normal;font-size:33.7856px;font-family:Tahoma;-inkscape-font-specification:Tahoma;stroke-width:1.26694">Nuevo Jinayá</tspan></text>
    <path
       style="display:inline;fill:#ffffff;stroke-width:1.12103"
       d="m 1049.6683,546.66427 c -0.1243,-0.0376 -0.204,-0.0712 -0.1792,-0.0753 0.024,-0.002 -1.0861,-1.09818 -2.4683,-2.43237 -6.4061,-6.18355 -10.0897,-10.69319 -12.5086,-15.31346 -1.6661,-3.18222 -2.4119,-5.79905 -2.4991,-8.77013 -0.052,-1.75615 0.068,-2.84955 0.4752,-4.34871 1.2406,-4.56384 5.3707,-9.17634 10.0451,-11.21829 1.4878,-0.64996 3.6764,-1.24319 5.0999,-1.38224 0.3368,-0.0331 0.5652,-0.0876 0.5078,-0.12147 -0.058,-0.0341 0.3233,-0.08 0.8461,-0.10214 1.1462,-0.0488 2.8925,0.0169 2.747,0.10214 -0.056,0.034 0.1712,0.088 0.508,0.1205 1.4331,0.1377 3.5997,0.73014 5.178,1.4158 3.9201,1.70325 7.6585,5.47068 9.3375,9.41045 0.8616,2.02167 1.1746,3.75704 1.1049,6.12396 -0.087,2.97813 -0.832,5.58438 -2.5108,8.79225 -2.3974,4.58166 -6.0881,9.09867 -12.4978,15.29597 -1.3823,1.3367 -2.4966,2.44667 -2.4755,2.46666 0.021,0.0201 -0.026,0.0362 -0.1057,0.0362 -0.079,0 -0.196,0.0145 -0.2615,0.0342 -0.066,0.0189 -0.2207,0.002 -0.3439,-0.0344 z m 2.7078,-4.57238 c 3.5036,-3.47748 5.4221,-5.57492 7.3901,-8.07971 2.6823,-3.4141 4.4174,-6.43204 5.4184,-9.42454 1.3392,-4.00351 1.1332,-7.60453 -0.628,-10.9655 -1.163,-2.22018 -3.3067,-4.60794 -5.4721,-6.09516 -0.9998,-0.68667 -3.0145,-1.65673 -4.2103,-2.0273 -4.0141,-1.24371 -8.1651,-0.9479 -11.9818,0.85392 -1.4854,0.70118 -2.6221,1.45919 -3.8189,2.54651 -3.7979,3.45049 -5.6056,7.55777 -5.2045,11.82456 0.5029,5.34965 3.7394,10.99646 10.3159,17.99866 1.9185,2.04297 5.5821,5.62512 5.7527,5.62512 0.098,0 1.0837,-0.91171 2.4385,-2.25656 z m -4.3729,-14.079 c -2.8556,-0.70563 -5.0394,-2.89235 -5.6588,-5.66657 -0.1722,-0.77026 -0.1734,-2.23443 0,-3.01605 0.5189,-2.37938 2.3271,-4.45258 4.6625,-5.34638 1.0252,-0.39229 1.7855,-0.53266 2.8889,-0.53347 1.1331,-8.4e-4 1.972,0.1483 2.9589,0.52598 2.6518,1.01482 4.5413,3.42882 4.7878,6.11702 0.1343,1.46797 -0.092,2.69256 -0.7337,3.96847 -0.9914,1.97091 -2.8419,3.41546 -5.0665,3.95479 -1.1715,0.28397 -2.6777,0.28246 -3.836,-0.002 z m 3.6252,-1.7763 c 0.9598,-0.2794 1.6937,-0.71688 2.4831,-1.48007 1.1866,-1.14746 1.6992,-2.32719 1.6992,-3.91132 0,-1.60531 -0.509,-2.76028 -1.7436,-3.95638 -0.6318,-0.61191 -0.8956,-0.79936 -1.5266,-1.0849 -0.9886,-0.44734 -1.558,-0.57251 -2.6029,-0.57251 -1.0463,0 -1.6163,0.12565 -2.5994,0.57294 -0.6196,0.28188 -0.9029,0.48255 -1.5363,1.08811 -0.6337,0.60559 -0.8436,0.87636 -1.1384,1.4684 -0.475,0.95296 -0.602,1.4889 -0.5993,2.52723 0,1.54364 0.5275,2.73521 1.6995,3.86843 0.9824,0.94973 2.0243,1.47508 3.3112,1.6694 0.6649,0.10046 1.8632,0.0128 2.5535,-0.18928 z"
       id="path3-5-4-1-0-8-7-7-1-3-2-9-9-0-29-25-6-6-0-5" />
    <text
       xml:space="preserve"
       style="font-size:33.7856px;font-family:Century;-inkscape-font-specification:Century;text-align:center;writing-mode:lr-tb;direction:ltr;text-anchor:middle;display:inline;fill:#ffffff;stroke-width:1.26694"
       x="1218.8883"
       y="498.80936"
       id="text25-4-3-1-9-9-2-5-4-8-0-8-9-78-52-54-93-3-3-7"
       transform="scale(0.85967019,1.1632368)"><tspan
         id="tspan25-2-1-3-0-3-6-4-6-0-1-8-2-1-0-91-5-3-6-4"
         x="1218.8883"
         y="498.80936"
         style="font-style:normal;font-variant:normal;font-weight:normal;font-stretch:normal;font-size:33.7856px;font-family:Tahoma;-inkscape-font-specification:Tahoma;stroke-width:1.26694">Guachabajá</tspan></text>
  </g>
</svg>
