<?xml version="1.0" encoding="UTF-8" standalone="no"?>
<!-- Created with Inkscape (http://www.inkscape.org/) -->

<svg
   width="210mm"
   height="297mm"
   viewBox="0 0 210 297"
   version="1.1"
   id="svg1"
   xmlns="http://www.w3.org/2000/svg"
   xmlns:svg="http://www.w3.org/2000/svg">
  <defs
     id="defs1" />
  <g
     id="layer19"
     transform="matrix(0.2480404,0,0,0.2504837,-187.0484,31.805944)">
    <path
       style="display:inline;fill:#0772d2;stroke-width:1.97857"
       d="m 1095.915,911.53444 c -8.4956,-3.09855 -29.2048,-9.95917 -46.0203,-15.2458 l -30.574,-9.61208 -15.7652,3.1807 c -8.67108,1.7494 -21.3262,5.28637 -28.12262,7.85993 -16.97891,6.42934 -33.50451,7.7784 -45.12228,3.68352 -12.43354,-4.38243 -28.42429,-19.46154 -36.30423,-34.23451 -6.24961,-11.71649 -6.55793,-13.37771 -7.01699,-37.81284 -0.39831,-21.19682 -1.1519,-26.61679 -4.41706,-31.76322 -7.28206,-11.47741 -19.78768,-16.90781 -39.17644,-17.01167 -5.69005,-0.0304 -11.09197,-1.68924 -16.47617,-5.05939 -8.9027,-5.57247 -10.91052,-7.76974 -21.60172,-23.64005 -7.03037,-10.43615 -7.48532,-12.12773 -8.82505,-32.80967 -2.1108,-32.58525 -6.29348,-54.59744 -15.59017,-82.04636 -15.55453,-45.92629 -17.57431,-66.66659 -10.3666,-106.44459 8.37731,-46.23256 7.72548,-69.73822 -2.16291,-77.99741 -2.22285,-1.85661 -4.02596,-4.31226 -4.0068,-5.45704 0.0392,-2.29949 29.03267,-15.62416 48.36417,-22.22614 6.79642,-2.3211 15.71147,-6.26217 19.81116,-8.75793 4.09989,-2.49579 12.44095,-6.28005 18.5357,-8.40948 6.09495,-2.12945 12.47184,-5.0176 14.17096,-6.4181 1.6991,-1.40053 9.11338,-5.81988 16.47617,-9.82081 7.36279,-4.00093 17.55742,-10.09678 22.65474,-13.54635 5.09733,-3.44959 16.75381,-11.15981 25.90364,-17.13386 9.14964,-5.97403 21.19784,-14.46998 26.7738,-18.87988 5.57594,-4.40988 15.02647,-11.87564 21.00135,-16.59057 5.97468,-4.71492 14.49347,-10.28184 18.93033,-12.37095 4.43692,-2.0891 14.27802,-8.08323 21.86902,-13.32029 7.591,-5.23706 14.9882,-9.52193 16.4383,-9.52193 1.4501,0 5.4254,-2.16587 8.8341,-4.81303 3.4087,-2.64719 12.5159,-7.43618 20.2383,-10.6422 7.7224,-3.20604 15.8944,-7.34635 18.1599,-9.20071 2.2654,-1.85436 10.6065,-5.7025 18.5356,-8.55146 7.9292,-2.84895 18.6684,-7.66241 23.8647,-10.69659 5.1966,-3.03419 10.1193,-5.5167 10.9396,-5.5167 1.4034,0 24.953,-10.61696 36.2493,-16.34233 11.9444,-6.05383 21.5644,-3.2091 56.6368,16.7479 6.1384,3.49285 14.1409,6.21791 19.8128,6.7467 8.6585,0.80727 10.2531,0.27184 17.7115,-5.947 4.5079,-3.75877 9.0509,-9.58503 10.0957,-12.94725 1.7894,-5.75774 3.5734,-6.70662 30.6876,-16.32294 28.9657,-10.27306 102.6365,-32.76056 107.3258,-32.76056 5.3539,0 8.9914,-6.03018 8.9914,-14.90578 0,-8.01665 -2.0574,-11.9507 -20.0803,-38.39462 -11.0442,-16.20453 -26.3361,-37.873001 -33.9821,-48.152147 L 1355.4147,59.739564 V 38.076303 c 0,-11.914799 0.4894,-21.66328 1.0872,-21.66328 1.9127,0 67.478,13.326122 79.2342,16.104307 6.23,1.472261 15.7273,3.252375 21.1052,3.955785 l 9.7777,1.27895 -0.991,18.317613 c -0.545,10.074695 -1.4721,35.444965 -2.0601,56.378362 -0.9053,32.21866 -0.5852,38.69867 2.0848,42.21683 5.3451,7.0432 14.7935,7.22261 35.4608,0.67337 10.1873,-3.22823 19.1073,-5.86947 19.8224,-5.86947 0.715,0 1.3001,17.96251 1.3001,39.91671 0,21.9542 -0.4796,39.91671 -1.066,39.91671 -0.5864,0 -18.4269,3.44843 -39.6458,7.66316 -36.4113,7.23246 -38.8988,8.00699 -44.254,13.78077 -6.7532,7.28105 -38.6055,64.94917 -38.6055,69.89475 0,6.98264 14.1209,6.9377 57.6666,-0.18342 11.8937,-1.94503 30.9853,-4.41027 42.4255,-5.4783 11.4402,-1.06805 22.0983,-2.39476 23.6845,-2.94827 1.5863,-0.5535 11.9648,-2.16031 23.0638,-3.57069 l 20.1798,-2.56432 2.7798,6.13986 c 1.5287,3.37691 3.7203,6.67642 4.8701,7.33224 1.1496,0.65583 2.7162,4.61021 3.4808,8.78752 1.183,6.46342 0.5961,8.46627 -3.9405,13.4421 -5.7487,6.30534 -6.5383,8.64943 -8.236,24.44765 -1.3957,12.98711 -6.6298,19.94319 -24.2916,32.28306 -13.2861,9.28271 -26.9916,26.52466 -34.3391,43.20016 -4.0309,9.14816 -9.7285,12.86721 -32.7244,21.36069 -11.6315,4.2961 -24.6065,9.85053 -28.8333,12.34316 -9.9771,5.88388 -37.5479,32.44829 -37.5479,36.17742 0,1.58382 -2.8607,5.88669 -6.3572,9.56196 -3.4962,3.67526 -8.3618,9.24875 -10.8124,12.38553 -2.4505,3.13679 -9.7871,11.92069 -16.3037,19.51981 -18.3728,21.42465 -32.2737,39.3661 -46.6538,60.21415 -7.2562,10.51952 -14.9969,20.63329 -17.202,22.47505 -2.2052,1.84173 -5.4091,5.91672 -7.1204,9.0555 -1.711,3.13879 -7.0574,11.2667 -11.8806,18.06206 -12.0107,16.92145 -34.0093,48.54958 -40.9847,58.92468 -3.163,4.70447 -10.829,15.82413 -17.0357,24.71035 -6.2066,8.88622 -14.945,22.57196 -19.4186,30.41275 -9.846,17.25723 -26.0478,42.17993 -38.3059,58.92468 -4.9744,6.79534 -20.2276,27.96546 -33.8956,47.0447 -13.6681,19.07924 -25.9129,34.63953 -27.2111,34.57839 -1.2979,-0.0612 -9.3106,-2.64632 -17.8061,-5.74487 z"
       id="path9-6" />
    <path
       style="display:inline;fill:#ffffff;stroke-width:1.02541"
       d="m 942.55462,548.39245 c -0.111,-0.0352 -0.1821,-0.0667 -0.16,-0.0706 0.022,-0.002 -0.9695,-1.02933 -2.2033,-2.27988 -5.7183,-5.79589 -9.0066,-10.02282 -11.1657,-14.35344 -1.4872,-2.98272 -2.153,-5.4355 -2.2309,-8.22032 -0.046,-1.64605 0.061,-2.67091 0.4243,-4.07608 1.1074,-4.27773 4.7941,-8.60107 8.9667,-10.51501 1.328,-0.60921 3.2817,-1.16525 4.5524,-1.29558 0.3006,-0.031 0.5045,-0.0821 0.4533,-0.11386 -0.052,-0.032 0.2885,-0.075 0.7552,-0.0957 1.0232,-0.0457 2.582,0.0158 2.452,0.0957 -0.05,0.0319 0.1529,0.0825 0.4536,0.11295 1.2792,0.12907 3.2131,0.68436 4.6221,1.32704 3.4992,1.59647 6.8362,5.12772 8.335,8.8205 0.7692,1.89493 1.0486,3.5215 0.9862,5.74004 -0.078,2.79143 -0.7425,5.23429 -2.2411,8.24105 -2.14,4.29443 -5.4345,8.52827 -11.1561,14.33705 -1.2339,1.2529 -2.2287,2.29329 -2.2098,2.31202 0.019,0.0188 -0.023,0.0339 -0.094,0.0339 -0.071,0 -0.175,0.0136 -0.2335,0.0321 -0.059,0.0177 -0.1969,0.002 -0.307,-0.0322 z m 2.4171,-4.28573 c 3.1275,-3.25947 4.84,-5.22542 6.5967,-7.57318 2.3943,-3.20007 3.9432,-6.02881 4.8367,-8.83371 1.1955,-3.75252 1.0116,-7.12779 -0.5605,-10.27806 -1.0382,-2.08099 -2.9518,-4.31906 -4.8847,-5.71305 -0.8925,-0.64362 -2.6909,-1.55286 -3.7583,-1.9002 -3.5831,-1.16574 -7.2886,-0.88848 -10.6956,0.80039 -1.3259,0.65722 -2.3405,1.36771 -3.4088,2.38686 -3.3902,3.23418 -5.0038,7.08397 -4.6458,11.08327 0.449,5.01427 3.338,10.30708 9.2084,16.8703 1.7126,1.91489 4.9828,5.27248 5.1351,5.27248 0.088,0 0.9674,-0.85456 2.1768,-2.1151 z m -3.9034,-13.19637 c -2.5492,-0.66139 -4.4985,-2.71103 -5.0513,-5.31133 -0.1537,-0.72197 -0.1549,-2.09435 0,-2.82697 0.4632,-2.23021 2.0771,-4.17344 4.1618,-5.01121 0.9153,-0.36769 1.5939,-0.49926 2.5789,-0.50002 1.0114,-7.9e-4 1.7603,0.139 2.6412,0.493 2.3671,0.9512 4.0538,3.21387 4.2737,5.73354 0.12,1.37594 -0.082,2.52376 -0.6549,3.71968 -0.8849,1.84735 -2.5368,3.20134 -4.5225,3.70686 -1.0457,0.26617 -2.3903,0.26475 -3.4242,-0.002 z m 3.236,-1.66494 c 0.8567,-0.26189 1.5118,-0.67194 2.2165,-1.38728 1.0592,-1.07553 1.5168,-2.1813 1.5168,-3.66612 0,-1.50467 -0.4544,-2.58723 -1.5564,-3.70835 -0.5641,-0.57355 -0.7995,-0.74925 -1.3627,-1.01689 -0.8825,-0.41929 -1.3909,-0.53661 -2.3236,-0.53661 -0.9339,0 -1.4428,0.11777 -2.3203,0.53702 -0.553,0.26421 -0.8059,0.4523 -1.3714,1.01989 -0.5656,0.56763 -0.753,0.82142 -1.0162,1.37635 -0.4239,0.89321 -0.5373,1.39556 -0.5349,2.36879 0,1.44687 0.4709,2.56374 1.5171,3.62592 0.8768,0.89019 1.807,1.3826 2.9557,1.56474 0.5935,0.0942 1.6632,0.012 2.2794,-0.17741 z"
       id="path3-5-4-1-0-8-7-7-1-3-2-9-9-0-29-25-6-6-0-8-3-5-04-8-4-9" />
    <text
       xml:space="preserve"
       style="font-size:30.9038px;font-family:Century;-inkscape-font-specification:Century;text-align:center;writing-mode:lr-tb;direction:ltr;text-anchor:middle;display:inline;fill:#ffffff;stroke-width:1.15887"
       x="1119.7698"
       y="489.52209"
       id="text25-4-3-1-9-9-2-5-4-8-0-8-9-78-52-54-93-3-3-8-0-1-5-2-8-2"
       transform="scale(0.83893764,1.1919837)"><tspan
         id="tspan25-2-1-3-0-3-6-4-6-0-1-8-2-1-0-91-5-3-6-7-3-2-4-1-4-6"
         x="1124.5985"
         y="489.52209"
         style="font-style:normal;font-variant:normal;font-weight:normal;font-stretch:normal;font-size:30.9038px;font-family:Tahoma;-inkscape-font-specification:Tahoma;stroke-width:1.15887">Cumbre Chacalte </tspan></text>
    <path
       style="display:inline;fill:#ffffff;stroke-width:1.02541"
       d="m 1370.4645,444.95653 c -0.111,-0.0352 -0.1821,-0.0667 -0.16,-0.0706 0.022,-0.002 -0.9695,-1.02933 -2.2033,-2.27988 -5.7183,-5.79589 -9.0066,-10.02282 -11.1657,-14.35344 -1.4872,-2.98272 -2.153,-5.4355 -2.2309,-8.22032 -0.046,-1.64605 0.061,-2.67091 0.4243,-4.07608 1.1074,-4.27773 4.7941,-8.60107 8.9667,-10.51501 1.328,-0.60921 3.2817,-1.16525 4.5524,-1.29558 0.3006,-0.031 0.5045,-0.0821 0.4533,-0.11386 -0.052,-0.032 0.2885,-0.075 0.7552,-0.0957 1.0232,-0.0457 2.582,0.0158 2.452,0.0957 -0.05,0.0319 0.1529,0.0825 0.4536,0.11295 1.2792,0.12907 3.2131,0.68436 4.6221,1.32704 3.4992,1.59647 6.8362,5.12772 8.335,8.8205 0.7692,1.89493 1.0486,3.5215 0.9862,5.74004 -0.078,2.79143 -0.7425,5.23429 -2.2411,8.24105 -2.14,4.29443 -5.4345,8.52827 -11.1561,14.33705 -1.2339,1.2529 -2.2287,2.29329 -2.2098,2.31202 0.019,0.0188 -0.023,0.0339 -0.094,0.0339 -0.071,0 -0.175,0.0136 -0.2335,0.0321 -0.059,0.0177 -0.1969,0.002 -0.307,-0.0322 z m 2.4171,-4.28573 c 3.1275,-3.25947 4.84,-5.22542 6.5967,-7.57318 2.3943,-3.20007 3.9432,-6.02881 4.8367,-8.83371 1.1955,-3.75252 1.0116,-7.12779 -0.5605,-10.27806 -1.0382,-2.08099 -2.9518,-4.31906 -4.8847,-5.71305 -0.8925,-0.64362 -2.6909,-1.55286 -3.7583,-1.9002 -3.5831,-1.16574 -7.2886,-0.88848 -10.6956,0.80039 -1.3259,0.65722 -2.3405,1.36771 -3.4088,2.38686 -3.3902,3.23418 -5.0038,7.08397 -4.6458,11.08327 0.449,5.01427 3.338,10.30708 9.2084,16.8703 1.7126,1.91489 4.9828,5.27248 5.1351,5.27248 0.088,0 0.9674,-0.85456 2.1768,-2.1151 z m -3.9034,-13.19637 c -2.5492,-0.66139 -4.4985,-2.71103 -5.0513,-5.31133 -0.1537,-0.72197 -0.1549,-2.09435 0,-2.82697 0.4632,-2.23021 2.0771,-4.17344 4.1618,-5.01121 0.9153,-0.36769 1.5939,-0.49926 2.5789,-0.50002 1.0114,-7.9e-4 1.7603,0.139 2.6412,0.493 2.3671,0.9512 4.0538,3.21387 4.2737,5.73354 0.12,1.37594 -0.082,2.52376 -0.6549,3.71968 -0.8849,1.84735 -2.5368,3.20134 -4.5225,3.70686 -1.0457,0.26617 -2.3903,0.26475 -3.4242,-0.002 z m 3.236,-1.66494 c 0.8567,-0.26189 1.5118,-0.67194 2.2165,-1.38728 1.0592,-1.07553 1.5168,-2.1813 1.5168,-3.66612 0,-1.50467 -0.4544,-2.58723 -1.5564,-3.70835 -0.5641,-0.57355 -0.7995,-0.74925 -1.3627,-1.01689 -0.8825,-0.41929 -1.3909,-0.53661 -2.3236,-0.53661 -0.9339,0 -1.4428,0.11777 -2.3203,0.53702 -0.553,0.26421 -0.8059,0.4523 -1.3714,1.01989 -0.5656,0.56763 -0.753,0.82142 -1.0162,1.37635 -0.4239,0.89321 -0.5373,1.39556 -0.5349,2.36879 0,1.44687 0.4709,2.56374 1.5171,3.62592 0.8768,0.89019 1.807,1.3826 2.9557,1.56474 0.5935,0.0942 1.6632,0.012 2.2794,-0.17741 z"
       id="path3-5-4-1-0-8-7-7-1-3-2-9-9-0-29-25-6-6-0-8-3-5-04-8-4-9-5" />
    <text
       xml:space="preserve"
       style="font-size:30.9038px;font-family:Century;-inkscape-font-specification:Century;text-align:center;writing-mode:lr-tb;direction:ltr;text-anchor:middle;display:inline;fill:#ffffff;stroke-width:1.15887"
       x="1629.8313"
       y="402.74579"
       id="text25-4-3-1-9-9-2-5-4-8-0-8-9-78-52-54-93-3-3-8-0-1-5-2-8-2-7"
       transform="scale(0.83893764,1.1919837)"><tspan
         id="tspan25-2-1-3-0-3-6-4-6-0-1-8-2-1-0-91-5-3-6-7-3-2-4-1-4-6-9"
         x="1629.8313"
         y="402.74579"
         style="font-style:normal;font-variant:normal;font-weight:normal;font-stretch:normal;font-size:30.9038px;font-family:Tahoma;-inkscape-font-specification:Tahoma;stroke-width:1.15887">Pampacay</tspan></text>
    <path
       style="display:inline;fill:#ffffff;stroke-width:1.02541"
       d="m 1180.4589,283.07184 c -0.111,-0.0352 -0.1821,-0.0667 -0.16,-0.0706 0.022,-0.002 -0.9695,-1.02933 -2.2033,-2.27988 -5.7183,-5.79589 -9.0066,-10.02282 -11.1657,-14.35344 -1.4872,-2.98272 -2.153,-5.4355 -2.2309,-8.22032 -0.046,-1.64605 0.061,-2.67091 0.4243,-4.07608 1.1074,-4.27773 4.7941,-8.60107 8.9667,-10.51501 1.328,-0.60921 3.2817,-1.16525 4.5524,-1.29558 0.3006,-0.031 0.5045,-0.0821 0.4533,-0.11386 -0.052,-0.032 0.2885,-0.075 0.7552,-0.0957 1.0232,-0.0457 2.582,0.0158 2.452,0.0957 -0.05,0.0319 0.1529,0.0825 0.4536,0.11295 1.2792,0.12907 3.2131,0.68436 4.6221,1.32704 3.4992,1.59647 6.8362,5.12772 8.335,8.8205 0.7692,1.89493 1.0486,3.5215 0.9862,5.74004 -0.078,2.79143 -0.7425,5.23429 -2.2411,8.24105 -2.14,4.29443 -5.4345,8.52827 -11.1561,14.33705 -1.2339,1.2529 -2.2287,2.29329 -2.2098,2.31202 0.019,0.0188 -0.023,0.0339 -0.094,0.0339 -0.071,0 -0.175,0.0136 -0.2335,0.0321 -0.059,0.0177 -0.1969,0.002 -0.307,-0.0322 z m 2.4171,-4.28573 c 3.1275,-3.25947 4.84,-5.22542 6.5967,-7.57318 2.3943,-3.20007 3.9432,-6.02881 4.8367,-8.83371 1.1955,-3.75252 1.0116,-7.12779 -0.5605,-10.27806 -1.0382,-2.08099 -2.9518,-4.31906 -4.8847,-5.71305 -0.8925,-0.64362 -2.6909,-1.55286 -3.7583,-1.9002 -3.5831,-1.16574 -7.2886,-0.88848 -10.6956,0.80039 -1.3259,0.65722 -2.3405,1.36771 -3.4088,2.38686 -3.3902,3.23418 -5.0038,7.08397 -4.6458,11.08327 0.449,5.01427 3.338,10.30708 9.2084,16.8703 1.7126,1.91489 4.9828,5.27248 5.1351,5.27248 0.088,0 0.9674,-0.85456 2.1768,-2.1151 z m -3.9034,-13.19637 c -2.5492,-0.66139 -4.4985,-2.71103 -5.0513,-5.31133 -0.1537,-0.72197 -0.1549,-2.09435 0,-2.82697 0.4632,-2.23021 2.0771,-4.17344 4.1618,-5.01121 0.9153,-0.36769 1.5939,-0.49926 2.5789,-0.50002 1.0114,-7.9e-4 1.7603,0.139 2.6412,0.493 2.3671,0.9512 4.0538,3.21387 4.2737,5.73354 0.12,1.37594 -0.082,2.52376 -0.6549,3.71968 -0.8849,1.84735 -2.5368,3.20134 -4.5225,3.70686 -1.0457,0.26617 -2.3903,0.26475 -3.4242,-0.002 z m 3.236,-1.66494 c 0.8567,-0.26189 1.5118,-0.67194 2.2165,-1.38728 1.0592,-1.07553 1.5168,-2.1813 1.5168,-3.66612 0,-1.50467 -0.4544,-2.58723 -1.5564,-3.70835 -0.5641,-0.57355 -0.7995,-0.74925 -1.3627,-1.01689 -0.8825,-0.41929 -1.3909,-0.53661 -2.3236,-0.53661 -0.9339,0 -1.4428,0.11777 -2.3203,0.53702 -0.553,0.26421 -0.8059,0.4523 -1.3714,1.01989 -0.5656,0.56763 -0.753,0.82142 -1.0162,1.37635 -0.4239,0.89321 -0.5373,1.39556 -0.5349,2.36879 0,1.44687 0.4709,2.56374 1.5171,3.62592 0.8768,0.89019 1.807,1.3826 2.9557,1.56474 0.5935,0.0942 1.6632,0.012 2.2794,-0.17741 z"
       id="path3-5-4-1-0-8-7-7-1-3-2-9-9-0-29-25-6-6-0-8-3-5-04-8-4-9-2" />
    <text
       xml:space="preserve"
       style="font-size:30.9038px;font-family:Century;-inkscape-font-specification:Century;text-align:center;writing-mode:lr-tb;direction:ltr;text-anchor:middle;display:inline;fill:#ffffff;stroke-width:1.15887"
       x="1403.3478"
       y="266.93463"
       id="text25-4-3-1-9-9-2-5-4-8-0-8-9-78-52-54-93-3-3-8-0-1-5-2-8-2-3"
       transform="scale(0.83893764,1.1919837)"><tspan
         id="tspan25-2-1-3-0-3-6-4-6-0-1-8-2-1-0-91-5-3-6-7-3-2-4-1-4-6-6"
         x="1403.3478"
         y="266.93463"
         style="font-style:normal;font-variant:normal;font-weight:normal;font-stretch:normal;font-size:30.9038px;font-family:Tahoma;-inkscape-font-specification:Tahoma;stroke-width:1.15887">Nuevo San Rafael</tspan></text>
  </g>
</svg>
