<?xml version="1.0" encoding="UTF-8" standalone="no"?>
<!-- Created with Inkscape (http://www.inkscape.org/) -->

<svg
   width="210mm"
   height="297mm"
   viewBox="0 0 210 297"
   version="1.1"
   id="svg1"
   xmlns="http://www.w3.org/2000/svg"
   xmlns:svg="http://www.w3.org/2000/svg">
  <defs
     id="defs1" />
  <g
     id="layer10"
     style="display:inline"
     transform="matrix(0.21202582,0,0,0.21793728,-150.0683,77.372344)">
    <path
       style="display:inline;fill:#0772d2;stroke-width:3.12043"
       d="m 868.35965,681.67135 c -6.91162,-2.59674 -20.00664,-10.80159 -29.09974,-18.23303 -9.09311,-7.43142 -19.86499,-14.486 -23.93743,-15.6768 -7.29294,-2.13264 -7.42273,-2.72975 -8.64849,-39.79543 -1.17834,-35.6289 -1.79816,-38.79471 -11.65475,-59.52323 -5.72577,-12.04111 -12.53592,-31.74473 -15.13342,-43.78582 -2.59749,-12.04111 -8.11106,-30.22907 -12.25259,-40.4177 -6.00562,-14.77518 -7.95294,-26.02398 -9.62042,-55.57432 -1.89616,-33.59693 -3.13607,-39.56057 -13.30722,-63.99468 -9.36543,-22.49881 -11.20752,-30.38261 -11.16358,-47.77663 0.0289,-11.45734 1.02598,-21.96563 2.21589,-23.35176 1.18962,-1.38612 20.67964,-3.62256 43.31124,-4.9699 29.11738,-1.7334 62.25662,-6.98989 113.34589,-17.97879 132.36707,-28.47106 212.45717,-38.96447 297.39267,-38.96447 32.8852,0 39.5031,0.92792 48.193,6.7575 24.0796,16.15367 21.8955,16.07924 45.5132,1.55059 11.9453,-7.34817 39.7546,-26.48238 61.7987,-42.52048 l 40.0801,-29.16019 0.2111,19.05577 c 0.4226,38.15628 3.9186,54.79933 13.493,64.23606 26.526,26.14418 64.9359,45.38617 98.6788,49.4343 8.9448,1.0731 21.1679,4.09553 27.1626,6.71648 5.9948,2.62092 18.7821,4.76534 28.4162,4.76534 11.628,0 23.5137,2.72322 35.3552,8.10046 9.8116,4.45524 24.3433,9.08208 32.2934,10.28188 25.6427,3.86996 41.5969,11.54101 46.3704,22.29578 2.3876,5.37929 7.5664,12.24265 11.5082,15.25185 11.8082,9.01436 9.1018,16.37172 -8.9902,24.43798 -8.8864,3.96205 -18.0834,7.20372 -20.4374,7.20372 -2.3541,0 -13.6215,4.43473 -25.0383,9.85497 -11.4172,5.42025 -30.5151,11.43541 -42.4401,13.36704 -11.9252,1.93159 -33.9551,7.37771 -48.9559,12.10244 -26.3233,8.29101 -27.7624,8.40131 -41.2936,3.16511 -19.6744,-7.61361 -37.0602,-2.30721 -60.7279,18.53514 -21.8991,19.2851 -27.597,22.94422 -45.2294,29.04472 -7.4933,2.5926 -20.0749,10.09474 -27.9593,16.6714 -7.8844,6.57666 -21.4903,14.36374 -30.2354,17.30459 -8.7449,2.9409 -20.4015,9.34161 -25.9032,14.22383 -5.5017,4.88218 -21.7126,16.58873 -36.024,26.01451 -31.0374,20.44152 -41.4273,33.94035 -44.7025,58.07813 -3.5979,26.51872 -20.7452,44.04689 -56.5776,57.83431 -19.5444,7.52021 -21.161,7.61691 -57.8184,3.45807 -20.7416,-2.35319 -49.4809,-4.95046 -63.8649,-5.77172 -25.7358,-1.46941 -26.4736,-1.29299 -46.25476,11.06311 -19.23446,12.01455 -21.72326,12.66508 -57.68376,15.07697 -20.67012,1.38632 -42.13522,3.37868 -47.70025,4.42745 -5.56503,1.04874 -15.77317,-0.21792 -22.68508,-2.81455 z"
       id="path24-1" />
    <path
       style="display:inline;fill:#ffffff;stroke-width:1.00709"
       d="m 914.31859,350.3311 c -0.1131,-0.0334 -0.1856,-0.0632 -0.1631,-0.0667 0.022,-0.002 -0.988,-0.97424 -2.2454,-2.15785 -5.8277,-5.48571 -9.1787,-9.48641 -11.3792,-13.58526 -1.5157,-2.82308 -2.1942,-5.14458 -2.2736,-7.78036 -0.047,-1.55796 0.062,-2.52796 0.4324,-3.85794 1.1286,-4.04877 4.8858,-8.14073 9.1382,-9.95224 1.3535,-0.5766 3.3445,-1.10289 4.6394,-1.22625 0.3064,-0.0293 0.5142,-0.0777 0.462,-0.10776 -0.053,-0.0303 0.2941,-0.071 0.7696,-0.0906 1.0427,-0.0433 2.6314,0.0151 2.4991,0.0906 -0.051,0.0301 0.1557,0.0781 0.4621,0.10691 1.3037,0.12216 3.2747,0.64773 4.7105,1.25601 3.5662,1.51102 6.9671,4.85329 8.4945,8.34843 0.7839,1.79352 1.0686,3.33304 1.0051,5.43284 -0.079,2.64202 -0.7568,4.95415 -2.2841,7.79999 -2.1809,4.0646 -5.5384,8.07184 -11.3694,13.56973 -1.2576,1.18585 -2.2712,2.17055 -2.2522,2.18828 0.019,0.0178 -0.024,0.0322 -0.096,0.0322 -0.072,0 -0.1783,0.0129 -0.238,0.0303 -0.06,0.0168 -0.2007,0.002 -0.3128,-0.0305 z m 2.4633,-4.05637 c 3.1873,-3.08502 4.9326,-4.94576 6.7229,-7.16786 2.4401,-3.0288 4.0186,-5.70614 4.9292,-8.36093 1.2183,-3.55169 1.0309,-6.74631 -0.5712,-9.72797 -1.0581,-1.96963 -3.0083,-4.08792 -4.9782,-5.40729 -0.9095,-0.60917 -2.7423,-1.46977 -3.8301,-1.79851 -3.6517,-1.10336 -7.428,-0.84093 -10.9,0.75754 -1.3513,0.62206 -2.3854,1.29452 -3.4741,2.25912 -3.455,3.06109 -5.0995,6.70484 -4.7347,10.4901 0.4576,4.74591 3.4018,9.75544 9.3845,15.96741 1.7454,1.81241 5.0782,4.99028 5.2334,4.99028 0.089,0 0.9858,-0.80881 2.2183,-2.00189 z m -3.9781,-12.49009 c -2.5978,-0.62601 -4.5843,-2.56593 -5.1479,-5.02707 -0.1566,-0.68333 -0.1577,-1.98227 0,-2.67567 0.4722,-2.11086 2.117,-3.95008 4.2416,-4.74301 0.9326,-0.34802 1.6242,-0.47255 2.628,-0.47327 1.0308,-7.5e-4 1.794,0.13157 2.6918,0.46662 2.4123,0.90029 4.1313,3.04186 4.3556,5.42668 0.1221,1.3023 -0.084,2.38869 -0.6675,3.52061 -0.9019,1.74847 -2.5854,3.03 -4.6091,3.50847 -1.0657,0.25191 -2.436,0.25057 -3.4897,-0.002 z m 3.2979,-1.57585 c 0.8731,-0.24786 1.5408,-0.63596 2.2589,-1.31303 1.0795,-1.01796 1.5458,-2.06455 1.5458,-3.4699 0,-1.42414 -0.463,-2.44876 -1.5862,-3.50987 -0.5747,-0.54287 -0.8147,-0.70916 -1.3888,-0.96248 -0.8993,-0.39685 -1.4173,-0.5079 -2.3678,-0.5079 -0.9519,0 -1.4704,0.11147 -2.3648,0.50829 -0.5635,0.25006 -0.8212,0.42809 -1.3976,0.9653 -0.5764,0.53725 -0.7673,0.77747 -1.0356,1.30269 -0.432,0.84541 -0.5476,1.32087 -0.5451,2.24202 0,1.36942 0.4799,2.42652 1.5461,3.43185 0.8936,0.84255 1.8414,1.30862 3.0122,1.481 0.6048,0.0891 1.6949,0.0114 2.3229,-0.16792 z"
       id="path3-5-4-1-0-8-7-7-1-3-2-9-9-0-29" />
    <text
       xml:space="preserve"
       style="font-size:29.3555px;font-family:Century;-inkscape-font-specification:Century;text-align:center;writing-mode:lr-tb;direction:ltr;text-anchor:middle;display:inline;fill:#ffffff;stroke-width:1.10082"
       x="1085.3032"
       y="321.02499"
       id="text25-4-3-1-9-9-2-5-4-8-0-8-9-78-52"
       transform="scale(0.84197048,1.1876901)"><tspan
         id="tspan25-2-1-3-0-3-6-4-6-0-1-8-2-1-0"
         x="1085.3032"
         y="321.02499"
         style="font-style:normal;font-variant:normal;font-weight:normal;font-stretch:normal;font-size:29.3555px;font-family:Tahoma;-inkscape-font-specification:Tahoma;stroke-width:1.10082">San Pablo la Linea</tspan></text>
    <path
       style="display:inline;fill:#ffffff;stroke-width:1.00709"
       d="m 890.87761,531.04384 c -0.1131,-0.0334 -0.1856,-0.0632 -0.1631,-0.0667 0.022,-0.002 -0.988,-0.97424 -2.2454,-2.15785 -5.8277,-5.48571 -9.1787,-9.48641 -11.3792,-13.58526 -1.5157,-2.82308 -2.1942,-5.14458 -2.2736,-7.78036 -0.047,-1.55796 0.062,-2.52796 0.4324,-3.85794 1.1286,-4.04877 4.8858,-8.14073 9.1382,-9.95224 1.3535,-0.5766 3.3445,-1.10289 4.6394,-1.22625 0.3064,-0.0293 0.5142,-0.0777 0.462,-0.10776 -0.053,-0.0303 0.2941,-0.071 0.7696,-0.0906 1.0427,-0.0433 2.6314,0.0151 2.4991,0.0906 -0.051,0.0301 0.1557,0.0781 0.4621,0.10691 1.3037,0.12216 3.2747,0.64773 4.7105,1.25601 3.5662,1.51102 6.9671,4.85329 8.4945,8.34843 0.7839,1.79352 1.0686,3.33304 1.0051,5.43284 -0.079,2.64202 -0.7568,4.95415 -2.2841,7.79999 -2.1809,4.0646 -5.5384,8.07184 -11.3694,13.56973 -1.2576,1.18585 -2.2712,2.17055 -2.2522,2.18828 0.019,0.0178 -0.024,0.0322 -0.096,0.0322 -0.072,0 -0.1783,0.0129 -0.238,0.0303 -0.06,0.0168 -0.2007,0.002 -0.3128,-0.0305 z m 2.4633,-4.05637 c 3.1873,-3.08502 4.9326,-4.94576 6.7229,-7.16786 2.4401,-3.0288 4.0186,-5.70614 4.9292,-8.36093 1.2183,-3.55169 1.0309,-6.74631 -0.5712,-9.72797 -1.0581,-1.96963 -3.0083,-4.08792 -4.9782,-5.40729 -0.9095,-0.60917 -2.7423,-1.46977 -3.8301,-1.79851 -3.6517,-1.10336 -7.428,-0.84093 -10.9,0.75754 -1.3513,0.62206 -2.3854,1.29452 -3.4741,2.25912 -3.455,3.06109 -5.0995,6.70484 -4.7347,10.4901 0.4576,4.74591 3.4018,9.75544 9.3845,15.96741 1.7454,1.81241 5.0782,4.99028 5.2334,4.99028 0.089,0 0.9858,-0.80881 2.2183,-2.00189 z m -3.9781,-12.49009 c -2.5978,-0.62601 -4.5843,-2.56593 -5.1479,-5.02707 -0.1566,-0.68333 -0.1577,-1.98227 0,-2.67567 0.4722,-2.11086 2.117,-3.95008 4.2416,-4.74301 0.9326,-0.34802 1.6242,-0.47255 2.628,-0.47327 1.0308,-7.5e-4 1.794,0.13157 2.6918,0.46662 2.4123,0.90029 4.1313,3.04186 4.3556,5.42668 0.1221,1.3023 -0.084,2.38869 -0.6675,3.52061 -0.9019,1.74847 -2.5854,3.03 -4.6091,3.50847 -1.0657,0.25191 -2.436,0.25057 -3.4897,-0.002 z m 3.2979,-1.57585 c 0.8731,-0.24786 1.5408,-0.63596 2.2589,-1.31303 1.0795,-1.01796 1.5458,-2.06455 1.5458,-3.4699 0,-1.42414 -0.463,-2.44876 -1.5862,-3.50987 -0.5747,-0.54287 -0.8147,-0.70916 -1.3888,-0.96248 -0.8993,-0.39685 -1.4173,-0.5079 -2.3678,-0.5079 -0.9519,0 -1.4704,0.11147 -2.3648,0.50829 -0.5635,0.25006 -0.8212,0.42809 -1.3976,0.9653 -0.5764,0.53725 -0.7673,0.77747 -1.0356,1.30269 -0.432,0.84541 -0.5476,1.32087 -0.5451,2.24202 0,1.36942 0.4799,2.42652 1.5461,3.43185 0.8936,0.84255 1.8414,1.30862 3.0122,1.481 0.6048,0.0891 1.6949,0.0114 2.3229,-0.16792 z"
       id="path3-5-4-1-0-8-7-7-1-3-2-9-9-0-29-2" />
    <text
       xml:space="preserve"
       style="font-size:29.3555px;font-family:Century;-inkscape-font-specification:Century;text-align:center;writing-mode:lr-tb;direction:ltr;text-anchor:middle;display:inline;fill:#ffffff;stroke-width:1.10082"
       x="1057.4626"
       y="473.17978"
       id="text25-4-3-1-9-9-2-5-4-8-0-8-9-78-52-5"
       transform="scale(0.84197048,1.1876901)"><tspan
         id="tspan25-2-1-3-0-3-6-4-6-0-1-8-2-1-0-8"
         x="1057.4626"
         y="473.17978"
         style="font-style:normal;font-variant:normal;font-weight:normal;font-stretch:normal;font-size:29.3555px;font-family:Tahoma;-inkscape-font-specification:Tahoma;stroke-width:1.10082">Campo Nuevo</tspan><tspan
         x="1057.4626"
         y="510.00082"
         style="font-style:normal;font-variant:normal;font-weight:normal;font-stretch:normal;font-size:29.3555px;font-family:Tahoma;-inkscape-font-specification:Tahoma;stroke-width:1.10082"
         id="tspan33">Chicoy</tspan></text>
    <path
       style="display:inline;fill:#ffffff;stroke-width:1.00709"
       d="m 1332.8579,381.34838 c -0.1131,-0.0334 -0.1856,-0.0632 -0.1631,-0.0667 0.022,-0.002 -0.988,-0.97424 -2.2454,-2.15785 -5.8277,-5.48571 -9.1787,-9.48641 -11.3792,-13.58526 -1.5157,-2.82308 -2.1942,-5.14458 -2.2736,-7.78036 -0.047,-1.55796 0.062,-2.52796 0.4324,-3.85794 1.1286,-4.04877 4.8858,-8.14073 9.1382,-9.95224 1.3535,-0.5766 3.3445,-1.10289 4.6394,-1.22625 0.3064,-0.0293 0.5142,-0.0777 0.462,-0.10776 -0.053,-0.0303 0.2941,-0.071 0.7696,-0.0906 1.0427,-0.0433 2.6314,0.0151 2.4991,0.0906 -0.051,0.0301 0.1557,0.0781 0.4621,0.10691 1.3037,0.12216 3.2747,0.64773 4.7105,1.25601 3.5662,1.51102 6.9671,4.85329 8.4945,8.34843 0.7839,1.79352 1.0686,3.33304 1.0051,5.43284 -0.079,2.64202 -0.7568,4.95415 -2.2841,7.79999 -2.1809,4.0646 -5.5384,8.07184 -11.3694,13.56973 -1.2576,1.18585 -2.2712,2.17055 -2.2522,2.18828 0.019,0.0178 -0.024,0.0322 -0.096,0.0322 -0.072,0 -0.1783,0.0129 -0.238,0.0303 -0.06,0.0168 -0.2007,0.002 -0.3128,-0.0305 z m 2.4633,-4.05637 c 3.1873,-3.08502 4.9326,-4.94576 6.7229,-7.16786 2.4401,-3.0288 4.0186,-5.70614 4.9292,-8.36093 1.2183,-3.55169 1.0309,-6.74631 -0.5712,-9.72797 -1.0581,-1.96963 -3.0083,-4.08792 -4.9782,-5.40729 -0.9095,-0.60917 -2.7423,-1.46977 -3.8301,-1.79851 -3.6517,-1.10336 -7.428,-0.84093 -10.9,0.75754 -1.3513,0.62206 -2.3854,1.29452 -3.4741,2.25912 -3.455,3.06109 -5.0995,6.70484 -4.7347,10.4901 0.4576,4.74591 3.4018,9.75544 9.3845,15.96741 1.7454,1.81241 5.0782,4.99028 5.2334,4.99028 0.089,0 0.9858,-0.80881 2.2183,-2.00189 z m -3.9781,-12.49009 c -2.5978,-0.62601 -4.5843,-2.56593 -5.1479,-5.02707 -0.1566,-0.68333 -0.1577,-1.98227 0,-2.67567 0.4722,-2.11086 2.117,-3.95008 4.2416,-4.74301 0.9326,-0.34802 1.6242,-0.47255 2.628,-0.47327 1.0308,-7.5e-4 1.794,0.13157 2.6918,0.46662 2.4123,0.90029 4.1313,3.04186 4.3556,5.42668 0.1221,1.3023 -0.084,2.38869 -0.6675,3.52061 -0.9019,1.74847 -2.5854,3.03 -4.6091,3.50847 -1.0657,0.25191 -2.436,0.25057 -3.4897,-0.002 z m 3.2979,-1.57585 c 0.8731,-0.24786 1.5408,-0.63596 2.2589,-1.31303 1.0795,-1.01796 1.5458,-2.06455 1.5458,-3.4699 0,-1.42414 -0.463,-2.44876 -1.5862,-3.50987 -0.5747,-0.54287 -0.8147,-0.70916 -1.3888,-0.96248 -0.8993,-0.39685 -1.4173,-0.5079 -2.3678,-0.5079 -0.9519,0 -1.4704,0.11147 -2.3648,0.50829 -0.5635,0.25006 -0.8212,0.42809 -1.3976,0.9653 -0.5764,0.53725 -0.7673,0.77747 -1.0356,1.30269 -0.432,0.84541 -0.5476,1.32087 -0.5451,2.24202 0,1.36942 0.4799,2.42652 1.5461,3.43185 0.8936,0.84255 1.8414,1.30862 3.0122,1.481 0.6048,0.0891 1.6949,0.0114 2.3229,-0.16792 z"
       id="path3-5-4-1-0-8-7-7-1-3-2-9-9-0-29-8" />
    <text
       xml:space="preserve"
       style="font-size:29.3555px;font-family:Century;-inkscape-font-specification:Century;text-align:center;writing-mode:lr-tb;direction:ltr;text-anchor:middle;display:inline;fill:#ffffff;stroke-width:1.10082"
       x="1582.3983"
       y="347.14062"
       id="text25-4-3-1-9-9-2-5-4-8-0-8-9-78-52-1"
       transform="scale(0.84197048,1.1876901)"><tspan
         id="tspan25-2-1-3-0-3-6-4-6-0-1-8-2-1-0-9"
         x="1582.3983"
         y="347.14062"
         style="font-style:normal;font-variant:normal;font-weight:normal;font-stretch:normal;font-size:29.3555px;font-family:Tahoma;-inkscape-font-specification:Tahoma;stroke-width:1.10082">Renacimiento</tspan><tspan
         x="1582.3983"
         y="383.96167"
         style="font-style:normal;font-variant:normal;font-weight:normal;font-stretch:normal;font-size:29.3555px;font-family:Tahoma;-inkscape-font-specification:Tahoma;stroke-width:1.10082"
         id="tspan32">Vega Larga</tspan></text>
  </g>
</svg>
