<?xml version="1.0" encoding="UTF-8" standalone="no"?>
<!-- Created with Inkscape (http://www.inkscape.org/) -->

<svg
   width="210mm"
   height="297mm"
   viewBox="0 0 210 297"
   version="1.1"
   id="svg1"
   xmlns="http://www.w3.org/2000/svg"
   xmlns:svg="http://www.w3.org/2000/svg">
  <defs
     id="defs1" />
  <g
     id="layer14"
     transform="matrix(0.19666326,0,0,0.19685092,-116.47048,75.083208)">
    <path
       style="display:inline;fill:#0772d2;stroke-width:2.65295"
       d="m 653.17969,866.30467 c -20.52377,-7.82612 -38.91574,-14.25116 -40.8714,-14.27788 -8.13995,-0.11128 -6.49237,-5.55401 5.89831,-19.48399 7.2163,-8.11264 22.85974,-26.95101 34.76382,-41.86304 11.90377,-14.91203 26.73522,-32.94792 32.95861,-40.07976 6.22371,-7.13184 17.43579,-21.45446 24.916,-31.82805 21.91071,-30.3865 28.02874,-38.64175 48.92446,-66.01373 24.7927,-32.47675 46.1586,-59.36546 63.86636,-80.37424 7.55095,-8.95879 18.80722,-23.01852 25.01361,-31.2438 6.20668,-8.22529 19.84432,-23.91798 30.30591,-34.87265 10.46189,-10.95467 21.72592,-23.8522 25.03122,-28.66114 13.26685,-19.30248 31.32836,-39.54484 76.16872,-85.36664 38.08169,-38.91524 46.18359,-47.74712 46.18359,-50.34497 0,-1.44372 10.6458,-10.59926 23.6574,-20.34562 17.6152,-13.19461 28.8617,-19.4551 44.0329,-24.51147 45.4952,-15.1629 53.6835,-18.5723 64.4081,-26.81774 6.1571,-4.73385 11.1948,-10.15506 11.1948,-12.04716 0,-6.12734 27.4239,-40.58234 35.4723,-44.56676 32.5068,-16.09306 46.7353,-32.41397 50.6508,-58.10005 1.6191,-10.62239 4.3439,-17.18245 8.6489,-20.82486 3.4566,-2.92462 7.1563,-8.09257 8.2217,-11.48436 2.4112,-7.67706 -3.1841,-24.675152 -10.9622,-33.30185 -3.2259,-3.577803 -5.4377,-6.619409 -4.9155,-6.759122 0.5224,-0.139808 10.3532,-1.628559 21.8465,-3.308561 50.6512,-7.403841 88.0835,-13.560305 107.4698,-17.675436 11.4933,-2.439679 41.7193,-5.576321 67.1688,-6.970319 41.6069,-2.27903 101.5258,-9.084833 113.5673,-12.899366 3.484,-1.103702 9.2966,5.276454 23.8822,26.213746 10.6024,15.219866 24.0648,33.550018 29.9163,40.733698 19.4287,23.85187 33.2559,44.95189 31.6388,48.27983 -0.878,1.80729 -51.2733,22.88521 -111.9893,46.83983 -60.7157,23.95461 -113.5287,45.34014 -117.3619,47.52338 -3.833,2.18323 -22.4182,10.6067 -41.3,18.71883 -18.8818,8.11212 -42.3909,18.60766 -52.2424,23.32345 -9.8513,4.71578 -24.7547,11.13107 -33.1188,14.25623 -17.2074,6.42955 -40.2941,26.81987 -46.102,40.718 -1.964,4.69989 -2.8828,13.36594 -2.0419,19.25785 1.2497,8.75651 3.6298,12.14422 13.0358,18.553 6.3288,4.31223 14.8652,8.4527 18.97,9.20104 4.1047,0.74833 18.0531,3.50368 30.9964,6.12298 l 23.5331,4.76238 69.0103,-5.18661 c 73.9742,-5.55965 108.327,-5.2015 145.7435,1.51945 19.4977,3.50231 29.244,8.98213 29.244,16.44227 0,3.23171 -27.9991,13.30811 -74.1482,26.68466 -34.8187,10.0924 -73.69,24.62977 -102.1856,38.2163 -8.9191,4.25243 -33.5831,14.77566 -54.809,23.38496 l -38.5927,15.65324 -11.7307,22.19139 c -6.4518,12.20528 -14.9061,30.77263 -18.7873,41.2608 -3.8814,10.48817 -11.9303,29.05453 -17.8865,41.25858 -13.1495,26.94207 -17.7373,36.96703 -34.971,76.41476 l -13.3899,30.64923 -21.9871,1.47315 c -29.1467,1.9528 -79.6942,11.78672 -110.9322,21.58161 -42.0538,13.18621 -87.32463,38.07085 -140.18487,77.05768 l -22.73376,16.76704 -26.31699,2.26448 c -36.06121,3.10291 -64.99299,8.31177 -94.19793,16.95929 -22.11909,6.5495 -28.81954,7.39822 -64.96405,8.22903 l -40.30119,0.92634 z"
       id="path2-4" />
    <path
       style="display:inline;fill:#ffffff;stroke-width:1.3882"
       d="m 1003.7601,648.96335 c -0.1588,-0.0452 -0.2606,-0.0855 -0.2289,-0.0904 0.031,-0.003 -1.3872,-1.31847 -3.1526,-2.9203 -8.18205,-7.42399 -12.88695,-12.83827 -15.97645,-18.38537 -2.12798,-3.82058 -3.08054,-6.96235 -3.19205,-10.52944 -0.0664,-2.10844 0.0869,-3.42117 0.60707,-5.22107 1.58458,-5.47935 6.85968,-11.01713 12.82998,-13.4687 1.9003,-0.78034 4.6957,-1.49258 6.51375,-1.65952 0.4302,-0.0397 0.7219,-0.10518 0.6486,-0.14584 -0.074,-0.041 0.4129,-0.096 1.0807,-0.12262 1.4639,-0.0586 3.6944,0.0203 3.5085,0.12262 -0.072,0.0408 0.2187,0.10568 0.6489,0.14468 1.8304,0.16532 4.5976,0.8766 6.6135,1.69981 5.0069,2.04492 9.7817,6.56811 11.9262,11.2982 1.1005,2.42723 1.5003,4.51071 1.4112,7.35244 -0.1111,3.57555 -1.0626,6.70462 -3.2068,10.55599 -3.0621,5.50076 -7.776,10.92389 -15.9627,18.36437 -1.7655,1.60485 -3.1888,2.93748 -3.1619,2.96148 0.027,0.0241 -0.033,0.0435 -0.1349,0.0435 -0.1009,0 -0.2504,0.0174 -0.3341,0.041 -0.084,0.0227 -0.2818,0.003 -0.4392,-0.0413 z m 3.4585,-5.48961 c 4.4749,-4.17507 6.9253,-6.69326 9.4389,-9.70051 3.4259,-4.09898 5.6421,-7.72232 6.9206,-11.31513 1.7105,-4.80662 1.4474,-9.13001 -0.8021,-13.1652 -1.4854,-2.66555 -4.2234,-5.5323 -6.9892,-7.31786 -1.277,-0.82441 -3.8502,-1.98907 -5.3775,-2.43398 -5.127,-1.4932 -10.42885,-1.13805 -15.30365,1.02522 -1.8972,0.84184 -3.349,1.75191 -4.8776,3.05734 -4.8508,4.14267 -7.1597,9.07388 -6.6474,14.19659 0.6423,6.4228 4.7761,13.20237 13.1758,21.60923 2.4505,2.45279 7.12965,6.75353 7.34755,6.75353 0.1252,0 1.3842,-1.0946 3.1146,-2.70923 z m -5.5852,-16.90327 c -3.64735,-0.84719 -6.43655,-3.47256 -7.22765,-6.8033 -0.2199,-0.92477 -0.2215,-2.68266 0,-3.62107 0.6628,-2.85669 2.9722,-5.34578 5.95505,-6.41888 1.3095,-0.47098 2.2806,-0.63951 3.6899,-0.64049 1.4472,-10e-4 2.5187,0.17806 3.7792,0.6315 3.387,1.21839 5.8003,4.11665 6.1151,7.3441 0.1716,1.76245 -0.1175,3.2327 -0.9371,4.76456 -1.2662,2.36627 -3.6298,4.1006 -6.4711,4.74813 -1.4963,0.34093 -3.4201,0.33912 -4.8995,-0.003 z m 4.6302,-2.13264 c 1.2259,-0.33544 2.1633,-0.86068 3.1715,-1.77697 1.5156,-1.37764 2.1703,-2.79403 2.1703,-4.69594 0,-1.92734 -0.6501,-3.31399 -2.227,-4.75003 -0.807,-0.73467 -1.1439,-0.95972 -1.9498,-1.30254 -1.2627,-0.53707 -1.99,-0.68736 -3.3246,-0.68736 -1.3363,0 -2.0644,0.15086 -3.32,0.68788 -0.79135,0.33842 -1.15315,0.57935 -1.96225,1.30638 -0.8093,0.72708 -1.0774,1.05217 -1.454,1.76297 -0.6066,1.14412 -0.7688,1.78758 -0.7654,3.0342 0,1.85329 0.6738,3.28389 2.1707,4.64444 1.25465,1.14025 2.58545,1.77099 4.22915,2.00429 0.8492,0.12061 2.3797,0.0154 3.2614,-0.22725 z"
       id="path3-5-4-1-0-8-7-7-1-3-2-9-9-0-29-25-6-6" />
    <text
       xml:space="preserve"
       style="font-size:41.8376px;font-family:Century;-inkscape-font-specification:Century;text-align:center;writing-mode:lr-tb;direction:ltr;text-anchor:middle;display:inline;fill:#ffffff;stroke-width:1.56889"
       x="1129.4084"
       y="613.80328"
       id="text25-4-3-1-9-9-2-5-4-8-0-8-9-78-52-54-93-3"
       transform="scale(0.88668305,1.1277987)"><tspan
         id="tspan25-2-1-3-0-3-6-4-6-0-1-8-2-1-0-91-5-3"
         x="1129.4084"
         y="613.80328"
         style="font-style:normal;font-variant:normal;font-weight:normal;font-stretch:normal;font-size:41.8376px;font-family:Tahoma;-inkscape-font-specification:Tahoma;stroke-width:1.56889">Jalauté</tspan></text>
    <path
       style="display:inline;fill:#ffffff;stroke-width:1.3882"
       d="m 1125.9597,404.83328 c -0.1588,-0.0452 -0.2606,-0.0855 -0.2289,-0.0904 0.031,-0.003 -1.3872,-1.31847 -3.1526,-2.9203 -8.182,-7.42399 -12.8869,-12.83827 -15.9764,-18.38537 -2.128,-3.82058 -3.0805,-6.96235 -3.192,-10.52944 -0.066,-2.10844 0.087,-3.42117 0.607,-5.22107 1.5846,-5.47935 6.8597,-11.01713 12.83,-13.4687 1.9003,-0.78034 4.6957,-1.49258 6.5137,-1.65952 0.4302,-0.0397 0.7219,-0.10518 0.6486,-0.14584 -0.074,-0.041 0.4129,-0.096 1.0807,-0.12262 1.4639,-0.0586 3.6944,0.0203 3.5085,0.12262 -0.072,0.0408 0.2187,0.10568 0.6489,0.14468 1.8304,0.16532 4.5976,0.8766 6.6135,1.69981 5.0069,2.04492 9.7817,6.56811 11.9262,11.2982 1.1005,2.42723 1.5003,4.51071 1.4112,7.35244 -0.1111,3.57555 -1.0626,6.70462 -3.2068,10.55599 -3.0621,5.50076 -7.776,10.92389 -15.9627,18.36437 -1.7655,1.60485 -3.1888,2.93748 -3.1619,2.96148 0.027,0.0241 -0.033,0.0435 -0.1349,0.0435 -0.1009,0 -0.2504,0.0174 -0.3341,0.041 -0.084,0.0227 -0.2818,0.003 -0.4392,-0.0413 z m 3.4585,-5.48961 c 4.4749,-4.17507 6.9253,-6.69326 9.4389,-9.70051 3.4259,-4.09898 5.6421,-7.72232 6.9206,-11.31513 1.7105,-4.80662 1.4474,-9.13001 -0.8021,-13.1652 -1.4854,-2.66555 -4.2234,-5.5323 -6.9892,-7.31786 -1.277,-0.82441 -3.8502,-1.98907 -5.3775,-2.43398 -5.127,-1.4932 -10.4288,-1.13805 -15.3036,1.02522 -1.8972,0.84184 -3.349,1.75191 -4.8776,3.05734 -4.8508,4.14267 -7.1597,9.07388 -6.6474,14.19659 0.6423,6.4228 4.7761,13.20237 13.1758,21.60923 2.4505,2.45279 7.1296,6.75353 7.3475,6.75353 0.1252,0 1.3842,-1.0946 3.1146,-2.70923 z m -5.5852,-16.90327 c -3.6473,-0.84719 -6.4365,-3.47256 -7.2276,-6.8033 -0.2199,-0.92477 -0.2215,-2.68266 0,-3.62107 0.6628,-2.85669 2.9722,-5.34578 5.955,-6.41888 1.3095,-0.47098 2.2806,-0.63951 3.6899,-0.64049 1.4472,-10e-4 2.5187,0.17806 3.7792,0.6315 3.387,1.21839 5.8003,4.11665 6.1151,7.3441 0.1716,1.76245 -0.1175,3.2327 -0.9371,4.76456 -1.2662,2.36627 -3.6298,4.1006 -6.4711,4.74813 -1.4963,0.34093 -3.4201,0.33912 -4.8995,-0.003 z m 4.6302,-2.13264 c 1.2259,-0.33544 2.1633,-0.86068 3.1715,-1.77697 1.5156,-1.37764 2.1703,-2.79403 2.1703,-4.69594 0,-1.92734 -0.6501,-3.31399 -2.227,-4.75003 -0.807,-0.73467 -1.1439,-0.95972 -1.9498,-1.30254 -1.2627,-0.53707 -1.99,-0.68736 -3.3246,-0.68736 -1.3363,0 -2.0644,0.15086 -3.32,0.68788 -0.7913,0.33842 -1.1531,0.57935 -1.9622,1.30638 -0.8093,0.72708 -1.0774,1.05217 -1.454,1.76297 -0.6066,1.14412 -0.7688,1.78758 -0.7654,3.0342 0,1.85329 0.6738,3.28389 2.1707,4.64444 1.2546,1.14025 2.5854,1.77099 4.2291,2.00429 0.8492,0.12061 2.3797,0.0154 3.2614,-0.22725 z"
       id="path3-5-4-1-0-8-7-7-1-3-2-9-9-0-29-25-6-6-8" />
    <text
       xml:space="preserve"
       style="font-size:42.3816px;font-family:Century;-inkscape-font-specification:Century;text-align:center;writing-mode:lr-tb;direction:ltr;text-anchor:middle;display:inline;fill:#ffffff;stroke-width:1.58929"
       x="1280.8674"
       y="395.20972"
       id="text25-4-3-1-9-9-2-5-4-8-0-8-9-78-52-54-93-3-2"
       transform="scale(0.87530126,1.1424638)"><tspan
         id="tspan25-2-1-3-0-3-6-4-6-0-1-8-2-1-0-91-5-3-5"
         x="1280.8674"
         y="395.20972"
         style="font-style:normal;font-variant:normal;font-weight:normal;font-stretch:normal;font-size:42.3816px;font-family:Tahoma;-inkscape-font-specification:Tahoma;stroke-width:1.58929">San Marcos</tspan><tspan
         x="1280.8674"
         y="448.36957"
         style="font-style:normal;font-variant:normal;font-weight:normal;font-stretch:normal;font-size:42.3816px;font-family:Tahoma;-inkscape-font-specification:Tahoma;stroke-width:1.58929"
         id="tspan34">Sacsamaní</tspan></text>
  </g>
</svg>
